{
.appVersion = "3343";
.formatVersion = 3;
customParameters = (
{
name = panose;
value = (
0,
0,
0,
0,
0,
0,
0,
0,
0,
0
);
},
{
name = unicodeRanges;
value = (
0,
1,
2,
3,
4,
5,
6,
7,
9,
29,
31,
32,
33,
35,
36,
37,
38,
42,
45,
47,
60,
62
);
},
{
name = fsType;
value = (
);
},
{
name = glyphOrder;
value = (
.notdef,
CR,
space,
A,
Aacute,
Abreve,
uni01CD,
Acircumflex,
Adieresis,
Agrave,
Amacron,
Aogonek,
Aring,
Atilde,
AE,
AEacute,
B,
C,
Cacute,
Ccaron,
Ccedilla,
Cdotaccent,
D,
Dcaron,
Dcroat,
Eth,
E,
Eacute,
Ebreve,
Ecaron,
Ecircumflex,
Edieresis,
Edotaccent,
Egrave,
Emacron,
Eogonek,
uni018E,
uni1EBC,
uni018F,
F,
G,
Gbreve,
uni0122,
Gdotaccent,
H,
Hbar,
I,
IJ,
Iacute,
Ibreve,
Icircumflex,
Idieresis,
Idotaccent,
Igrave,
Imacron,
Iogonek,
Itilde,
J,
uni004A0301,
K,
uni0136,
L,
Lacute,
Lcaron,
uni013B,
Ldot,
Lslash,
M,
N,
Nacute,
Ncaron,
uni0145,
Ntilde,
Eng,
O,
Oacute,
Obreve,
Ocircumflex,
Odieresis,
Ograve,
Ohungarumlaut,
Omacron,
Oslash,
Otilde,
OE,
P,
Thorn,
Q,
R,
Racute,
Rcaron,
uni0156,
S,
Sacute,
Scaron,
Scedilla,
uni0218,
uni1E9E,
T,
Tcaron,
uni0162,
uni021A,
U,
Uacute,
Ubreve,
Ucircumflex,
Udieresis,
Ugrave,
Uhungarumlaut,
Umacron,
Uogonek,
Uring,
Utilde,
V,
W,
Wacute,
Wcircumflex,
Wdieresis,
Wgrave,
X,
Y,
Yacute,
Ycircumflex,
Ydieresis,
Ygrave,
uni1EF8,
Z,
Zacute,
Zcaron,
Zdotaccent,
uniA78B,
a,
aacute,
abreve,
uni01CE,
acircumflex,
adieresis,
agrave,
amacron,
aogonek,
aring,
atilde,
ae,
aeacute,
b,
c,
cacute,
ccaron,
ccedilla,
cdotaccent,
d,
dcaron,
dcroat,
eth,
e,
eacute,
ebreve,
ecaron,
ecircumflex,
edieresis,
edotaccent,
egrave,
emacron,
eogonek,
uni1EBD,
uni0259,
f,
g,
gbreve,
uni0123,
gdotaccent,
h,
hbar,
i,
dotlessi,
iacute,
ibreve,
icircumflex,
idieresis,
i.loclTRK,
igrave,
imacron,
iogonek,
itilde,
ij,
j,
uni0237,
uni006A0301,
k,
uni0137,
l,
lacute,
lcaron,
uni013C,
ldot,
lslash,
m,
n,
nacute,
ncaron,
uni0146,
ntilde,
eng,
o,
oacute,
obreve,
ocircumflex,
odieresis,
ograve,
ohungarumlaut,
omacron,
oslash,
otilde,
oe,
p,
thorn,
q,
r,
racute,
rcaron,

glyphs = (
{
glyphname = .notdef;
layers = (
{
layerId = m01;
shapes = (
{
closed = 1;
nodes = (
(19,0,l),
(420,0,l),
(544,700,l),
(143,700,l)
);
},
{
closed = 1;
nodes = (
(99,57,l),
(203,643,l),
(464,643,l),
(360,57,l)
);
}
);
userData = {
assembly = "NPUSHB[ ]	/* 39 values pushed */
4 1 1 0 2 3 1 2 103 0 3 0 0 3 87 0 3 3 0 95 0 0 3 0 79 0 0 7 6 5 4 0 3 0 3 17 5 6 23
CALL[ ]	/* CallFunction */";
};
width = 528;
}
);
note = .notdef;
},
{
glyphname = A;
kernLeft = A;
kernRight = A;
layers = (
{
anchors = (
{
name = bottom;
pos = (294,0);
},
{
name = ogonek;
pos = (613,0);
},
{
name = top;
pos = (418,700);
}
);
layerId = m01;
shapes = (
{
closed = 1;
nodes = (
(95,0,l),
(183,168,l),
(465,168,l),
(494,0,l),
(613,0,l),
(481,700,l),
(355,700,l),
(-25,0,l)
);
},
{
closed = 1;
nodes = (
(395,571,l),
(450,255,l),
(229,255,l)
);
}
);
userData = {
assembly = "NPUSHB[ ]	/* 40 values pushed */
9 1 4 0 1 76 5 1 4 0 2 1 4 2 104 0 0 0 33 77 3 1 1 1 34 1 78 8 8 8 10 8 10 17 17 17 16 6 8 26
CALL[ ]	/* CallFunction */";
};
width = 675;
}
);
note = A;
unicode = 65;
},
{
glyphname = Aogonek;
kernLeft = A;
layers = (
{
anchors = (
{
name = bottom;
pos = (294,0);
},
{
name = ogonek;
pos = (613,0);
},
{
name = top;
pos = (418,700);
}
);
layerId = m01;
shapes = (
{
closed = 1;
nodes = (
(95,0,l),
(183,168,l),
(465,168,l),
(492,9,l),
(435,-20,o),
(386,-86,o),
(386,-126,qs),
(386,-166,o),
(449,-208,o),
(498,-208,qs),
(537,-208,o),
(584,-194,q),
(595,-125,l),
(556,-140,o),
(524,-140,qs),
(502,-140,o),
(476,-121,o),
(476,-104,qs),
(476,-82,o),
(512,-46,o),
(555,-27,qs),
(613,0,l),
(481,700,l),
(355,700,l),
(-25,0,l)
);
},
{
closed = 1;
nodes = (
(395,571,l),
(450,255,l),
(229,255,l)
);
}
);
userData = {
assembly = "NPUSHB[ ]	/* 19 values pushed */
26 1 5 0 20 1 4 3 11 1 1 4 3 76 2 1 4 1 75
MPPEM[ ]	/* MeasurePixelPerEm */
PUSHB[ ]	/* 1 value pushed */
41
LT[ ]	/* LessThan */
IF[ ]	/* If */
NPUSHB[ ]	/* 30 values pushed */
6 1 5 0 3 4 5 3 104 0 0 0 33 77 0 4 4 34 77 0 1 1 2 97 0 2 2 38 2 78
ELSE[ ]	/* Else */
NPUSHB[ ]	/* 27 values pushed */
6 1 5 0 3 4 5 3 104 0 1 0 2 1 2 101 0 0 0 33 77 0 4 4 34 4 78
EIF[ ]	/* EndIf */
NPUSHB[ ]	/* 14 values pushed */
25 25 25 27 25 27 17 22 35 39 16 7 8 27
CALL[ ]	/* CallFunction */";
};
width = 675;
}
);
note = Aogonek;
unicode = 260;
},
{
glyphname = AE;
kernLeft = AE;
layers = (
{
anchors = (
{
name = bottom;
pos = (418,0);
},
{
name = top;
pos = (695,700);
}
);
layerId = m01;
shapes = (
{
closed = 1;
nodes = (
(98,0,l),
(204,145,l),
(460,145,l),
(434,0,l),
(824,0,l),
(840,90,l),
(564,90,l),
(603,311,l),
(850,311,l),
(865,399,l),
(617,399,l),
(655,610,l),
(932,610,l),
(948,700,l),
(484,700,l),
(-25,0,l)
);
},
{
closed = 1;
nodes = (
(542,612,l),
(475,233,l),
(267,233,l)
);
}
);
userData = {
assembly = "NPUSHB[ ]	/* 62 values pushed */
17 1 1 0 1 76 0 2 0 3 8 2 3 103 9 1 8 0 6 4 8 6 103 0 1 1 0 95 0 0 0 33 77 0 4 4 5 95 7 1 5 5 34 5 78 16 16 16 18 16 18 17 17 17 17 17 17 17 16 10 8 30
CALL[ ]	/* CallFunction */";
};
width = 922;
}
);
note = AE;
unicode = 198;
},
{
glyphname = B;
kernRight = B;
layers = (
{
layerId = m01;
shapes = (
{
closed = 1;
nodes = (
(302,0,ls),
(380,0,o),
(500,57,o),
(567,157,o),
(567,220,qs),
(567,272,o),
(508,358,o),
(460,376,q),
(524,397,o),
(594,491,o),
(594,547,qs),
(594,615,o),
(495,700,o),
(401,700,qs),
(144,700,l),
(20,0,l)
);
},
{
closed = 1;
nodes = (
(151,96,l),
(190,320,l),
(340,320,ls),
(396,320,o),
(453,269,o),
(453,224,qs),
(453,162,o),
(377,96,o),
(303,96,qs)
);
},
{
closed = 1;
nodes = (
(206,415,l),
(239,604,l),
(371,604,ls),
(425,604,o),
(474,559,o),
(474,521,qs),
(474,473,o),
(408,415,o),
(341,415,qs)
);
}
);
userData = {
assembly = "NPUSHB[ ]	/* 57 values pushed */
7 1 2 5 1 76 7 1 5 0 2 3 5 2 103 0 4 4 0 95 0 0 0 33 77 6 1 3 3 1 95 0 1 1 34 1 78 25 25 16 16 25 33 25 32 31 29 16 24 16 23 37 43 32 8 8 25
CALL[ ]	/* CallFunction */";
};
width = 615;
}
);
note = B;
unicode = 66;
},
{
glyphname = C;
kernLeft = C;
kernRight = B;
layers = (
{
anchors = (
{
name = bottom;
pos = (316,0);
},
{
name = top;
pos = (440,700);
}
);
layerId = m01;
shapes = (
{
closed = 1;
nodes = (
(457,-12,o),
(635,106,o),
(675,213,q),
(549,213,l),
(524,153,o),
(424,89,o),
(352,89,qs),
(265,89,o),
(168,190,o),
(168,280,qs),
(168,362,o),
(232,514,o),
(357,610,o),
(442,610,qs),
(515,610,o),
(594,542,o),
(596,481,q),
(722,481,l),
(720,591,o),
(583,712,o),
(459,712,qs),
(343,712,o),
(156,594,o),
(51,391,o),
(51,269,qs),
(51,195,o),
(109,68,o),
(236,-12,o),
(334,-12,qs)
);
}
);
userData = {
assembly = "NPUSHB[ ]	/* 51 values pushed */
0 1 2 4 2 1 4 128 0 4 3 2 4 3 126 0 2 2 0 97 0 0 0 39 77 0 3 3 5 97 6 1 5 5 40 5 78 0 0 0 28 0 27 18 37 34 18 38 7 8 27
CALL[ ]	/* CallFunction */";
};
width = 720;
}
);
note = C;
unicode = 67;
},
{
glyphname = Ccedilla;
kernLeft = C;
kernRight = Cacute;
layers = (
{
anchors = (
{
name = bottom;
pos = (270,-262);
},
{
name = top;
pos = (440,700);
}
);
layerId = m01;
shapes = (
{
closed = 1;
nodes = (
(309,-262,ls),
(369,-262,o),
(456,-195,o),
(456,-136,qs),
(456,-95,o),
(393,-53,o),
(342,-54,q),
(350,-12,l),
(467,-8,o),
(637,110,o),
(675,213,q),
(549,213,l),
(524,153,o),
(424,89,o),
(352,89,qs),
(265,89,o),
(168,190,o),
(168,280,qs),
(168,362,o),
(232,514,o),
(357,610,o),
(442,610,qs),
(515,610,o),
(594,542,o),
(596,481,q),
(722,481,l),
(720,591,o),
(583,712,o),
(459,712,qs),
(343,712,o),
(156,594,o),
(51,391,o),
(51,269,qs),
(51,165,o),
(163,8,o),
(278,-8,q),
(259,-116,l),
(316,-116,ls),
(369,-116,o),
(369,-148,qs),
(368,-171,o),
(332,-195,o),
(302,-195,qs),
(197,-195,l),
(185,-262,l)
);
}
);
userData = {
assembly = "NPUSHB[ ]	/* 71 values pushed */
8 1 7 5 1 76 0 3 4 6 4 3 6 128 0 6 5 4 6 5 126 0 8 0 1 0 8 1 105 0 0 0 9 0 9 99 0 4 4 2 97 0 2 2 39 77 0 5 5 7 97 0 7 7 40 7 78 44 42 17 18 18 37 34 18 39 35 32 10 8 31
CALL[ ]	/* CallFunction */";
};
width = 720;
}
);
note = Ccedilla;
unicode = 199;
},
{
glyphname = D;
kernRight = B;
layers = (
{
anchors = (
{
name = bottom;
pos = (305,0);
},
{
name = top;
pos = (429,700);
}
);
layerId = m01;
shapes = (
{
closed = 1;
nodes = (
(143,700,l),
(20,0,l),
(251,0,ls),
(364,0,o),
(560,92,o),
(681,279,o),
(681,416,qs),
(681,552,o),
(529,700,o),
(374,700,qs)
);
},
{
closed = 1;
nodes = (
(150,97,l),
(240,604,l),
(353,604,ls),
(462,604,o),
(564,506,o),
(564,406,qs),
(564,321,o),
(502,181,o),
(367,97,o),
(264,97,qs)
);
}
);
userData = {
assembly = "NPUSHB[ ]	/* 41 values pushed */
0 2 2 1 95 4 1 1 1 33 77 5 1 3 3 0 95 0 0 0 34 0 78 10 10 0 0 10 19 10 18 17 15 0 9 0 8 37 6 8 23
CALL[ ]	/* CallFunction */";
};
width = 698;
}
);
note = D;
unicode = 68;
},
{
glyphname = Dcroat;
kernRight = B;
layers = (
{
layerId = m01;
shapes = (
{
closed = 1;
nodes = (
(29,0,l),
(261,0,ls),
(390,0,o),
(488,53,qs),
(585,106,o),
(690,294,o),
(690,416,qs),
(690,552,o),
(538,700,o),
(384,700,qs),
(152,700,l),
(100,399,l),
(21,399,l),
(4,300,l),
(82,300,l)
);
},
{
closed = 1;
nodes = (
(160,97,l),
(196,300,l),
(381,300,l),
(398,399,l),
(213,399,l),
(250,604,l),
(363,604,ls),
(471,604,o),
(573,506,o),
(573,406,qs),
(573,311,o),
(538,242,qs),
(502,172,o),
(367,97,o),
(273,97,qs)
);
}
);
userData = {
assembly = "NPUSHB[ ]	/* 57 values pushed */
5 1 0 6 8 2 3 7 0 3 103 0 4 4 1 95 0 1 1 33 77 9 1 7 7 2 95 0 2 2 34 2 78 15 15 0 0 15 29 15 28 27 26 25 24 23 21 0 14 0 14 38 33 17 10 8 25
CALL[ ]	/* CallFunction */";
};
width = 707;
}
);
note = Dcroat;
unicode = 272;
},
{
glyphname = Eth;
kernRight = B;
layers = (
{
layerId = m01;
shapes = (
{
closed = 1;
nodes = (
(29,0,l),
(261,0,ls),
(390,0,o),
(488,53,qs),
(585,106,o),
(690,294,o),
(690,416,qs),
(690,552,o),
(538,700,o),
(384,700,qs),
(152,700,l),
(100,399,l),
(21,399,l),
(4,300,l),
(82,300,l)
);
},
{
closed = 1;
nodes = (
(160,97,l),
(196,300,l),
(381,300,l),
(398,399,l),
(213,399,l),
(250,604,l),
(363,604,ls),
(471,604,o),
(573,506,o),
(573,406,qs),
(573,311,o),
(538,242,qs),
(502,172,o),
(367,97,o),
(273,97,qs)
);
}
);
userData = {
assembly = "NPUSHB[ ]	/* 57 values pushed */
5 1 0 6 8 2 3 7 0 3 103 0 4 4 1 95 0 1 1 33 77 9 1 7 7 2 95 0 2 2 34 2 78 15 15 0 0 15 29 15 28 27 26 25 24 23 21 0 14 0 14 38 33 17 10 8 25
CALL[ ]	/* CallFunction */";
};
width = 707;
}
);
note = Eth;
unicode = 208;
},
{
glyphname = E;
kernRight = E;
layers = (
{
anchors = (
{
name = bottom;
pos = (228,0);
},
{
name = ogonek;
pos = (447,0);
},
{
name = top;
pos = (352,700);
}
);
layerId = m01;
shapes = (
{
closed = 1;
nodes = (
(447,0,l),
(464,96,l),
(150,96,l),
(190,322,l),
(459,322,l),
(476,417,l),
(207,417,l),
(239,604,l),
(554,604,l),
(571,700,l),
(143,700,l),
(19,0,l)
);
}
);
userData = {
assembly = "NPUSHB[ ]	/* 38 values pushed */
0 2 0 3 4 2 3 103 0 1 1 0 95 0 0 0 33 77 0 4 4 5 95 0 5 5 34 5 78 17 17 17 17 17 16 6 8 28
CALL[ ]	/* CallFunction */";
};
width = 544;
}
);
note = E;
unicode = 69;
},
{
glyphname = Eogonek;
layers = (
{
anchors = (
{
name = bottom;
pos = (228,0);
},
{
name = ogonek;
pos = (447,0);
},
{
name = top;
pos = (352,700);
}
);
layerId = m01;
shapes = (
{
closed = 1;
nodes = (
(309,0,l),
(261,-28,o),
(220,-90,o),
(220,-126,qs),
(220,-166,o),
(283,-208,o),
(332,-208,qs),
(371,-208,o),
(418,-194,q),
(429,-125,l),
(390,-140,o),
(358,-140,qs),
(336,-140,o),
(310,-121,o),
(310,-104,qs),
(310,-82,o),
(346,-46,o),
(389,-27,qs),
(447,0,l),
(464,96,l),
(150,96,l),
(190,322,l),
(459,322,l),
(476,417,l),
(207,417,l),
(239,604,l),
(554,604,l),
(571,700,l),
(143,700,l),
(19,0,l)
);
}
);
userData = {
assembly = "PUSHB[ ]	/* 6 values pushed */
19 1 5 7 1 76
MPPEM[ ]	/* MeasurePixelPerEm */
PUSHB[ ]	/* 1 value pushed */
41
LT[ ]	/* LessThan */
IF[ ]	/* If */
NPUSHB[ ]	/* 39 values pushed */
0 2 0 3 4 2 3 103 0 1 1 0 95 0 0 0 33 77 0 4 4 7 95 0 7 7 34 77 0 5 5 6 97 0 6 6 38 6 78
ELSE[ ]	/* Else */
NPUSHB[ ]	/* 36 values pushed */
0 2 0 3 4 2 3 103 0 5 0 6 5 6 101 0 1 1 0 95 0 0 0 33 77 0 4 4 7 95 0 7 7 34 7 78
EIF[ ]	/* EndIf */
NPUSHB[ ]	/* 11 values pushed */
21 35 39 17 17 17 17 16 8 8 30
CALL[ ]	/* CallFunction */";
};
width = 544;
}
);
note = Eogonek;
unicode = 280;
},
{
glyphname = uni018E;
layers = (
{
layerId = m01;
shapes = (
{
closed = 1;
nodes = (
(450,0,l),
(574,700,l),
(130,700,l),
(113,604,l),
(443,604,l),
(410,417,l),
(125,417,l),
(109,322,l),
(394,322,l),
(354,96,l),
(23,96,l),
(6,0,l)
);
}
);
userData = {
assembly = "NPUSHB[ ]	/* 38 values pushed */
0 2 0 1 0 2 1 103 0 3 3 4 95 0 4 4 33 77 0 0 0 5 95 0 5 5 34 5 78 17 17 17 17 17 16 6 8 28
CALL[ ]	/* CallFunction */";
};
width = 569;
}
);
note = uni018E;
unicode = (398,477);
},
{
glyphname = uni018F;
kernLeft = uni018F;
kernRight = B;
layers = (
{
layerId = m01;
shapes = (
{
closed = 1;
nodes = (
(445,-12,o),
(632,109,o),
(735,313,o),
(735,433,qs),
(735,506,o),
(673,633,o),
(544,712,o),
(450,712,qs),
(380,712,o),
(240,663,o),
(121,557,o),
(86,476,q),
(211,476,l),
(242,538,o),
(362,609,o),
(434,609,qs),
(517,609,o),
(615,509,o),
(615,424,qs),
(615,399,o),
(613,384,q),
(66,384,l),
(46,314,o),
(46,257,qs),
(46,181,o),
(111,59,o),
(237,-12,o),
(324,-12,qs)
);
},
{
closed = 1;
nodes = (
(257,91,o),
(162,178,o),
(162,255,qs),
(162,277,o),
(165,299,q),
(600,299,l),
(587,245,o),
(518,150,o),
(408,91,o),
(339,91,qs)
);
}
);
userData = {
assembly = "NPUSHB[ ]	/* 60 values pushed */
0 2 1 0 1 2 0 128 0 0 0 5 6 0 5 103 0 1 1 3 97 0 3 3 39 77 8 1 6 6 4 97 7 1 4 4 40 4 78 28 28 0 0 28 37 28 36 32 31 0 27 0 26 35 18 36 21 9 8 26
CALL[ ]	/* CallFunction */";
};
width = 750;
}
);
note = uni018F;
unicode = 399;
},
{
glyphname = F;
kernRight = F;
layers = (
{
layerId = m01;
shapes = (
{
closed = 1;
nodes = (
(133,0,l),
(188,314,l),
(464,314,l),
(482,409,l),
(205,409,l),
(239,604,l),
(559,604,l),
(576,700,l),
(143,700,l),
(19,0,l)
);
}
);
userData = {
assembly = "NPUSHB[ ]	/* 32 values pushed */
0 2 0 3 4 2 3 103 0 1 1 0 95 0 0 0 33 77 0 4 4 34 4 78 17 17 17 17 16 5 8 27
CALL[ ]	/* CallFunction */";
};
width = 527;
}
);
note = F;
unicode = 70;
},
{
glyphname = G;
kernLeft = C;
kernRight = G;
layers = (
{
anchors = (
{
name = bottom;
pos = (336,0);
},
{
name = top;
pos = (460,700);
}
);
layerId = m01;
shapes = (
{
closed = 1;
nodes = (
(408,-12,o),
(522,44,o),
(568,100,q),
(561,0,l),
(664,0,l),
(731,377,l),
(381,377,l),
(364,283,l),
(597,283,l),
(570,191,o),
(448,89,o),
(353,89,qs),
(268,89,o),
(170,196,o),
(170,289,qs),
(170,369,o),
(231,515,o),
(358,608,o),
(452,608,qs),
(523,608,o),
(605,547,o),
(611,493,q),
(738,493,l),
(733,596,o),
(589,712,o),
(467,712,qs),
(348,712,o),
(160,602,o),
(53,405,o),
(53,280,qs),
(53,205,o),
(112,72,o),
(235,-12,o),
(326,-12,qs)
);
}
);
userData = {
assembly = "PUSHB[ ]	/* 6 values pushed */
30 1 3 4 1 76
MPPEM[ ]	/* MeasurePixelPerEm */
PUSHB[ ]	/* 1 value pushed */
21
LT[ ]	/* LessThan */
IF[ ]	/* If */
NPUSHB[ ]	/* 39 values pushed */
0 1 2 5 2 1 5 128 0 5 0 4 3 5 4 103 0 2 2 0 97 0 0 0 39 77 0 3 3 6 97 8 7 2 6 6 34 6 78
ELSE[ ]	/* Else */
NPUSHB[ ]	/* 43 values pushed */
0 1 2 5 2 1 5 128 0 5 0 4 3 5 4 103 0 2 2 0 97 0 0 0 39 77 0 6 6 34 77 0 3 3 7 97 8 1 7 7 40 7 78
EIF[ ]	/* EndIf */
NPUSHB[ ]	/* 16 values pushed */
0 0 0 33 0 32 17 17 18 37 34 18 38 9 8 29
CALL[ ]	/* CallFunction */";
};
width = 758;
}
);
note = G;
unicode = 71;
},
{
glyphname = H;
layers = (
{
layerId = m01;
shapes = (
{
closed = 1;
nodes = (
(133,0,l),
(190,323,l),
(521,323,l),
(463,0,l),
(577,0,l),
(701,700,l),
(587,700,l),
(537,418,l),
(207,418,l),
(257,700,l),
(144,700,l),
(20,0,l)
);
}
);
userData = {
assembly = "NPUSHB[ ]	/* 30 values pushed */
0 1 0 4 3 1 4 104 2 1 0 0 33 77 5 1 3 3 34 3 78 17 17 17 17 17 16 6 8 28
CALL[ ]	/* CallFunction */";
};
width = 684;
}
);
note = H;
unicode = 72;
},
{
glyphname = Hbar;
layers = (
{
layerId = m01;
shapes = (
{
closed = 1;
nodes = (
(133,0,l),
(190,323,l),
(521,323,l),
(463,0,l),
(577,0,l),
(665,500,l),
(708,500,l),
(725,595,l),
(682,595,l),
(701,700,l),
(587,700,l),
(568,595,l),
(238,595,l),
(257,700,l),
(144,700,l),
(125,595,l),
(81,595,l),
(64,500,l),
(108,500,l),
(20,0,l)
);
},
{
closed = 1;
nodes = (
(221,500,l),
(552,500,l),
(537,418,l),
(207,418,l)
);
}
);
userData = {
assembly = "NPUSHB[ ]	/* 56 values pushed */
5 3 2 1 10 6 2 0 11 1 0 104 12 1 11 0 8 7 11 8 103 4 1 2 2 33 77 9 1 7 7 34 7 78 20 20 20 23 20 23 22 21 19 18 17 17 17 17 17 17 17 17 16 13 8 31
CALL[ ]	/* CallFunction */";
};
width = 684;
}
);
note = Hbar;
unicode = 294;
},
{
glyphname = I;
layers = (
{
anchors = (
{
name = bottom;
pos = (76,0);
},
{
name = ogonek;
pos = (133,0);
},
{
name = top;
pos = (200,700);
}
);
layerId = m01;
shapes = (
{
closed = 1;
nodes = (
(133,0,l),
(257,700,l),
(143,700,l),
(20,0,l)
);
}
);
userData = {
assembly = "NPUSHB[ ]	/* 16 values pushed */
0 0 0 33 77 0 1 1 34 1 78 17 16 2 8 24
CALL[ ]	/* CallFunction */";
};
width = 240;
}
);
note = I;
unicode = 73;
},
{
glyphname = Iogonek;
layers = (
{
anchors = (
{
name = bottom;
pos = (76,0);
},
{
name = ogonek;
pos = (133,0);
},
{
name = top;
pos = (200,700);
}
);
layerId = m01;
shapes = (
{
closed = 1;
nodes = (
(57,-208,o),
(104,-194,q),
(115,-125,l),
(76,-140,o),
(44,-140,qs),
(22,-140,o),
(-4,-121,o),
(-4,-104,qs),
(-4,-82,o),
(32,-46,o),
(75,-27,qs),
(133,0,l),
(257,700,l),
(143,700,l),
(23,15,l),
(-41,-17,o),
(-94,-85,o),
(-94,-126,qs),
(-94,-166,o),
(-31,-208,o),
(18,-208,qs)
);
}
);
userData = {
assembly = "PUSHB[ ]	/* 6 values pushed */
17 1 1 0 1 76
MPPEM[ ]	/* MeasurePixelPerEm */
PUSHB[ ]	/* 1 value pushed */
41
LT[ ]	/* LessThan */
IF[ ]	/* If */
NPUSHB[ ]	/* 17 values pushed */
0 0 0 33 77 0 1 1 2 97 3 1 2 2 38 2 78
ELSE[ ]	/* Else */
NPUSHB[ ]	/* 14 values pushed */
0 1 3 1 2 1 2 101 0 0 0 33 0 78
EIF[ ]	/* EndIf */
NPUSHB[ ]	/* 11 values pushed */
0 0 0 20 0 19 39 22 4 8 24
CALL[ ]	/* CallFunction */";
};
width = 240;
}
);
note = Iogonek;
unicode = 302;
},
{
glyphname = J;
kernLeft = J;
kernRight = J;
layers = (
{
anchors = (
{
name = bottom;
pos = (204,0);
},
{
name = top;
pos = (454,700);
}
);
layerId = m01;
shapes = (
{
closed = 1;
nodes = (
(278,-12,o),
(407,95,o),
(423,188,qs),
(512,700,l),
(399,700,l),
(310,188,ls),
(302,144,o),
(246,89,o),
(201,89,qs),
(161,89,o),
(122,131,o),
(122,168,qs),
(122,185,o),
(125,201,q),
(12,201,l),
(7,171,o),
(7,152,qs),
(7,74,o),
(102,-12,o),
(185,-12,qs)
);
}
);
userData = {
assembly = "MPPEM[ ]	/* MeasurePixelPerEm */
PUSHB[ ]	/* 1 value pushed */
11
LT[ ]	/* LessThan */
IF[ ]	/* If */
NPUSHB[ ]	/* 24 values pushed */
0 0 2 1 1 0 114 0 2 2 33 77 0 1 1 3 98 4 1 3 3 40 3 78
ELSE[ ]	/* Else */
NPUSHB[ ]	/* 25 values pushed */
0 0 2 1 2 0 1 128 0 2 2 33 77 0 1 1 3 98 4 1 3 3 40 3 78
EIF[ ]	/* EndIf */
NPUSHB[ ]	/* 12 values pushed */
0 0 0 19 0 18 19 36 20 5 8 25
CALL[ ]	/* CallFunction */";
};
width = 497;
}
);
note = J;
unicode = 74;
},
{
glyphname = K;
kernRight = K;
layers = (
{
anchors = (
{
name = bottom;
pos = (264,0);
},
{
name = ogonek;
pos = (133,0);
},
{
name = top;
pos = (388,700);
}
);
layerId = m01;
shapes = (
{
closed = 1;
nodes = (
(133,0,l),
(192,333,l),
(423,0,l),
(568,0,l),
(308,357,l),
(663,700,l),
(516,700,l),
(201,384,l),
(257,700,l),
(143,700,l),
(20,0,l)
);
}
);
userData = {
assembly = "NPUSHB[ ]	/* 28 values pushed */
8 5 2 3 2 0 1 76 1 1 0 0 33 77 3 1 2 2 34 2 78 18 18 18 16 4 8 26
CALL[ ]	/* CallFunction */";
};
width = 614;
}
);
note = K;
unicode = 75;
},
{
glyphname = L;
kernRight = L;
layers = (
{
anchors = (
{
name = bottom;
pos = (218,0);
},
{
name = top;
pos = (250,700);
},
{
name = topright;
pos = (338,700);
}
);
layerId = m01;
shapes = (
{
closed = 1;
nodes = (
(443,0,l),
(460,95,l),
(150,95,l),
(257,700,l),
(143,700,l),
(20,0,l)
);
}
);
userData = {
assembly = "NPUSHB[ ]	/* 22 values pushed */
0 0 0 33 77 0 1 1 2 96 0 2 2 34 2 78 17 17 16 3 8 25
CALL[ ]	/* CallFunction */";
};
width = 525;
}
);
note = L;
unicode = 76;
},
{
glyphname = Ldot;
kernRight = L;
layers = (
{
layerId = m01;
shapes = (
{
closed = 1;
nodes = (
(443,0,l),
(460,95,l),
(150,95,l),
(257,700,l),
(143,700,l),
(20,0,l)
);
},
{
closed = 1;
nodes = (
(419,275,o),
(462,319,o),
(462,350,qs),
(462,381,o),
(418,424,o),
(387,424,qs),
(356,424,o),
(313,381,o),
(313,350,qs),
(313,318,o),
(356,275,o),
(387,275,qs)
);
}
);
userData = {
assembly = "NPUSHB[ ]	/* 38 values pushed */
0 3 5 1 4 1 3 4 105 0 0 0 33 77 0 1 1 2 96 0 2 2 34 2 78 6 6 6 17 6 16 37 17 17 16 6 8 26
CALL[ ]	/* CallFunction */";
};
width = 525;
}
);
note = Ldot;
unicode = 319;
},
{
glyphname = Lslash;
kernRight = L;
layers = (
{
layerId = m01;
shapes = (
{
closed = 1;
nodes = (
(468,0,l),
(485,95,l),
(175,95,l),
(216,332,l),
(333,370,l),
(352,478,l),
(236,440,l),
(281,700,l),
(168,700,l),
(115,400,l),
(36,374,l),
(17,267,l),
(96,293,l),
(44,0,l)
);
}
);
userData = {
assembly = "NPUSHB[ ]	/* 30 values pushed */
7 6 1 3 1 0 1 76 0 0 0 33 77 0 1 1 2 96 0 2 2 34 2 78 17 21 20 3 8 25
CALL[ ]	/* CallFunction */";
};
width = 549;
}
);
note = Lslash;
unicode = 321;
},
{
glyphname = M;
layers = (
{
layerId = m01;
shapes = (
{
closed = 1;
nodes = (
(133,0,l),
(221,498,l),
(342,93,l),
(430,93,l),
(693,498,l),
(605,0,l),
(719,0,l),
(842,700,l),
(708,700,l),
(412,236,l),
(277,700,l),
(143,700,l),
(20,0,l)
);
}
);
userData = {
assembly = "NPUSHB[ ]	/* 37 values pushed */
10 7 2 3 3 0 1 76 0 3 0 2 0 3 2 128 1 1 0 0 33 77 4 1 2 2 34 2 78 18 18 17 18 16 5 8 27
CALL[ ]	/* CallFunction */";
};
width = 826;
}
);
note = M;
unicode = 77;
},
{
glyphname = N;
kernRight = N;
layers = (
{
anchors = (
{
name = bottom;
pos = (305,0);
},
{
name = top;
pos = (429,700);
}
);
layerId = m01;
shapes = (
{
closed = 1;
nodes = (
(133,0,l),
(224,514,l),
(477,0,l),
(590,0,l),
(714,700,l),
(600,700,l),
(509,185,l),
(256,700,l),
(143,700,l),
(20,0,l)
);
}
);
userData = {
assembly = "NPUSHB[ ]	/* 27 values pushed */
7 2 2 2 0 1 76 1 1 0 0 33 77 3 1 2 2 34 2 78 18 17 18 16 4 8 26
CALL[ ]	/* CallFunction */";
};
width = 697;
}
);
note = N;
unicode = 78;
},
{
glyphname = Eng;
layers = (
{
anchors = (
{
name = bottom;
pos = (305,0);
},
{
name = top;
pos = (429,700);
}
);
layerId = m01;
shapes = (
{
closed = 1;
nodes = (
(133,0,l),
(224,514,l),
(477,0,l),
(466,-63,ls),
(460,-96,o),
(425,-123,o),
(391,-123,qs),
(360,-123,l),
(343,-220,l),
(392,-220,ls),
(552,-220,o),
(579,-63,qs),
(714,700,l),
(600,700,l),
(510,185,l),
(256,700,l),
(143,700,l),
(20,0,l)
);
}
);
userData = {
assembly = "NPUSHB[ ]	/* 42 values pushed */
15 2 2 4 0 1 76 14 1 4 1 75 1 1 0 0 33 77 0 4 4 34 77 0 3 3 2 97 0 2 2 38 2 78 21 33 34 18 16 5 8 27
CALL[ ]	/* CallFunction */";
};
width = 697;
}
);
note = Eng;
unicode = 330;
},
{
glyphname = O;
kernLeft = C;
kernRight = B;
layers = (
{
anchors = (
{
name = bottom;
pos = (349,0);
},
{
name = ogonek;
pos = (431,10);
},
{
name = top;
pos = (473,700);
},
{
name = topright;
pos = (854,700);
}
);
layerId = m01;
shapes = (
{
closed = 1;
nodes = (
(464,-12,o),
(657,101,o),
(770,296,o),
(770,412,qs),
(770,489,o),
(703,627,o),
(568,712,o),
(471,712,qs),
(357,712,o),
(165,599,o),
(52,404,o),
(52,289,qs),
(52,210,o),
(122,72,o),
(257,-12,o),
(351,-12,qs)
);
},
{
closed = 1;
nodes = (
(275,90,o),
(169,204,o),
(169,298,qs),
(169,383,o),
(246,526,o),
(378,610,o),
(457,610,qs),
(548,610,o),
(653,498,o),
(653,404,qs),
(653,318,o),
(576,174,o),
(444,90,o),
(366,90,qs)
);
}
);
userData = {
assembly = "NPUSHB[ ]	/* 41 values pushed */
0 2 2 0 97 0 0 0 39 77 5 1 3 3 1 97 4 1 1 1 40 1 78 16 16 0 0 16 29 16 28 23 21 0 15 0 14 38 6 8 23
CALL[ ]	/* CallFunction */";
};
width = 786;
}
);
note = O;
unicode = 79;
},
{
glyphname = Oslash;
kernLeft = Oslash;
layers = (
{
layerId = m01;
shapes = (
{
closed = 1;
nodes = (
(462,-12,o),
(654,102,o),
(766,296,o),
(766,412,qs),
(766,517,o),
(712,593,q),
(825,700,l),
(714,700,l),
(659,648,l),
(622,679,o),
(524,712,o),
(468,712,qs),
(354,712,o),
(161,599,o),
(49,405,o),
(49,289,qs),
(49,187,o),
(100,113,q),
(-17,0,l),
(94,0,l),
(152,55,l),
(191,23,o),
(290,-12,o),
(347,-12,qs)
);
},
{
closed = 1;
nodes = (
(285,89,o),
(233,133,q),
(627,510,l),
(649,466,o),
(649,404,qs),
(649,318,o),
(572,173,o),
(440,89,o),
(362,89,qs)
);
},
{
closed = 1;
nodes = (
(186,195,l),
(166,241,o),
(166,298,qs),
(166,382,o),
(242,525,o),
(374,610,o),
(454,610,qs),
(529,610,o),
(578,571,q)
);
}
);
userData = {
assembly = "MPPEM[ ]	/* MeasurePixelPerEm */
PUSHB[ ]	/* 1 value pushed */
21
LT[ ]	/* LessThan */
IF[ ]	/* If */
NPUSHB[ ]	/* 19 values pushed */
14 1 5 1 41 40 30 29 17 5 6 4 5 2 1 0 4 3 76
ELSE[ ]	/* Else */
NPUSHB[ ]	/* 19 values pushed */
14 1 5 2 41 40 30 29 17 5 6 4 5 2 1 0 4 3 76
EIF[ ]	/* EndIf */
MPPEM[ ]	/* MeasurePixelPerEm */
PUSHB[ ]	/* 1 value pushed */
21
LT[ ]	/* LessThan */
IF[ ]	/* If */
NPUSHB[ ]	/* 25 values pushed */
0 5 5 1 97 2 1 1 1 39 77 7 1 4 4 0 97 6 3 2 0 0 34 0 78
ELSE[ ]	/* Else */
NPUSHB[ ]	/* 33 values pushed */
0 2 2 33 77 0 5 5 1 97 0 1 1 39 77 0 0 0 34 77 7 1 4 4 3 97 6 1 3 3 40 3 78
EIF[ ]	/* EndIf */
NPUSHB[ ]	/* 20 values pushed */
24 24 0 0 35 33 24 32 24 31 0 23 0 22 19 38 19 8 8 25
CALL[ ]	/* CallFunction */";
};
width = 773;
}
);
note = Oslash;
unicode = 216;
},
{
glyphname = OE;
kernLeft = C;
layers = (
{
anchors = (
{
name = bottom;
pos = (509,0);
},
{
name = top;
pos = (633,700);
}
);
layerId = m01;
shapes = (
{
closed = 1;
nodes = (
(408,-12,o),
(548,50,o),
(598,105,q),
(580,0,l),
(1007,0,l),
(1024,96,l),
(710,96,l),
(749,316,l),
(1022,316,l),
(1039,412,l),
(766,412,l),
(799,604,l),
(1113,604,l),
(1131,700,l),
(704,700,l),
(684,592,l),
(654,648,o),
(530,712,o),
(454,712,qs),
(347,712,o),
(163,600,o),
(54,409,o),
(54,297,qs),
(54,222,o),
(115,80,o),
(242,-12,o),
(336,-12,qs)
);
},
{
closed = 1;
nodes = (
(305,89,o),
(219,145,o),
(172,244,o),
(172,304,qs),
(172,386,o),
(247,526,o),
(375,610,o),
(449,610,qs),
(506,610,o),
(595,562,o),
(646,471,o),
(646,408,qs),
(646,323,o),
(570,176,o),
(439,89,o),
(361,89,qs)
);
}
);
userData = {
assembly = "NPUSHB[ ]	/* 10 values pushed */
10 1 3 2 23 1 5 4 2 76
MPPEM[ ]	/* MeasurePixelPerEm */
PUSHB[ ]	/* 1 value pushed */
21
LT[ ]	/* LessThan */
IF[ ]	/* If */
NPUSHB[ ]	/* 35 values pushed */
0 3 0 4 5 3 4 103 8 1 2 2 0 97 1 1 0 0 39 77 11 9 2 5 5 6 97 10 7 2 6 6 34 6 78
ELSE[ ]	/* Else */
MPPEM[ ]	/* MeasurePixelPerEm */
PUSHB[ ]	/* 1 value pushed */
33
LT[ ]	/* LessThan */
IF[ ]	/* If */
NPUSHB[ ]	/* 56 values pushed */
0 3 0 4 5 3 4 103 8 1 2 2 0 97 0 0 0 39 77 8 1 2 2 1 95 0 1 1 33 77 11 9 2 5 5 6 95 0 6 6 34 77 11 9 2 5 5 7 97 10 1 7 7 40 7 78
ELSE[ ]	/* Else */
MPPEM[ ]	/* MeasurePixelPerEm */
PUSHB[ ]	/* 1 value pushed */
39
LT[ ]	/* LessThan */
IF[ ]	/* If */
NPUSHB[ ]	/* 53 values pushed */
0 3 0 4 5 3 4 103 8 1 2 2 0 97 0 0 0 39 77 8 1 2 2 1 95 0 1 1 33 77 0 5 5 6 95 0 6 6 34 77 11 1 9 9 7 97 10 1 7 7 40 7 78
ELSE[ ]	/* Else */
NPUSHB[ ]	/* 51 values pushed */
0 3 0 4 5 3 4 103 0 8 8 0 97 0 0 0 39 77 0 2 2 1 95 0 1 1 33 77 0 5 5 6 95 0 6 6 34 77 11 1 9 9 7 97 10 1 7 7 40 7 78
EIF[ ]	/* EndIf */
EIF[ ]	/* EndIf */
EIF[ ]	/* EndIf */
NPUSHB[ ]	/* 24 values pushed */
27 27 0 0 27 42 27 41 35 33 0 26 0 25 17 17 17 17 17 19 38 12 8 29
CALL[ ]	/* CallFunction */";
};
width = 1106;
}
);
note = OE;
unicode = 338;
},
{
glyphname = P;
kernRight = P;
layers = (
{
layerId = m01;
shapes = (
{
closed = 1;
nodes = (
(133,0,l),
(183,283,l),
(319,283,ls),
(404,283,o),
(534,340,o),
(605,448,o),
(605,520,qs),
(605,602,o),
(490,700,o),
(393,700,qs),
(143,700,l),
(20,0,l)
);
},
{
closed = 1;
nodes = (
(200,380,l),
(239,604,l),
(373,604,ls),
(428,604,o),
(488,552,o),
(488,508,qs),
(488,445,o),
(409,380,o),
(334,380,qs)
);
}
);
userData = {
assembly = "NPUSHB[ ]	/* 38 values pushed */
5 1 4 0 1 2 4 1 103 0 3 3 0 95 0 0 0 33 77 0 2 2 34 2 78 12 12 12 20 12 19 37 17 37 32 6 8 26
CALL[ ]	/* CallFunction */";
};
width = 587;
}
);
note = P;
unicode = 80;
},
{
glyphname = Thorn;
kernRight = Thorn;
layers = (
{
layerId = m01;
shapes = (
{
closed = 1;
nodes = (
(134,0,l),
(158,140,l),
(294,140,ls),
(375,140,o),
(506,196,o),
(581,306,o),
(581,382,qs),
(581,466,o),
(467,561,o),
(368,561,qs),
(232,561,l),
(257,700,l),
(143,700,l),
(20,0,l)
);
},
{
closed = 1;
nodes = (
(174,232,l),
(216,468,l),
(347,468,ls),
(464,468,o),
(464,379,qs),
(464,309,o),
(380,232,o),
(305,232,qs)
);
}
);
userData = {
assembly = "NPUSHB[ ]	/* 42 values pushed */
0 1 0 4 5 1 4 104 6 1 5 0 2 3 5 2 103 0 0 0 33 77 0 3 3 34 3 78 14 14 14 21 14 20 36 17 37 33 16 7 8 27
CALL[ ]	/* CallFunction */";
};
width = 587;
}
);
note = Thorn;
unicode = 222;
},
{
glyphname = Q;
kernLeft = C;
kernRight = Q;
layers = (
{
layerId = m01;
shapes = (
{
closed = 1;
nodes = (
(473,-12,o),
(577,54,q),
(633,-12,l),
(719,64,l),
(663,129,l),
(714,186,o),
(771,332,o),
(771,412,qs),
(771,489,o),
(704,627,o),
(569,712,o),
(472,712,qs),
(358,712,o),
(165,599,o),
(53,405,o),
(53,289,qs),
(53,210,o),
(123,72,o),
(258,-12,o),
(352,-12,qs)
);
},
{
closed = 1;
nodes = (
(170,383,o),
(247,526,o),
(379,610,o),
(458,610,qs),
(549,610,o),
(654,498,o),
(654,404,qs),
(654,349,o),
(622,251,o),
(592,211,q),
(509,310,l),
(422,234,l),
(510,131,l),
(442,89,o),
(366,89,qs),
(276,89,o),
(170,204,o),
(170,298,qs)
);
}
);
userData = {
assembly = "NPUSHB[ ]	/* 55 values pushed */
27 26 25 24 14 5 2 3 17 15 2 1 2 2 76 16 1 1 73 0 3 3 0 97 0 0 0 39 77 0 2 2 1 97 4 1 1 1 40 1 78 0 0 34 32 23 21 0 19 0 18 38 5 8 23
CALL[ ]	/* CallFunction */";
};
width = 796;
}
);
note = Q;
unicode = 81;
},
{
glyphname = R;
kernRight = R;
layers = (
{
anchors = (
{
name = bottom;
pos = (253,0);
},
{
name = top;
pos = (377,700);
}
);
layerId = m01;
shapes = (
{
closed = 1;
nodes = (
(133,0,l),
(186,300,l),
(276,300,l),
(398,0,l),
(533,0,l),
(393,319,l),
(487,339,o),
(581,450,o),
(581,530,qs),
(581,608,o),
(470,700,o),
(374,700,qs),
(143,700,l),
(19,0,l)
);
},
{
closed = 1;
nodes = (
(203,396,l),
(239,604,l),
(354,604,ls),
(412,604,o),
(464,555,o),
(464,516,qs),
(464,454,o),
(393,396,o),
(318,396,qs)
);
}
);
userData = {
assembly = "NPUSHB[ ]	/* 46 values pushed */
7 1 2 5 1 76 6 1 5 0 2 1 5 2 103 0 4 4 0 95 0 0 0 33 77 3 1 1 1 34 1 78 14 14 14 22 14 21 37 17 17 22 32 7 8 27
CALL[ ]	/* CallFunction */";
};
width = 596;
}
);
note = R;
unicode = 82;
},
{
glyphname = S;
kernLeft = S;
kernRight = S;
layers = (
{
anchors = (
{
name = bottom;
pos = (249,0);
},
{
name = top;
pos = (373,700);
}
);
layerId = m01;
shapes = (
{
closed = 1;
nodes = (
(343,-12,o),
(467,45,o),
(537,148,o),
(537,216,qs),
(537,281,o),
(454,370,o),
(384,395,qs),
(358,405,ls),
(313,421,o),
(263,444,o),
(246,460,qs),
(224,480,o),
(224,512,qs),
(224,558,o),
(291,616,o),
(347,616,qs),
(396,616,o),
(450,566,o),
(450,530,qs),
(450,519,o),
(449,513,q),
(570,513,l),
(572,535,o),
(572,544,qs),
(572,620,o),
(459,712,o),
(365,712,qs),
(288,712,o),
(169,657,o),
(103,558,o),
(103,493,qs),
(103,437,o),
(171,353,o),
(237,329,qs),
(271,317,ls),
(325,298,o),
(380,273,o),
(414,233,o),
(414,202,qs),
(414,148,o),
(341,83,o),
(277,83,qs),
(220,83,o),
(151,141,o),
(151,188,q),
(153,211,l),
(33,211,l),
(30,192,o),
(30,171,qs),
(30,88,o),
(157,-12,o),
(263,-12,qs)
);
}
);
userData = {
assembly = "PUSHB[ ]	/* 6 values pushed */
6 1 1 0 1 76
MPPEM[ ]	/* MeasurePixelPerEm */
PUSHB[ ]	/* 1 value pushed */
13
LT[ ]	/* LessThan */
IF[ ]	/* If */
NPUSHB[ ]	/* 36 values pushed */
0 3 4 0 4 3 114 0 0 1 4 0 1 126 0 4 4 2 97 0 2 2 39 77 0 1 1 5 97 6 1 5 5 40 5 78
ELSE[ ]	/* Else */
NPUSHB[ ]	/* 37 values pushed */
0 3 4 0 4 3 0 128 0 0 1 4 0 1 126 0 4 4 2 97 0 2 2 39 77 0 1 1 5 97 6 1 5 5 40 5 78
EIF[ ]	/* EndIf */
NPUSHB[ ]	/* 14 values pushed */
0 0 0 51 0 50 36 20 45 35 20 7 8 27
CALL[ ]	/* CallFunction */";
};
width = 586;
}
);
note = S;
unicode = 83;
},
{
glyphname = Scedilla;
kernLeft = S;
kernRight = S;
layers = (
{
anchors = (
{
name = bottom;
pos = (203,-262);
},
{
name = top;
pos = (373,700);
}
);
layerId = m01;
shapes = (
{
closed = 1;
nodes = (
(242,-262,ls),
(302,-262,o),
(389,-195,o),
(389,-136,qs),
(389,-95,o),
(326,-53,o),
(275,-54,q),
(283,-12,l),
(358,-8,o),
(473,50,o),
(537,151,o),
(537,216,qs),
(537,281,o),
(454,370,o),
(384,395,qs),
(358,405,ls),
(313,421,o),
(263,444,o),
(246,460,qs),
(224,480,o),
(224,512,qs),
(224,558,o),
(291,616,o),
(347,616,qs),
(396,616,o),
(450,566,o),
(450,530,qs),
(450,519,o),
(449,513,q),
(570,513,l),
(572,535,o),
(572,544,qs),
(572,620,o),
(459,712,o),
(365,712,qs),
(288,712,o),
(169,657,o),
(103,558,o),
(103,493,qs),
(103,437,o),
(171,353,o),
(237,329,qs),
(271,317,ls),
(325,298,o),
(380,273,o),
(414,233,o),
(414,202,qs),
(414,148,o),
(341,83,o),
(277,83,qs),
(220,83,o),
(151,141,o),
(151,188,q),
(153,211,l),
(33,211,l),
(30,192,o),
(30,171,qs),
(30,99,o),
(127,3,o),
(211,-9,q),
(192,-116,l),
(249,-116,ls),
(302,-116,o),
(302,-148,qs),
(301,-171,o),
(265,-195,o),
(235,-195,qs),
(130,-195,l),
(118,-262,l)
);
}
);
userData = {
assembly = "NPUSHB[ ]	/* 10 values pushed */
15 1 3 2 8 1 7 3 2 76
MPPEM[ ]	/* MeasurePixelPerEm */
PUSHB[ ]	/* 1 value pushed */
13
LT[ ]	/* LessThan */
IF[ ]	/* If */
NPUSHB[ ]	/* 50 values pushed */
0 5 6 2 6 5 114 0 2 3 6 2 3 126 0 8 0 1 0 8 1 105 0 0 0 9 0 9 100 0 6 6 4 97 0 4 4 39 77 0 3 3 7 97 0 7 7 40 7 78
ELSE[ ]	/* Else */
NPUSHB[ ]	/* 51 values pushed */
0 5 6 2 6 5 2 128 0 2 3 6 2 3 126 0 8 0 1 0 8 1 105 0 0 0 9 0 9 100 0 6 6 4 97 0 4 4 39 77 0 3 3 7 97 0 7 7 40 7 78
EIF[ ]	/* EndIf */
NPUSHB[ ]	/* 14 values pushed */
68 66 17 30 36 20 45 35 22 35 32 10 8 31
CALL[ ]	/* CallFunction */";
};
width = 586;
}
);
note = Scedilla;
unicode = 350;
},
{
glyphname = uni1E9E;
layers = (
{
layerId = m01;
shapes = (
{
closed = 1;
nodes = (
(471,-10,o),
(573,38,o),
(629,123,o),
(629,177,qs),
(629,230,o),
(577,293,o),
(516,316,qs),
(466,333,o),
(421,361,o),
(421,380,qs),
(421,398,o),
(451,426,o),
(484,446,qs),
(513,463,o),
(529,476,qs),
(588,521,o),
(588,584,qs),
(588,625,o),
(539,693,o),
(446,732,o),
(383,732,qs),
(262,732,o),
(117,610,o),
(99,513,qs),
(8,0,l),
(122,0,l),
(211,503,ls),
(235,637,o),
(367,637,qs),
(417,637,o),
(471,599,o),
(471,566,qs),
(471,535,o),
(429,492,o),
(384,463,qs),
(366,452,ls),
(336,433,o),
(304,387,o),
(304,357,qs),
(304,318,o),
(365,266,o),
(434,241,qs),
(479,224,o),
(515,189,o),
(515,164,qs),
(515,124,o),
(460,75,o),
(416,75,qs),
(371,75,o),
(325,128,o),
(329,173,q),
(220,173,l),
(214,89,o),
(313,-10,o),
(405,-10,qs)
);
}
);
userData = {
assembly = "MPPEM[ ]	/* MeasurePixelPerEm */
PUSHB[ ]	/* 1 value pushed */
13
LT[ ]	/* LessThan */
IF[ ]	/* If */
NPUSHB[ ]	/* 30 values pushed */
0 0 2 1 1 0 114 0 2 2 4 97 0 4 4 41 77 0 1 1 3 98 6 5 2 3 3 34 3 78
ELSE[ ]	/* Else */
MPPEM[ ]	/* MeasurePixelPerEm */
PUSHB[ ]	/* 1 value pushed */
25
LT[ ]	/* LessThan */
IF[ ]	/* If */
NPUSHB[ ]	/* 31 values pushed */
0 0 2 1 2 0 1 128 0 2 2 4 97 0 4 4 41 77 0 1 1 3 98 6 5 2 3 3 34 3 78
ELSE[ ]	/* Else */
MPPEM[ ]	/* MeasurePixelPerEm */
PUSHB[ ]	/* 1 value pushed */
33
LT[ ]	/* LessThan */
IF[ ]	/* If */
NPUSHB[ ]	/* 35 values pushed */
0 0 2 1 2 0 1 128 0 2 2 4 97 0 4 4 41 77 0 3 3 34 77 0 1 1 5 98 6 1 5 5 40 5 78
ELSE[ ]	/* Else */
NPUSHB[ ]	/* 33 values pushed */
0 0 2 1 2 0 1 128 0 4 0 2 0 4 2 105 0 3 3 34 77 0 1 1 5 98 6 1 5 5 40 5 78
EIF[ ]	/* EndIf */
EIF[ ]	/* EndIf */
EIF[ ]	/* EndIf */
NPUSHB[ ]	/* 17 values pushed */
0 0 0 54 0 53 34 32 29 28 26 24 34 18 7 8 24
CALL[ ]	/* CallFunction */";
};
width = 670;
}
);
note = uni1E9E;
unicode = 7838;
},
{
glyphname = T;
kernLeft = T;
kernRight = T;
layers = (
{
anchors = (
{
name = bottom;
pos = (239,0);
},
{
name = top;
pos = (363,700);
}
);
layerId = m01;
shapes = (
{
closed = 1;
nodes = (
(296,0,l),
(402,605,l),
(609,605,l),
(626,700,l),
(101,700,l),
(84,605,l),
(289,605,l),
(183,0,l)
);
}
);
userData = {
assembly = "NPUSHB[ ]	/* 24 values pushed */
2 1 0 0 1 95 0 1 1 33 77 0 3 3 34 3 78 17 17 17 16 4 8 26
CALL[ ]	/* CallFunction */";
};
width = 566;
}
);
note = T;
unicode = 84;
},
{
glyphname = uni0162;
kernLeft = T;
kernRight = T;
layers = (
{
anchors = (
{
name = bottom;
pos = (193,-262);
},
{
name = top;
pos = (363,700);
}
);
layerId = m01;
shapes = (
{
closed = 1;
nodes = (
(203,0,l),
(182,-116,l),
(239,-116,ls),
(292,-116,o),
(292,-148,qs),
(291,-171,o),
(255,-195,o),
(225,-195,qs),
(120,-195,l),
(108,-262,l),
(232,-262,ls),
(292,-262,o),
(379,-195,o),
(379,-136,qs),
(379,-95,o),
(316,-53,o),
(265,-54,q),
(275,0,l),
(296,0,l),
(402,605,l),
(609,605,l),
(626,700,l),
(101,700,l),
(84,605,l),
(289,605,l),
(183,0,l)
);
}
);
userData = {
assembly = "NPUSHB[ ]	/* 45 values pushed */
0 4 0 7 6 4 7 105 0 6 0 5 6 5 99 2 1 0 0 1 95 0 1 1 33 77 8 1 3 3 34 3 78 17 35 33 36 17 17 17 17 16 9 8 31
CALL[ ]	/* CallFunction */";
};
width = 566;
}
);
note = uni0162;
unicode = 354;
},
{
glyphname = U;
kernLeft = U;
kernRight = U;
layers = (
{
anchors = (
{
name = bottom;
pos = (289,0);
},
{
name = ogonek;
pos = (404,10);
},
{
name = top;
pos = (413,700);
},
{
name = topright;
pos = (733,700);
}
);
layerId = m01;
shapes = (
{
closed = 1;
nodes = (
(351,-12,o),
(483,42,o),
(584,166,o),
(602,265,qs),
(678,700,l),
(565,700,l),
(487,265,ls),
(472,179,o),
(374,92,o),
(300,92,qs),
(236,92,o),
(167,154,o),
(167,216,qs),
(167,235,o),
(172,265,qs),
(249,700,l),
(136,700,l),
(59,265,ls),
(53,229,o),
(53,197,qs),
(53,98,o),
(173,-12,o),
(280,-12,qs)
);
}
);
userData = {
assembly = "NPUSHB[ ]	/* 30 values pushed */
2 1 0 0 33 77 0 1 1 3 98 4 1 3 3 40 3 78 0 0 0 22 0 21 19 37 21 5 8 25
CALL[ ]	/* CallFunction */";
};
width = 666;
}
);
note = U;
unicode = 85;
},
{
glyphname = Uogonek;
kernLeft = U;
kernRight = U;
layers = (
{
anchors = (
{
name = bottom;
pos = (289,0);
},
{
name = ogonek;
pos = (404,10);
},
{
name = top;
pos = (413,700);
},
{
name = topright;
pos = (733,700);
}
);
layerId = m01;
shapes = (
{
closed = 1;
nodes = (
(328,-198,o),
(375,-184,q),
(386,-115,l),
(347,-130,o),
(315,-130,qs),
(293,-130,o),
(267,-111,o),
(267,-94,qs),
(267,-72,o),
(303,-36,o),
(346,-17,qs),
(401,8,l),
(476,35,o),
(584,162,o),
(602,265,qs),
(678,700,l),
(565,700,l),
(487,265,ls),
(472,179,o),
(374,92,o),
(300,92,qs),
(236,92,o),
(167,154,o),
(167,216,qs),
(167,235,o),
(172,265,qs),
(249,700,l),
(136,700,l),
(59,265,ls),
(53,229,o),
(53,197,qs),
(53,109,o),
(149,2,o),
(237,-9,q),
(177,-55,o),
(177,-116,qs),
(177,-156,o),
(240,-198,o),
(289,-198,qs)
);
}
);
userData = {
assembly = "PUSHB[ ]	/* 7 values pushed */
35 4 2 3 1 1 76
MPPEM[ ]	/* MeasurePixelPerEm */
PUSHB[ ]	/* 1 value pushed */
23
LT[ ]	/* LessThan */
IF[ ]	/* If */
NPUSHB[ ]	/* 26 values pushed */
0 1 0 3 0 1 3 128 2 1 0 0 33 77 0 3 3 4 98 5 1 4 4 38 4 78
ELSE[ ]	/* Else */
NPUSHB[ ]	/* 23 values pushed */
0 1 0 3 0 1 3 128 0 3 5 1 4 3 4 102 2 1 0 0 33 0 78
EIF[ ]	/* EndIf */
NPUSHB[ ]	/* 13 values pushed */
0 0 0 38 0 37 42 19 37 26 6 8 26
CALL[ ]	/* CallFunction */";
};
width = 666;
}
);
note = Uogonek;
unicode = 370;
},
{
glyphname = V;
kernLeft = V;
kernRight = V;
layers = (
{
layerId = m01;
shapes = (
{
closed = 1;
nodes = (
(225,0,l),
(362,0,l),
(745,700,l),
(623,700,l),
(315,119,l),
(212,700,l),
(91,700,l)
);
}
);
userData = {
assembly = "NPUSHB[ ]	/* 30 values pushed */
1 1 1 0 1 76 3 2 2 0 0 33 77 0 1 1 34 1 78 0 0 0 6 0 6 17 18 4 8 24
CALL[ ]	/* CallFunction */";
};
width = 676;
}
);
note = V;
unicode = 86;
},
{
glyphname = W;
kernLeft = W;
kernRight = W;
layers = (
{
anchors = (
{
name = bottom;
pos = (454,0);
},
{
name = top;
pos = (573,700);
}
);
layerId = m01;
shapes = (
{
closed = 1;
nodes = (
(543,529,l),
(594,0,l),
(734,0,l),
(1048,700,l),
(925,700,l),
(687,131,l),
(639,700,l),
(511,700,l),
(256,131,l),
(221,700,l),
(99,700,l),
(161,0,l),
(301,0,l)
);
}
);
userData = {
assembly = "NPUSHB[ ]	/* 36 values pushed */
11 6 3 3 3 0 1 76 2 1 2 0 0 33 77 5 4 2 3 3 34 3 78 0 0 0 12 0 12 17 18 18 17 6 8 26
CALL[ ]	/* CallFunction */";
};
width = 991;
}
);
note = W;
unicode = 87;
},
{
glyphname = X;
kernLeft = X;
kernRight = X;
layers = (
{
layerId = m01;
shapes = (
{
closed = 1;
nodes = (
(103,0,l),
(308,276,l),
(423,0,l),
(551,0,l),
(392,380,l),
(637,700,l),
(509,700,l),
(348,482,l),
(256,700,l),
(128,700,l),
(263,379,l),
(-26,0,l)
);
}
);
userData = {
assembly = "NPUSHB[ ]	/* 28 values pushed */
9 6 3 3 2 0 1 76 1 1 0 0 33 77 3 1 2 2 34 2 78 18 18 18 17 4 8 26
CALL[ ]	/* CallFunction */";
};
width = 618;
}
);
note = X;
unicode = 88;
},
{
glyphname = Y;
kernLeft = Y;
kernRight = Y;
layers = (
{
anchors = (
{
name = bottom;
pos = (253,0);
},
{
name = top;
pos = (377,700);
}
);
layerId = m01;
shapes = (
{
closed = 1;
nodes = (
(303,0,l),
(352,276,l),
(658,700,l),
(532,700,l),
(315,388,l),
(209,700,l),
(80,700,l),
(238,276,l),
(189,0,l)
);
}
);
userData = {
assembly = "NPUSHB[ ]	/* 24 values pushed */
3 1 2 0 1 76 1 1 0 0 33 77 0 2 2 34 2 78 18 18 17 3 8 25
CALL[ ]	/* CallFunction */";
};
width = 592;
}
);
note = Y;
unicode = 89;
},
{
glyphname = Z;
kernRight = Z;
layers = (
{
anchors = (
{
name = bottom;
pos = (227,0);
},
{
name = top;
pos = (351,700);
}
);
layerId = m01;
shapes = (
{
closed = 1;
nodes = (
(452,0,l),
(469,96,l),
(136,96,l),
(558,613,l),
(573,700,l),
(116,700,l),
(99,604,l),
(425,604,l),
(5,87,l),
(-11,0,l)
);
}
);
userData = {
assembly = "NPUSHB[ ]	/* 28 values pushed */
0 0 0 1 95 0 1 1 33 77 0 2 2 3 95 0 3 3 34 3 78 17 18 17 17 4 8 26
CALL[ ]	/* CallFunction */";
};
width = 542;
}
);
note = Z;
unicode = 90;
},
{
glyphname = uniA78B;
layers = (
{
layerId = m01;
shapes = (
{
closed = 1;
nodes = (
(158,216,l),
(257,700,l),
(135,700,l),
(62,216,l)
);
}
);
userData = {
assembly = "NPUSHB[ ]	/* 16 values pushed */
0 1 1 0 95 0 0 0 33 1 78 17 16 2 8 24
CALL[ ]	/* CallFunction */";
};
width = 232;
}
);
note = uniA78B;
unicode = 42891;
},
{
glyphname = a;
kernLeft = a;
kernRight = a;
layers = (
{
anchors = (
{
name = bottom;
pos = (233,0);
},
{
name = ogonek;
pos = (489,0);
},
{
name = top;
pos = (321,496);
}
);
layerId = m01;
shapes = (
{
closed = 1;
nodes = (
(170,80,o),
(129,108,o),
(129,135,qs),
(129,176,o),
(196,220,o),
(245,220,qs),
(361,220,l),
(348,160,o),
(261,80,o),
(204,80,qs)
);
},
{
closed = 1;
nodes = (
(12,59,o),
(98,-12,o),
(163,-12,qs),
(273,-12,o),
(340,74,q),
(335,0,l),
(436,0,l),
(488,296,ls),
(493,326,o),
(493,345,qs),
(493,423,o),
(397,508,o),
(310,508,qs),
(222,508,o),
(88,418,o),
(60,336,q),
(172,336,l),
(187,373,o),
(252,412,o),
(292,412,qs),
(336,412,o),
(379,368,o),
(379,328,qs),
(377,296,l),
(251,296,ls),
(185,296,o),
(76,255,o),
(12,175,o),
(12,118,qs)
);
}
);
userData = {
assembly = "PUSHB[ ]	/* 6 values pushed */
33 1 6 1 1 76
MPPEM[ ]	/* MeasurePixelPerEm */
PUSHB[ ]	/* 1 value pushed */
21
LT[ ]	/* LessThan */
IF[ ]	/* If */
NPUSHB[ ]	/* 39 values pushed */
0 4 3 2 3 4 2 128 0 2 0 0 1 2 0 103 0 3 3 5 97 0 5 5 42 77 8 1 1 1 6 97 7 1 6 6 34 6 78
ELSE[ ]	/* Else */
NPUSHB[ ]	/* 43 values pushed */
0 4 3 2 3 4 2 128 0 2 0 0 1 2 0 103 0 3 3 5 97 0 5 5 42 77 0 6 6 34 77 8 1 1 1 7 97 0 7 7 40 7 78
EIF[ ]	/* EndIf */
NPUSHB[ ]	/* 22 values pushed */
0 0 36 34 32 31 26 24 22 21 19 17 14 12 0 9 0 8 34 9 8 23
CALL[ ]	/* CallFunction */";
};
width = 524;
}
);
note = a;
unicode = 97;
},
{
glyphname = aogonek;
kernLeft = a;
kernRight = aacute;
layers = (
{
anchors = (
{
name = bottom;
pos = (233,0);
},
{
name = ogonek;
pos = (489,0);
},
{
name = top;
pos = (321,496);
}
);
layerId = m01;
shapes = (
{
closed = 1;
nodes = (
(170,80,o),
(129,108,o),
(129,135,qs),
(129,176,o),
(196,220,o),
(245,220,qs),
(361,220,l),
(348,160,o),
(261,80,o),
(204,80,qs)
);
},
{
closed = 1;
nodes = (
(413,-208,o),
(460,-194,q),
(471,-125,l),
(432,-140,o),
(400,-140,qs),
(378,-140,o),
(352,-121,o),
(352,-104,qs),
(352,-82,o),
(388,-46,o),
(431,-27,qs),
(489,0,l),
(473,54,l),
(443,42,l),
(488,296,ls),
(493,326,o),
(493,345,qs),
(493,423,o),
(397,508,o),
(310,508,qs),
(222,508,o),
(88,418,o),
(60,336,q),
(172,336,l),
(187,373,o),
(252,412,o),
(292,412,qs),
(336,412,o),
(379,368,o),
(379,328,qs),
(377,296,l),
(251,296,ls),
(185,296,o),
(76,255,o),
(12,175,o),
(12,118,qs),
(12,59,o),
(98,-12,o),
(163,-12,qs),
(273,-12,o),
(340,74,q),
(335,0,l),
(351,0,l),
(303,-28,o),
(262,-90,o),
(262,-126,qs),
(262,-166,o),
(325,-208,o),
(374,-208,qs)
);
}
);
userData = {
assembly = "MPPEM[ ]	/* MeasurePixelPerEm */
PUSHB[ ]	/* 1 value pushed */
21
LT[ ]	/* LessThan */
IF[ ]	/* If */
NPUSHB[ ]	/* 17 values pushed */
45 44 17 3 2 1 55 1 8 2 2 76 46 1 2 1 75
ELSE[ ]	/* Else */
NPUSHB[ ]	/* 17 values pushed */
45 44 17 3 2 1 55 1 8 3 2 76 46 1 2 1 75
EIF[ ]	/* EndIf */
MPPEM[ ]	/* MeasurePixelPerEm */
PUSHB[ ]	/* 1 value pushed */
21
LT[ ]	/* LessThan */
IF[ ]	/* If */
NPUSHB[ ]	/* 50 values pushed */
0 6 5 4 5 6 4 128 0 4 0 0 1 4 0 103 0 5 5 7 97 0 7 7 42 77 10 1 1 1 2 97 3 1 2 2 34 77 0 8 8 9 97 11 1 9 9 38 9 78
ELSE[ ]	/* Else */
MPPEM[ ]	/* MeasurePixelPerEm */
PUSHB[ ]	/* 1 value pushed */
41
LT[ ]	/* LessThan */
IF[ ]	/* If */
NPUSHB[ ]	/* 54 values pushed */
0 6 5 4 5 6 4 128 0 4 0 0 1 4 0 103 0 5 5 7 97 0 7 7 42 77 0 2 2 34 77 10 1 1 1 3 97 0 3 3 40 77 0 8 8 9 97 11 1 9 9 38 9 78
ELSE[ ]	/* Else */
NPUSHB[ ]	/* 51 values pushed */
0 6 5 4 5 6 4 128 0 4 0 0 1 4 0 103 0 8 11 1 9 8 9 101 0 5 5 7 97 0 7 7 42 77 0 2 2 34 77 10 1 1 1 3 97 0 3 3 40 3 78
EIF[ ]	/* EndIf */
EIF[ ]	/* EndIf */
NPUSHB[ ]	/* 30 values pushed */
10 10 0 0 10 58 10 57 54 52 39 37 35 34 32 30 27 25 20 18 16 15 0 9 0 8 34 12 8 23
CALL[ ]	/* CallFunction */";
};
width = 524;
}
);
note = aogonek;
unicode = 261;
},
{
glyphname = ae;
kernLeft = a;
kernRight = ae;
layers = (
{
anchors = (
{
name = bottom;
pos = (413,0);
},
{
name = top;
pos = (501,496);
}
);
layerId = m01;
shapes = (
{
closed = 1;
nodes = (
(252,-12,o),
(371,48,o),
(409,97,q),
(433,45,o),
(531,-12,o),
(597,-12,qs),
(676,-12,o),
(819,73,o),
(858,153,q),
(743,153,l),
(722,120,o),
(655,82,o),
(613,82,qs),
(561,82,o),
(496,144,o),
(496,199,qs),
(496,213,o),
(498,221,q),
(880,221,l),
(894,271,o),
(894,314,qs),
(894,368,o),
(848,456,o),
(756,508,o),
(690,508,qs),
(633,508,o),
(531,468,o),
(491,431,q),
(450,508,o),
(326,508,qs),
(275,508,o),
(170,472,o),
(86,393,o),
(70,334,q),
(182,334,l),
(196,373,o),
(266,415,o),
(310,415,qs),
(352,415,o),
(400,373,o),
(400,332,qs),
(400,311,o),
(396,295,q),
(253,295,ls),
(193,295,o),
(83,258,o),
(12,178,o),
(12,117,qs),
(12,58,o),
(101,-12,o),
(183,-12,qs)
);
},
{
closed = 1;
nodes = (
(176,78,o),
(134,110,o),
(134,137,qs),
(134,177,o),
(198,220,o),
(251,220,qs),
(378,220,l),
(375,204,ls),
(370,172,o),
(322,113,o),
(252,78,o),
(213,78,qs)
);
},
{
closed = 1;
nodes = (
(513,296,l),
(532,353,o),
(619,415,o),
(673,415,qs),
(723,415,o),
(782,359,o),
(782,311,qs),
(781,296,l)
);
}
);
userData = {
assembly = "NPUSHB[ ]	/* 93 values pushed */
22 1 1 3 47 1 6 7 2 76 0 2 1 0 1 2 0 128 0 7 5 6 5 7 6 128 13 1 0 10 1 5 7 0 5 103 12 1 1 1 3 97 4 1 3 3 42 77 15 11 2 6 6 8 97 14 9 2 8 8 40 8 78 51 51 0 0 70 69 67 65 51 62 51 61 57 55 0 50 0 49 34 18 36 21 35 35 18 36 37 16 8 31
CALL[ ]	/* CallFunction */";
};
width = 913;
}
);
note = ae;
unicode = 230;
},
{
glyphname = b;
kernLeft = b;
kernRight = b;
layers = (
{
layerId = m01;
shapes = (
{
closed = 1;
nodes = (
(373,-12,o),
(504,69,o),
(579,209,o),
(579,294,qs),
(579,350,o),
(533,448,o),
(441,508,o),
(376,508,qs),
(269,508,o),
(198,428,q),
(245,700,l),
(132,700,l),
(9,0,l),
(110,0,l),
(135,73,l),
(154,37,o),
(238,-12,o),
(292,-12,qs)
);
},
{
closed = 1;
nodes = (
(232,87,o),
(162,159,o),
(162,216,qs),
(162,266,o),
(204,355,o),
(283,409,o),
(335,409,qs),
(392,409,o),
(461,334,o),
(461,276,qs),
(461,223,o),
(417,137,o),
(339,87,o),
(289,87,qs)
);
}
);
userData = {
assembly = "NPUSHB[ ]	/* 10 values pushed */
7 1 4 2 2 1 0 5 2 76
MPPEM[ ]	/* MeasurePixelPerEm */
PUSHB[ ]	/* 1 value pushed */
21
LT[ ]	/* LessThan */
IF[ ]	/* If */
NPUSHB[ ]	/* 29 values pushed */
0 1 1 33 77 0 4 4 2 97 0 2 2 42 77 7 1 5 5 0 98 6 3 2 0 0 34 0 78
ELSE[ ]	/* Else */
NPUSHB[ ]	/* 33 values pushed */
0 1 1 33 77 0 4 4 2 97 0 2 2 42 77 0 0 0 34 77 7 1 5 5 3 98 6 1 3 3 40 3 78
EIF[ ]	/* EndIf */
NPUSHB[ ]	/* 20 values pushed */
18 18 0 0 18 31 18 30 25 23 0 17 0 16 34 17 19 8 8 25
CALL[ ]	/* CallFunction */";
};
width = 608;
}
);
note = b;
unicode = 98;
},
{
glyphname = c;
kernLeft = c;
kernRight = c;
layers = (
{
anchors = (
{
name = bottom;
pos = (237,0);
},
{
name = top;
pos = (325,496);
}
);
layerId = m01;
shapes = (
{
closed = 1;
nodes = (
(330,-12,o),
(482,82,o),
(515,174,q),
(397,174,l),
(382,132,o),
(307,84,o),
(261,84,qs),
(211,84,o),
(147,153,o),
(147,211,qs),
(147,258,o),
(187,351,o),
(264,411,o),
(318,411,qs),
(365,411,o),
(423,364,o),
(423,322,q),
(541,322,l),
(541,408,o),
(429,508,o),
(335,508,qs),
(250,508,o),
(110,426,o),
(30,285,o),
(30,200,qs),
(30,141,o),
(80,44,o),
(176,-12,o),
(244,-12,qs)
);
}
);
userData = {
assembly = "MPPEM[ ]	/* MeasurePixelPerEm */
PUSHB[ ]	/* 1 value pushed */
15
LT[ ]	/* LessThan */
IF[ ]	/* If */
NPUSHB[ ]	/* 36 values pushed */
0 1 2 4 2 1 114 0 4 3 2 4 3 126 0 2 2 0 97 0 0 0 42 77 0 3 3 5 97 6 1 5 5 40 5 78
ELSE[ ]	/* Else */
NPUSHB[ ]	/* 37 values pushed */
0 1 2 4 2 1 4 128 0 4 3 2 4 3 126 0 2 2 0 97 0 0 0 42 77 0 3 3 5 97 6 1 5 5 40 5 78
EIF[ ]	/* EndIf */
NPUSHB[ ]	/* 14 values pushed */
0 0 0 28 0 27 18 37 34 18 38 7 8 27
CALL[ ]	/* CallFunction */";
};
width = 562;
}
);
note = c;
unicode = 99;
},
{
glyphname = ccedilla;
kernLeft = c;
layers = (
{
anchors = (
{
name = bottom;
pos = (191,-262);
},
{
name = top;
pos = (325,496);
}
);
layerId = m01;
shapes = (
{
closed = 1;
nodes = (
(227,-262,ls),
(287,-262,o),
(374,-195,o),
(374,-136,qs),
(374,-95,o),
(311,-53,o),
(260,-54,q),
(268,-11,l),
(348,-4,o),
(485,89,o),
(515,174,q),
(397,174,l),
(382,132,o),
(307,84,o),
(261,84,qs),
(211,84,o),
(147,153,o),
(147,211,qs),
(147,258,o),
(187,351,o),
(264,411,o),
(318,411,qs),
(365,411,o),
(423,364,o),
(423,322,q),
(541,322,l),
(541,408,o),
(429,508,o),
(335,508,qs),
(250,508,o),
(110,426,o),
(30,285,o),
(30,200,qs),
(30,121,o),
(117,6,o),
(196,-8,q),
(177,-116,l),
(234,-116,ls),
(287,-116,o),
(287,-148,qs),
(286,-171,o),
(250,-195,o),
(220,-195,qs),
(115,-195,l),
(103,-262,l)
);
}
);
userData = {
assembly = "PUSHB[ ]	/* 6 values pushed */
8 1 7 5 1 76
MPPEM[ ]	/* MeasurePixelPerEm */
PUSHB[ ]	/* 1 value pushed */
9
LT[ ]	/* LessThan */
IF[ ]	/* If */
NPUSHB[ ]	/* 46 values pushed */
0 3 4 6 4 3 114 0 6 5 4 6 5 126 0 5 7 7 5 112 0 7 0 1 0 7 1 106 0 0 0 8 0 8 99 0 4 4 2 97 0 2 2 42 4 78
ELSE[ ]	/* Else */
MPPEM[ ]	/* MeasurePixelPerEm */
PUSHB[ ]	/* 1 value pushed */
15
LT[ ]	/* LessThan */
IF[ ]	/* If */
NPUSHB[ ]	/* 47 values pushed */
0 3 4 6 4 3 114 0 6 5 4 6 5 126 0 5 7 4 5 7 126 0 7 0 1 0 7 1 106 0 0 0 8 0 8 99 0 4 4 2 97 0 2 2 42 4 78
ELSE[ ]	/* Else */
NPUSHB[ ]	/* 48 values pushed */
0 3 4 6 4 3 6 128 0 6 5 4 6 5 126 0 5 7 4 5 7 126 0 7 0 1 0 7 1 106 0 0 0 8 0 8 99 0 4 4 2 97 0 2 2 42 4 78
EIF[ ]	/* EndIf */
EIF[ ]	/* EndIf */
NPUSHB[ ]	/* 12 values pushed */
36 20 18 37 34 18 39 35 32 9 8 31
CALL[ ]	/* CallFunction */";
};
width = 562;
}
);
note = ccedilla;
unicode = 231;
},
{
glyphname = d;
kernLeft = c;
layers = (
{
anchors = (
{
name = bottom;
pos = (261,0);
},
{
name = top;
pos = (436,992);
},
{
name = topright;
pos = (727,992);
}
);
layerId = m01;
shapes = (
{
closed = 1;
nodes = (
(339,-12,o),
(411,75,q),
(410,0,l),
(512,0,l),
(635,700,l),
(522,700,l),
(473,423,l),
(453,463,o),
(373,508,o),
(312,508,qs),
(240,508,o),
(111,435,o),
(31,299,o),
(31,208,qs),
(31,153,o),
(74,52,o),
(164,-12,o),
(231,-12,qs)
);
},
{
closed = 1;
nodes = (
(215,87,o),
(148,162,o),
(148,220,qs),
(148,265,o),
(187,352,o),
(265,409,o),
(322,409,qs),
(379,409,o),
(446,341,o),
(446,284,qs),
(446,237,o),
(406,146,o),
(327,87,o),
(272,87,qs)
);
}
);
userData = {
assembly = "NPUSHB[ ]	/* 10 values pushed */
10 1 4 0 15 1 2 5 2 76
MPPEM[ ]	/* MeasurePixelPerEm */
PUSHB[ ]	/* 1 value pushed */
21
LT[ ]	/* LessThan */
IF[ ]	/* If */
NPUSHB[ ]	/* 29 values pushed */
0 1 1 33 77 0 4 4 0 97 0 0 0 42 77 7 1 5 5 2 97 6 3 2 2 2 34 2 78
ELSE[ ]	/* Else */
NPUSHB[ ]	/* 33 values pushed */
0 1 1 33 77 0 4 4 0 97 0 0 0 42 77 0 2 2 34 77 7 1 5 5 3 97 6 1 3 3 40 3 78
EIF[ ]	/* EndIf */
NPUSHB[ ]	/* 20 values pushed */
18 18 0 0 18 31 18 30 25 23 0 17 0 16 17 19 38 8 8 25
CALL[ ]	/* CallFunction */";
};
width = 610;
}
);
note = d;
unicode = 100;
},
{
glyphname = dcroat;
kernLeft = c;
layers = (
{
layerId = m01;
shapes = (
{
closed = 1;
nodes = (
(339,-12,o),
(411,75,q),
(410,0,l),
(512,0,l),
(611,562,l),
(657,562,l),
(672,643,l),
(625,643,l),
(635,700,l),
(522,700,l),
(512,643,l),
(356,643,l),
(341,562,l),
(498,562,l),
(473,423,l),
(453,463,o),
(373,508,o),
(312,508,qs),
(240,508,o),
(111,435,o),
(31,299,o),
(31,208,qs),
(31,153,o),
(74,52,o),
(164,-12,o),
(231,-12,qs)
);
},
{
closed = 1;
nodes = (
(148,265,o),
(187,352,o),
(265,409,o),
(322,409,qs),
(379,409,o),
(446,341,o),
(446,284,qs),
(446,237,o),
(406,146,o),
(327,87,o),
(272,87,qs),
(215,87,o),
(148,162,o),
(148,220,qs)
);
}
);
userData = {
assembly = "NPUSHB[ ]	/* 10 values pushed */
10 1 9 0 23 1 6 8 2 76
MPPEM[ ]	/* MeasurePixelPerEm */
PUSHB[ ]	/* 1 value pushed */
21
LT[ ]	/* LessThan */
IF[ ]	/* If */
NPUSHB[ ]	/* 38 values pushed */
4 1 2 5 1 1 0 2 1 104 0 3 3 33 77 0 9 9 0 97 0 0 0 42 77 0 8 8 6 97 10 7 2 6 6 34 6 78
ELSE[ ]	/* Else */
NPUSHB[ ]	/* 42 values pushed */
4 1 2 5 1 1 0 2 1 104 0 3 3 33 77 0 9 9 0 97 0 0 0 42 77 0 6 6 34 77 0 8 8 7 97 10 1 7 7 40 7 78
EIF[ ]	/* EndIf */
NPUSHB[ ]	/* 20 values pushed */
0 0 36 34 29 27 0 25 0 24 17 17 17 17 17 19 38 11 8 29
CALL[ ]	/* CallFunction */";
};
width = 608;
}
);
note = dcroat;
unicode = 273;
},
{
glyphname = eth;
kernLeft = c;
layers = (
{
layerId = m01;
shapes = (
{
closed = 1;
nodes = (
(351,-12,o),
(496,77,o),
(583,247,o),
(583,364,qs),
(583,429,o),
(549,556,o),
(515,612,q),
(597,638,l),
(610,709,l),
(477,667,l),
(446,700,l),
(338,700,l),
(364,675,o),
(391,640,q),
(303,612,l),
(290,542,l),
(425,584,l),
(461,519,o),
(475,442,q),
(431,504,o),
(329,504,qs),
(248,504,o),
(112,428,o),
(32,296,o),
(32,216,qs),
(32,159,o),
(85,54,o),
(191,-12,o),
(266,-12,qs)
);
},
{
closed = 1;
nodes = (
(221,84,o),
(149,161,o),
(149,223,qs),
(149,268,o),
(193,354,o),
(273,408,o),
(325,408,qs),
(382,408,o),
(456,338,o),
(456,276,qs),
(456,232,o),
(413,143,o),
(332,84,o),
(279,84,qs)
);
}
);
userData = {
assembly = "NPUSHB[ ]	/* 65 values pushed */
21 18 14 12 11 5 0 1 9 1 3 0 2 76 19 1 1 74 0 1 1 33 77 0 3 3 0 97 0 0 0 42 77 6 1 4 4 2 97 5 1 2 2 40 2 78 29 29 0 0 29 42 29 41 36 34 0 28 0 27 24 38 7 8 24
CALL[ ]	/* CallFunction */";
};
width = 603;
}
);
note = eth;
unicode = 240;
},
{
glyphname = e;
kernLeft = c;
kernRight = ae;
layers = (
{
anchors = (
{
name = bottom;
pos = (236,0);
},
{
name = ogonek;
pos = (352,10);
},
{
name = top;
pos = (324,496);
}
);
layerId = m01;
shapes = (
{
closed = 1;
nodes = (
(323,-12,o),
(464,75,o),
(501,153,q),
(387,153,l),
(366,120,o),
(299,82,o),
(258,82,qs),
(207,82,o),
(142,144,o),
(142,200,qs),
(142,213,o),
(143,221,q),
(526,221,l),
(540,271,o),
(540,314,qs),
(540,369,o),
(492,457,o),
(398,508,o),
(333,508,qs),
(250,508,o),
(111,429,o),
(30,288,o),
(30,199,qs),
(30,102,o),
(145,-12,o),
(242,-12,qs)
);
},
{
closed = 1;
nodes = (
(158,296,l),
(177,353,o),
(265,415,o),
(318,415,qs),
(367,415,o),
(428,360,o),
(428,313,qs),
(427,296,l)
);
}
);
userData = {
assembly = "NPUSHB[ ]	/* 55 values pushed */
0 3 1 2 1 3 2 128 0 6 0 1 3 6 1 103 0 5 5 0 97 0 0 0 42 77 0 2 2 4 97 7 1 4 4 40 4 78 0 0 33 32 30 28 0 25 0 24 18 36 21 37 8 8 26
CALL[ ]	/* CallFunction */";
};
width = 560;
}
);
note = e;
unicode = 101;
},
{
glyphname = eogonek;
kernLeft = c;
kernRight = ae;
layers = (
{
anchors = (
{
name = bottom;
pos = (236,0);
},
{
name = ogonek;
pos = (352,10);
},
{
name = top;
pos = (324,496);
}
);
layerId = m01;
shapes = (
{
closed = 1;
nodes = (
(158,296,l),
(177,353,o),
(265,415,o),
(318,415,qs),
(367,415,o),
(428,360,o),
(428,313,qs),
(427,296,l)
);
},
{
closed = 1;
nodes = (
(276,-198,o),
(323,-184,q),
(334,-115,l),
(295,-130,o),
(263,-130,qs),
(241,-130,o),
(215,-111,o),
(215,-94,qs),
(215,-72,o),
(251,-36,o),
(294,-17,qs),
(351,10,ls),
(399,30,o),
(478,103,o),
(501,153,q),
(387,153,l),
(366,120,o),
(299,82,o),
(258,82,qs),
(207,82,o),
(142,144,o),
(142,200,qs),
(142,213,o),
(143,221,q),
(526,221,l),
(540,271,o),
(540,314,qs),
(540,369,o),
(492,457,o),
(398,508,o),
(333,508,qs),
(250,508,o),
(111,429,o),
(30,288,o),
(30,199,qs),
(30,117,o),
(114,8,o),
(188,-7,q),
(125,-53,o),
(125,-116,qs),
(125,-156,o),
(188,-198,o),
(237,-198,qs)
);
}
);
userData = {
assembly = "PUSHB[ ]	/* 7 values pushed */
47 12 2 6 4 1 76
MPPEM[ ]	/* MeasurePixelPerEm */
PUSHB[ ]	/* 1 value pushed */
23
LT[ ]	/* LessThan */
IF[ ]	/* If */
NPUSHB[ ]	/* 45 values pushed */
0 5 3 4 3 5 4 128 0 4 6 3 4 6 126 0 1 0 3 5 1 3 103 0 0 0 2 97 0 2 2 42 77 0 6 6 7 98 8 1 7 7 38 7 78
ELSE[ ]	/* Else */
NPUSHB[ ]	/* 42 values pushed */
0 5 3 4 3 5 4 128 0 4 6 3 4 6 126 0 1 0 3 5 1 3 103 0 6 8 1 7 6 7 102 0 0 0 2 97 0 2 2 42 0 78
EIF[ ]	/* EndIf */
NPUSHB[ ]	/* 16 values pushed */
8 8 8 50 8 49 41 18 36 21 43 18 34 9 8 29
CALL[ ]	/* CallFunction */";
};
width = 560;
}
);
note = eogonek;
unicode = 281;
},
{
glyphname = uni0259;
kernLeft = c;
kernRight = b;
layers = (
{
layerId = m01;
shapes = (
{
closed = 1;
nodes = (
(314,-12,o),
(452,71,o),
(530,213,o),
(530,297,qs),
(530,394,o),
(415,508,o),
(318,508,qs),
(231,508,o),
(94,416,o),
(59,343,q),
(173,343,l),
(194,376,o),
(261,414,o),
(302,414,qs),
(353,414,o),
(418,352,o),
(418,296,qs),
(418,282,o),
(417,275,q),
(34,275,l),
(20,225,o),
(20,182,qs),
(20,130,o),
(66,42,o),
(159,-12,o),
(227,-12,qs)
);
},
{
closed = 1;
nodes = (
(193,81,o),
(132,136,o),
(132,183,qs),
(133,200,l),
(402,200,l),
(383,143,o),
(295,81,o),
(242,81,qs)
);
}
);
userData = {
assembly = "NPUSHB[ ]	/* 60 values pushed */
0 2 1 0 1 2 0 128 0 0 0 5 6 0 5 103 0 1 1 3 97 0 3 3 42 77 8 1 6 6 4 97 7 1 4 4 40 4 78 26 26 0 0 26 33 26 32 29 28 0 25 0 24 34 18 36 21 9 8 26
CALL[ ]	/* CallFunction */";
};
width = 560;
}
);
note = uni0259;
unicode = 601;
},
{
glyphname = f;
kernLeft = f;
kernRight = f;
layers = (
{
layerId = m01;
shapes = (
{
closed = 1;
nodes = (
(150,0,l),
(221,401,l),
(321,401,l),
(338,496,l),
(237,496,l),
(246,543,ls),
(252,575,o),
(286,603,o),
(321,603,qs),
(347,603,l),
(365,700,l),
(321,700,ls),
(243,700,o),
(147,625,o),
(132,543,qs),
(124,496,l),
(61,496,l),
(44,401,l),
(108,401,l),
(37,0,l)
);
}
);
userData = {
assembly = "NPUSHB[ ]	/* 38 values pushed */
0 3 3 2 97 0 2 2 33 77 5 1 0 0 1 95 4 1 1 1 36 77 0 6 6 34 6 78 17 17 19 33 35 17 16 7 8 29
CALL[ ]	/* CallFunction */";
};
width = 321;
}
);
note = f;
unicode = 102;
},
{
glyphname = g;
kernLeft = g;
kernRight = g;
layers = (
{
anchors = (
{
name = bottom;
pos = (156,-310);
},
{
name = top;
pos = (289,496);
}
);
layerId = m01;
shapes = (
{
closed = 1;
nodes = (
(297,-232,o),
(439,-132,o),
(439,-41,qs),
(439,21,o),
(351,92,o),
(273,92,qs),
(181,92,ls),
(147,92,o),
(113,114,o),
(113,134,qs),
(113,150,o),
(138,173,o),
(157,176,q),
(195,155,o),
(249,155,qs),
(308,155,o),
(407,203,o),
(466,290,o),
(466,346,qs),
(466,371,o),
(453,408,q),
(532,408,l),
(547,496,l),
(358,496,l),
(322,508,o),
(280,508,qs),
(191,508,o),
(70,412,o),
(63,331,qs),
(58,269,o),
(93,223,q),
(57,206,o),
(8,141,o),
(8,102,qs),
(8,80,o),
(29,40,o),
(48,28,q),
(8,11,o),
(-37,-50,o),
(-37,-91,qs),
(-37,-158,o),
(83,-232,o),
(176,-232,qs)
);
},
{
closed = 1;
nodes = (
(139,-142,o),
(71,-108,o),
(71,-76,qs),
(71,-39,o),
(130,-2,o),
(175,-2,qs),
(251,-2,ls),
(290,-2,o),
(330,-34,o),
(330,-61,qs),
(330,-104,o),
(251,-142,o),
(191,-142,qs)
);
},
{
closed = 1;
nodes = (
(215,245,o),
(168,287,o),
(168,321,qs),
(168,363,o),
(225,418,o),
(271,418,qs),
(311,418,o),
(360,374,o),
(360,340,qs),
(360,298,o),
(301,245,o),
(256,245,qs)
);
}
);
userData = {
assembly = "NPUSHB[ ]	/* 11 values pushed */
29 11 2 3 9 5 1 6 4 2 76
MPPEM[ ]	/* MeasurePixelPerEm */
PUSHB[ ]	/* 1 value pushed */
21
LT[ ]	/* LessThan */
IF[ ]	/* If */
NPUSHB[ ]	/* 44 values pushed */
12 1 9 0 3 4 9 3 105 8 1 2 2 0 97 1 1 0 0 42 77 0 4 4 6 95 0 6 6 34 77 11 1 7 7 5 97 10 1 5 5 38 5 78
ELSE[ ]	/* Else */
MPPEM[ ]	/* MeasurePixelPerEm */
PUSHB[ ]	/* 1 value pushed */
25
LT[ ]	/* LessThan */
IF[ ]	/* If */
NPUSHB[ ]	/* 54 values pushed */
12 1 9 0 3 4 9 3 105 8 1 2 2 0 97 0 0 0 42 77 8 1 2 2 1 95 0 1 1 36 77 0 4 4 6 95 0 6 6 34 77 11 1 7 7 5 97 10 1 5 5 38 5 78
ELSE[ ]	/* Else */
MPPEM[ ]	/* MeasurePixelPerEm */
PUSHB[ ]	/* 1 value pushed */
41
LT[ ]	/* LessThan */
IF[ ]	/* If */
NPUSHB[ ]	/* 52 values pushed */
12 1 9 0 3 4 9 3 105 0 8 8 0 97 0 0 0 42 77 0 2 2 1 95 0 1 1 36 77 0 4 4 6 95 0 6 6 34 77 11 1 7 7 5 97 10 1 5 5 38 5 78
ELSE[ ]	/* Else */
NPUSHB[ ]	/* 49 values pushed */
12 1 9 0 3 4 9 3 105 11 1 7 10 1 5 7 5 101 0 8 8 0 97 0 0 0 42 77 0 2 2 1 95 0 1 1 36 77 0 4 4 6 95 0 6 6 34 6 78
EIF[ ]	/* EndIf */
EIF[ ]	/* EndIf */
EIF[ ]	/* EndIf */
NPUSHB[ ]	/* 30 values pushed */
56 56 43 43 0 0 56 67 56 66 62 60 43 55 43 54 50 47 0 42 0 41 54 37 17 17 47 13 8 27
CALL[ ]	/* CallFunction */";
};
width = 523;
}
);
note = g;
unicode = 103;
},
{
glyphname = h;
kernLeft = b;
kernRight = a;
layers = (
{
layerId = m01;
shapes = (
{
closed = 1;
nodes = (
(123,0,l),
(168,256,ls),
(181,329,o),
(269,412,o),
(327,412,qs),
(422,412,o),
(422,318,qs),
(422,300,o),
(417,272,qs),
(369,0,l),
(482,0,l),
(533,283,ls),
(539,318,o),
(539,347,qs),
(539,426,o),
(456,508,o),
(379,508,qs),
(324,508,o),
(228,459,o),
(197,417,q),
(246,700,l),
(133,700,l),
(10,0,l)
);
}
);
userData = {
assembly = "NPUSHB[ ]	/* 36 values pushed */
2 1 3 1 1 76 0 0 0 33 77 0 3 3 1 97 0 1 1 42 77 4 1 2 2 34 2 78 19 36 21 35 16 5 8 27
CALL[ ]	/* CallFunction */";
};
width = 570;
}
);
note = h;
unicode = 104;
},
{
glyphname = hbar;
kernRight = a;
layers = (
{
layerId = m01;
shapes = (
{
closed = 1;
nodes = (
(131,0,l),
(176,256,ls),
(188,329,o),
(277,412,o),
(335,412,qs),
(429,412,o),
(429,318,qs),
(429,295,o),
(425,272,qs),
(376,0,l),
(490,0,l),
(540,283,ls),
(546,318,o),
(546,347,qs),
(546,426,o),
(463,508,o),
(386,508,qs),
(332,508,o),
(236,459,o),
(204,417,q),
(229,562,l),
(392,562,l),
(407,643,l),
(244,643,l),
(254,700,l),
(140,700,l),
(130,643,l),
(81,643,l),
(66,562,l),
(116,562,l),
(17,0,l)
);
}
);
userData = {
assembly = "NPUSHB[ ]	/* 50 values pushed */
10 1 7 5 1 76 3 1 1 4 1 0 5 1 0 104 0 2 2 33 77 0 7 7 5 97 0 5 5 42 77 8 1 6 6 34 6 78 19 36 21 35 17 17 17 17 16 9 8 31
CALL[ ]	/* CallFunction */";
};
width = 578;
}
);
note = hbar;
unicode = 295;
},
{
glyphname = i;
kernLeft = i;
layers = (
{
anchors = (
{
name = bottom;
pos = (73,0);
}
);
layerId = m01;
shapes = (
{
closed = 1;
nodes = (
(130,0,l),
(217,496,l),
(103,496,l),
(16,0,l)
);
},
{
closed = 1;
nodes = (
(218,579,o),
(261,621,o),
(261,652,qs),
(261,682,o),
(218,724,o),
(188,724,qs),
(158,724,o),
(115,682,o),
(115,652,qs),
(115,621,o),
(158,579,o),
(188,579,qs)
);
}
);
userData = {
assembly = "MPPEM[ ]	/* MeasurePixelPerEm */
PUSHB[ ]	/* 1 value pushed */
33
LT[ ]	/* LessThan */
IF[ ]	/* If */
NPUSHB[ ]	/* 22 values pushed */
4 1 3 3 2 97 0 2 2 41 77 0 0 0 36 77 0 1 1 34 1 78
ELSE[ ]	/* Else */
MPPEM[ ]	/* MeasurePixelPerEm */
PUSHB[ ]	/* 1 value pushed */
41
LT[ ]	/* LessThan */
IF[ ]	/* If */
NPUSHB[ ]	/* 22 values pushed */
4 1 3 3 2 97 0 2 2 39 77 0 0 0 36 77 0 1 1 34 1 78
ELSE[ ]	/* Else */
NPUSHB[ ]	/* 20 values pushed */
0 2 4 1 3 0 2 3 105 0 0 0 36 77 0 1 1 34 1 78
EIF[ ]	/* EndIf */
EIF[ ]	/* EndIf */
NPUSHB[ ]	/* 12 values pushed */
4 4 4 15 4 14 37 17 16 5 8 25
CALL[ ]	/* CallFunction */";
};
width = 234;
}
);
note = i;
unicode = 105;
},
{
glyphname = dotlessi;
kernLeft = dotlessi;
layers = (
{
anchors = (
{
name = bottom;
pos = (67,0);
},
{
name = ogonek;
pos = (123,0);
},
{
name = top;
pos = (153,496);
}
);
layerId = m01;
shapes = (
{
closed = 1;
nodes = (
(123,0,l),
(210,496,l),
(97,496,l),
(10,0,l)
);
}
);
userData = {
assembly = "NPUSHB[ ]	/* 16 values pushed */
0 0 0 36 77 0 1 1 34 1 78 17 16 2 8 24
CALL[ ]	/* CallFunction */";
};
width = 220;
}
);
note = dotlessi;
unicode = 305;
},
{
glyphname = iogonek;
kernLeft = dotlessi;
layers = (
{
anchors = (
{
name = bottom;
pos = (67,0);
},
{
name = ogonek;
pos = (123,0);
},
{
name = top;
pos = (194,724);
}
);
layerId = m01;
shapes = (
{
closed = 1;
nodes = (
(212,575,o),
(255,618,o),
(255,650,qs),
(255,682,o),
(213,724,o),
(181,724,qs),
(149,724,o),
(106,682,o),
(106,650,qs),
(106,618,o),
(149,575,o),
(181,575,qs)
);
},
{
closed = 1;
nodes = (
(47,-208,o),
(94,-194,q),
(105,-125,l),
(66,-140,o),
(34,-140,qs),
(12,-140,o),
(-14,-121,o),
(-14,-104,qs),
(-14,-82,o),
(22,-46,o),
(65,-27,qs),
(123,0,l),
(210,496,l),
(97,496,l),
(13,15,l),
(-51,-17,o),
(-104,-85,o),
(-104,-126,qs),
(-104,-166,o),
(-41,-208,o),
(8,-208,qs)
);
}
);
userData = {
assembly = "PUSHB[ ]	/* 6 values pushed */
29 1 3 2 1 76
MPPEM[ ]	/* MeasurePixelPerEm */
PUSHB[ ]	/* 1 value pushed */
33
LT[ ]	/* LessThan */
IF[ ]	/* If */
NPUSHB[ ]	/* 28 values pushed */
5 1 1 1 0 97 0 0 0 41 77 0 2 2 36 77 0 3 3 4 97 6 1 4 4 38 4 78
ELSE[ ]	/* Else */
MPPEM[ ]	/* MeasurePixelPerEm */
PUSHB[ ]	/* 1 value pushed */
41
LT[ ]	/* LessThan */
IF[ ]	/* If */
NPUSHB[ ]	/* 28 values pushed */
5 1 1 1 0 97 0 0 0 39 77 0 2 2 36 77 0 3 3 4 97 6 1 4 4 38 4 78
ELSE[ ]	/* Else */
NPUSHB[ ]	/* 23 values pushed */
0 0 5 1 1 2 0 1 105 0 3 6 1 4 3 4 101 0 2 2 36 2 78
EIF[ ]	/* EndIf */
EIF[ ]	/* EndIf */
NPUSHB[ ]	/* 20 values pushed */
12 12 0 0 12 32 12 31 28 26 19 18 0 11 0 10 36 7 8 23
CALL[ ]	/* CallFunction */";
};
width = 220;
}
);
note = iogonek;
unicode = 303;
},
{
glyphname = j;
kernLeft = j;
layers = (
{
layerId = m01;
shapes = (
{
closed = 1;
nodes = (
(-75,-220,ls),
(86,-220,o),
(114,-63,qs),
(212,496,l),
(98,496,l),
(0,-63,ls),
(-6,-95,o),
(-41,-123,o),
(-75,-123,qs),
(-114,-123,l),
(-131,-220,l)
);
},
{
closed = 1;
nodes = (
(213,579,o),
(256,621,o),
(256,652,qs),
(256,682,o),
(213,724,o),
(183,724,qs),
(153,724,o),
(111,682,o),
(111,652,qs),
(111,621,o),
(153,579,o),
(183,579,qs)
);
}
);
userData = {
assembly = "MPPEM[ ]	/* MeasurePixelPerEm */
PUSHB[ ]	/* 1 value pushed */
33
LT[ ]	/* LessThan */
IF[ ]	/* If */
NPUSHB[ ]	/* 27 values pushed */
5 1 4 4 3 97 0 3 3 41 77 0 1 1 36 77 0 0 0 2 97 0 2 2 38 2 78
ELSE[ ]	/* Else */
MPPEM[ ]	/* MeasurePixelPerEm */
PUSHB[ ]	/* 1 value pushed */
41
LT[ ]	/* LessThan */
IF[ ]	/* If */
NPUSHB[ ]	/* 27 values pushed */
5 1 4 4 3 97 0 3 3 39 77 0 1 1 36 77 0 0 0 2 97 0 2 2 38 2 78
ELSE[ ]	/* Else */
NPUSHB[ ]	/* 25 values pushed */
0 3 5 1 4 1 3 4 105 0 1 1 36 77 0 0 0 2 97 0 2 2 38 2 78
EIF[ ]	/* EndIf */
EIF[ ]	/* EndIf */
NPUSHB[ ]	/* 13 values pushed */
11 11 11 22 11 21 37 34 19 32 6 8 26
CALL[ ]	/* CallFunction */";
};
width = 233;
}
);
note = j;
unicode = 106;
},
{
glyphname = uni0237;
layers = (
{
anchors = (
{
name = bottom;
pos = (18,-310);
},
{
name = top;
pos = (160,496);
}
);
layerId = m01;
shapes = (
{
closed = 1;
nodes = (
(-75,-220,ls),
(86,-220,o),
(114,-63,qs),
(212,496,l),
(98,496,l),
(0,-63,ls),
(-6,-95,o),
(-41,-123,o),
(-75,-123,qs),
(-114,-123,l),
(-131,-220,l)
);
}
);
userData = {
assembly = "NPUSHB[ ]	/* 22 values pushed */
0 1 1 36 77 0 0 0 2 97 0 2 2 38 2 78 34 19 32 3 8 25
CALL[ ]	/* CallFunction */";
};
width = 233;
}
);
note = uni0237;
unicode = 567;
},
{
glyphname = k;
kernLeft = b;
kernRight = k;
layers = (
{
anchors = (
{
name = bottom;
pos = (210,0);
},
{
name = top;
pos = (385,992);
}
);
layerId = m01;
shapes = (
{
closed = 1;
nodes = (
(122,0,l),
(162,228,l),
(320,0,l),
(459,0,l),
(271,256,l),
(533,496,l),
(388,496,l),
(173,286,l),
(246,700,l),
(133,700,l),
(9,0,l)
);
}
);
userData = {
assembly = "NPUSHB[ ]	/* 32 values pushed */
8 5 2 3 2 1 1 76 0 0 0 33 77 0 1 1 36 77 3 1 2 2 34 2 78 18 18 18 16 4 8 26
CALL[ ]	/* CallFunction */";
};
width = 508;
}
);
note = k;
unicode = 107;
},
{
glyphname = l;
kernLeft = b;
kernRight = l;
layers = (
{
anchors = (
{
name = bottom;
pos = (67,0);
},
{
name = top;
pos = (190,700);
},
{
name = topright;
pos = (339,992);
}
);
layerId = m01;
shapes = (
{
closed = 1;
nodes = (
(122,0,l),
(246,700,l),
(133,700,l),
(9,0,l)
);
}
);
userData = {
assembly = "NPUSHB[ ]	/* 16 values pushed */
0 0 0 33 77 0 1 1 34 1 78 17 16 2 8 24
CALL[ ]	/* CallFunction */";
};
width = 221;
}
);
note = l;
unicode = 108;
},
{
glyphname = ldot;
layers = (
{
layerId = m01;
shapes = (
{
closed = 1;
nodes = (
(122,0,l),
(246,700,l),
(132,700,l),
(8,0,l)
);
},
{
closed = 1;
nodes = (
(325,309,o),
(358,341,o),
(358,366,qs),
(358,390,o),
(325,424,o),
(300,424,qs),
(275,424,o),
(242,390,o),
(242,366,qs),
(242,341,o),
(275,309,o),
(300,309,qs)
);
}
);
userData = {
assembly = "NPUSHB[ ]	/* 32 values pushed */
0 2 4 1 3 1 2 3 105 0 0 0 33 77 0 1 1 34 1 78 4 4 4 15 4 14 37 17 16 5 8 25
CALL[ ]	/* CallFunction */";
};
width = 348;
}
);
note = ldot;
unicode = 320;
},
{
glyphname = lslash;
kernLeft = lslash;
kernRight = lslash;
layers = (
{
layerId = m01;
shapes = (
{
closed = 1;
nodes = (
(137,0,l),
(201,362,l),
(277,388,l),
(296,495,l),
(221,469,l),
(261,700,l),
(148,700,l),
(100,428,l),
(24,402,l),
(5,294,l),
(81,320,l),
(24,0,l)
);
}
);
userData = {
assembly = "NPUSHB[ ]	/* 24 values pushed */
7 6 1 3 1 0 1 76 0 0 0 33 77 0 1 1 34 1 78 21 20 2 8 24
CALL[ ]	/* CallFunction */";
};
width = 276;
}
);
note = lslash;
unicode = 322;
},
{
glyphname = m;
kernLeft = dotlessi;
kernRight = a;
layers = (
{
layerId = m01;
shapes = (
{
closed = 1;
nodes = (
(123,0,l),
(168,256,ls),
(181,328,o),
(262,412,o),
(314,412,qs),
(356,412,o),
(400,363,o),
(400,316,qs),
(400,293,o),
(396,272,qs),
(348,0,l),
(461,0,l),
(509,272,ls),
(521,337,o),
(601,412,o),
(651,412,qs),
(693,412,o),
(738,363,o),
(738,316,qs),
(738,299,o),
(733,272,qs),
(686,0,l),
(799,0,l),
(849,283,ls),
(855,316,o),
(855,344,qs),
(855,419,o),
(770,508,o),
(688,508,qs),
(635,508,o),
(540,458,o),
(507,414,q),
(490,460,o),
(411,508,o),
(356,508,qs),
(306,508,o),
(224,463,o),
(194,422,q),
(197,496,l),
(97,496,l),
(10,0,l)
);
}
);
userData = {
assembly = "PUSHB[ ]	/* 7 values pushed */
8 2 2 4 0 1 76
MPPEM[ ]	/* MeasurePixelPerEm */
PUSHB[ ]	/* 1 value pushed */
21
LT[ ]	/* LessThan */
IF[ ]	/* If */
NPUSHB[ ]	/* 21 values pushed */
6 1 4 4 0 97 2 1 2 0 0 36 77 7 5 2 3 3 34 3 78
ELSE[ ]	/* Else */
NPUSHB[ ]	/* 25 values pushed */
0 0 0 36 77 6 1 4 4 1 97 2 1 1 1 42 77 7 5 2 3 3 34 3 78
EIF[ ]	/* EndIf */
NPUSHB[ ]	/* 11 values pushed */
19 37 19 37 21 36 35 16 8 8 30
CALL[ ]	/* CallFunction */";
};
width = 887;
}
);
note = m;
unicode = 109;
},
{
glyphname = n;
kernLeft = dotlessi;
kernRight = a;
layers = (
{
anchors = (
{
name = bottom;
pos = (242,0);
},
{
name = top;
pos = (330,496);
}
);
layerId = m01;
shapes = (
{
closed = 1;
nodes = (
(123,0,l),
(170,262,ls),
(182,330,o),
(269,412,o),
(327,412,qs),
(422,412,o),
(422,316,qs),
(422,294,o),
(417,272,qs),
(369,0,l),
(482,0,l),
(533,283,ls),
(539,316,o),
(539,345,qs),
(539,423,o),
(454,508,o),
(377,508,qs),
(321,508,o),
(224,457,o),
(192,411,q),
(198,496,l),
(97,496,l),
(10,0,l)
);
}
);
userData = {
assembly = "PUSHB[ ]	/* 6 values pushed */
2 1 2 3 1 76
MPPEM[ ]	/* MeasurePixelPerEm */
PUSHB[ ]	/* 1 value pushed */
21
LT[ ]	/* LessThan */
IF[ ]	/* If */
NPUSHB[ ]	/* 18 values pushed */
0 3 3 0 97 1 1 0 0 36 77 4 1 2 2 34 2 78
ELSE[ ]	/* Else */
NPUSHB[ ]	/* 22 values pushed */
0 0 0 36 77 0 3 3 1 97 0 1 1 42 77 4 1 2 2 34 2 78
EIF[ ]	/* EndIf */
PUSHB[ ]	/* 8 values pushed */
19 36 21 35 16 5 8 27
CALL[ ]	/* CallFunction */";
};
width = 570;
}
);
note = n;
unicode = 110;
},
{
glyphname = eng;
kernLeft = dotlessi;
kernRight = a;
layers = (
{
anchors = (
{
name = bottom;
pos = (242,0);
},
{
name = top;
pos = (330,496);
}
);
layerId = m01;
shapes = (
{
closed = 1;
nodes = (
(123,0,l),
(170,262,ls),
(182,332,o),
(269,412,o),
(327,412,qs),
(422,412,o),
(422,316,qs),
(422,294,o),
(417,272,qs),
(358,-63,ls),
(351,-96,o),
(317,-123,o),
(284,-123,qs),
(252,-123,l),
(235,-220,l),
(284,-220,ls),
(360,-220,o),
(456,-146,o),
(471,-63,qs),
(533,283,ls),
(539,316,o),
(539,345,qs),
(539,423,o),
(454,508,o),
(377,508,qs),
(321,508,o),
(224,457,o),
(192,411,q),
(198,496,l),
(97,496,l),
(10,0,l)
);
}
);
userData = {
assembly = "PUSHB[ ]	/* 6 values pushed */
2 1 5 4 1 76
MPPEM[ ]	/* MeasurePixelPerEm */
PUSHB[ ]	/* 1 value pushed */
21
LT[ ]	/* LessThan */
IF[ ]	/* If */
NPUSHB[ ]	/* 27 values pushed */
0 4 4 0 97 1 1 0 0 36 77 0 5 5 34 77 0 3 3 2 97 0 2 2 38 2 78
ELSE[ ]	/* Else */
NPUSHB[ ]	/* 31 values pushed */
0 0 0 36 77 0 4 4 1 97 0 1 1 42 77 0 5 5 34 77 0 3 3 2 97 0 2 2 38 2 78
EIF[ ]	/* EndIf */
NPUSHB[ ]	/* 9 values pushed */
19 38 33 39 35 16 6 8 28
CALL[ ]	/* CallFunction */";
};
width = 570;
}
);
note = eng;
unicode = 331;
},
{
glyphname = o;
kernLeft = c;
kernRight = b;
layers = (
{
anchors = (
{
name = bottom;
pos = (247,0);
},
{
name = ogonek;
pos = (364,10);
},
{
name = top;
pos = (335,496);
},
{
name = topright;
pos = (609,496);
}
);
layerId = m01;
shapes = (
{
closed = 1;
nodes = (
(333,-12,o),
(471,68,o),
(550,207,o),
(550,291,qs),
(550,348,o),
(500,448,o),
(400,508,o),
(330,508,qs),
(247,508,o),
(110,429,o),
(31,291,o),
(31,207,qs),
(31,145,o),
(86,45,o),
(185,-12,o),
(249,-12,qs)
);
},
{
closed = 1;
nodes = (
(212,86,o),
(145,158,o),
(145,216,qs),
(145,269,o),
(188,358,o),
(265,410,o),
(314,410,qs),
(368,410,o),
(436,336,o),
(436,278,qs),
(436,225,o),
(393,137,o),
(315,86,o),
(267,86,qs)
);
}
);
userData = {
assembly = "NPUSHB[ ]	/* 41 values pushed */
0 2 2 0 97 0 0 0 42 77 5 1 3 3 1 97 4 1 1 1 40 1 78 16 16 0 0 16 29 16 28 23 21 0 15 0 14 38 6 8 23
CALL[ ]	/* CallFunction */";
};
width = 581;
}
);
note = o;
unicode = 111;
},
{
glyphname = oslash;
layers = (
{
layerId = m01;
shapes = (
{
closed = 1;
nodes = (
(323,-12,o),
(461,68,o),
(541,207,o),
(541,291,qs),
(541,362,o),
(505,417,q),
(587,496,l),
(493,496,l),
(461,465,l),
(402,508,o),
(321,508,qs),
(238,508,o),
(101,429,o),
(22,291,o),
(22,207,qs),
(22,135,o),
(60,79,q),
(-23,0,l),
(71,0,l),
(104,32,l),
(161,-12,o),
(240,-12,qs)
);
},
{
closed = 1;
nodes = (
(218,85,o),
(184,109,q),
(418,334,l),
(428,310,o),
(428,278,qs),
(428,229,o),
(387,140,o),
(310,85,o),
(259,85,qs)
);
},
{
closed = 1;
nodes = (
(145,161,l),
(135,189,o),
(135,216,qs),
(135,266,o),
(176,355,o),
(254,411,o),
(305,411,qs),
(346,411,o),
(380,387,q)
);
}
);
userData = {
assembly = "MPPEM[ ]	/* MeasurePixelPerEm */
PUSHB[ ]	/* 1 value pushed */
21
LT[ ]	/* LessThan */
IF[ ]	/* If */
NPUSHB[ ]	/* 19 values pushed */
15 12 2 5 1 39 38 28 27 4 4 5 4 1 2 0 4 3 76
ELSE[ ]	/* Else */
NPUSHB[ ]	/* 19 values pushed */
15 12 2 5 2 39 38 28 27 4 4 5 4 1 2 0 4 3 76
EIF[ ]	/* EndIf */
MPPEM[ ]	/* MeasurePixelPerEm */
PUSHB[ ]	/* 1 value pushed */
21
LT[ ]	/* LessThan */
IF[ ]	/* If */
NPUSHB[ ]	/* 25 values pushed */
0 5 5 1 97 2 1 1 1 42 77 7 1 4 4 0 97 6 3 2 0 0 34 0 78
ELSE[ ]	/* Else */
NPUSHB[ ]	/* 33 values pushed */
0 2 2 36 77 0 5 5 1 97 0 1 1 42 77 0 0 0 34 77 7 1 4 4 3 97 6 1 3 3 40 3 78
EIF[ ]	/* EndIf */
NPUSHB[ ]	/* 20 values pushed */
22 22 0 0 33 31 22 30 22 29 0 21 0 20 18 38 18 8 8 25
CALL[ ]	/* CallFunction */";
};
width = 564;
}
);
note = oslash;
unicode = 248;
},
{
glyphname = oe;
kernLeft = c;
kernRight = ae;
layers = (
{
anchors = (
{
name = bottom;
pos = (440,0);
},
{
name = top;
pos = (528,496);
}
);
layerId = m01;
shapes = (
{
closed = 1;
nodes = (
(312,-12,o),
(424,36,o),
(465,79,q),
(491,36,o),
(583,-12,o),
(644,-12,qs),
(722,-12,o),
(865,73,o),
(904,153,q),
(790,153,l),
(768,120,o),
(702,82,o),
(660,82,qs),
(609,82,o),
(544,144,o),
(544,199,qs),
(544,213,o),
(545,221,q),
(928,221,l),
(933,240,o),
(942,294,o),
(942,314,qs),
(942,369,o),
(894,457,o),
(801,508,o),
(736,508,qs),
(670,508,o),
(555,458,o),
(515,413,q),
(489,457,o),
(394,508,o),
(330,508,qs),
(247,508,o),
(110,429,o),
(31,291,o),
(31,207,qs),
(31,148,o),
(84,48,o),
(183,-12,o),
(249,-12,qs)
);
},
{
closed = 1;
nodes = (
(211,86,o),
(145,159,o),
(145,216,qs),
(145,265,o),
(186,355,o),
(263,410,o),
(314,410,qs),
(368,410,o),
(436,336,o),
(436,278,qs),
(436,228,o),
(395,140,o),
(318,86,o),
(267,86,qs)
);
},
{
closed = 1;
nodes = (
(560,296,l),
(579,353,o),
(667,415,o),
(720,415,qs),
(769,415,o),
(830,360,o),
(830,313,qs),
(829,296,l)
);
}
);
userData = {
assembly = "MPPEM[ ]	/* MeasurePixelPerEm */
PUSHB[ ]	/* 1 value pushed */
46
LT[ ]	/* LessThan */
IF[ ]	/* If */
NPUSHB[ ]	/* 10 values pushed */
10 1 7 0 36 1 5 3 2 76
ELSE[ ]	/* Else */
NPUSHB[ ]	/* 10 values pushed */
10 1 7 9 36 1 5 3 2 76
EIF[ ]	/* EndIf */
MPPEM[ ]	/* MeasurePixelPerEm */
PUSHB[ ]	/* 1 value pushed */
46
LT[ ]	/* LessThan */
IF[ ]	/* If */
NPUSHB[ ]	/* 43 values pushed */
0 4 2 3 2 4 3 128 0 10 0 2 4 10 2 103 9 1 7 7 0 97 1 1 0 0 42 77 12 8 2 3 3 5 97 11 6 2 5 5 40 5 78
ELSE[ ]	/* Else */
NPUSHB[ ]	/* 53 values pushed */
0 4 2 3 2 4 3 128 0 10 0 2 4 10 2 103 0 9 9 0 97 1 1 0 0 42 77 0 7 7 0 97 1 1 0 0 42 77 12 8 2 3 3 5 97 11 6 2 5 5 40 5 78
EIF[ ]	/* EndIf */
NPUSHB[ ]	/* 27 values pushed */
40 40 0 0 61 60 58 56 40 53 40 52 47 45 0 39 0 38 34 18 36 22 36 38 13 8 28
CALL[ ]	/* CallFunction */";
};
width = 962;
}
);
note = oe;
unicode = 339;
},
{
glyphname = p;
kernLeft = p;
kernRight = b;
layers = (
{
layerId = m01;
shapes = (
{
closed = 1;
nodes = (
(85,-220,l),
(136,73,l),
(156,36,o),
(239,-12,o),
(293,-12,qs),
(374,-12,o),
(505,69,o),
(580,209,o),
(580,294,qs),
(580,353,o),
(532,451,o),
(440,508,o),
(377,508,qs),
(268,508,o),
(198,421,q),
(200,496,l),
(97,496,l),
(-29,-220,l)
);
},
{
closed = 1;
nodes = (
(233,87,o),
(163,159,o),
(163,216,qs),
(163,266,o),
(205,355,o),
(284,409,o),
(337,409,qs),
(394,409,o),
(463,334,o),
(463,276,qs),
(463,223,o),
(419,137,o),
(340,87,o),
(290,87,qs)
);
}
);
userData = {
assembly = "NPUSHB[ ]	/* 10 values pushed */
2 1 4 0 15 1 2 5 2 76
MPPEM[ ]	/* MeasurePixelPerEm */
PUSHB[ ]	/* 1 value pushed */
21
LT[ ]	/* LessThan */
IF[ ]	/* If */
NPUSHB[ ]	/* 28 values pushed */
0 4 4 0 97 1 1 0 0 36 77 6 1 5 5 2 97 0 2 2 40 77 0 3 3 38 3 78
ELSE[ ]	/* Else */
NPUSHB[ ]	/* 32 values pushed */
0 0 0 36 77 0 4 4 1 97 0 1 1 42 77 6 1 5 5 2 97 0 2 2 40 77 0 3 3 38 3 78
EIF[ ]	/* EndIf */
NPUSHB[ ]	/* 14 values pushed */
18 18 18 31 18 30 38 19 38 34 16 7 8 27
CALL[ ]	/* CallFunction */";
};
width = 610;
}
);
note = p;
unicode = 112;
},
{
glyphname = thorn;
kernRight = b;
layers = (
{
layerId = m01;
shapes = (
{
closed = 1;
nodes = (
(85,-220,l),
(136,73,l),
(156,36,o),
(239,-12,o),
(293,-12,qs),
(374,-12,o),
(505,69,o),
(580,209,o),
(580,294,qs),
(580,353,o),
(532,451,o),
(440,508,o),
(377,508,qs),
(272,508,o),
(199,428,q),
(246,700,l),
(133,700,l),
(-29,-220,l)
);
},
{
closed = 1;
nodes = (
(233,87,o),
(163,159,o),
(163,216,qs),
(163,266,o),
(205,355,o),
(284,409,o),
(337,409,qs),
(394,409,o),
(463,334,o),
(463,276,qs),
(463,223,o),
(419,137,o),
(340,87,o),
(290,87,qs)
);
}
);
userData = {
assembly = "NPUSHB[ ]	/* 56 values pushed */
2 1 4 1 15 1 2 5 2 76 0 0 0 33 77 0 4 4 1 97 0 1 1 42 77 6 1 5 5 2 98 0 2 2 40 77 0 3 3 38 3 78 18 18 18 31 18 30 38 19 38 34 16 7 8 27
CALL[ ]	/* CallFunction */";
};
width = 610;
}
);
note = thorn;
unicode = 254;
},
{
glyphname = q;
kernLeft = c;
layers = (
{
layerId = m01;
shapes = (
{
closed = 1;
nodes = (
(361,-220,l),
(474,-220,l),
(600,496,l),
(498,496,l),
(473,423,l),
(453,463,o),
(373,508,o),
(312,508,qs),
(240,508,o),
(111,435,o),
(31,299,o),
(31,208,qs),
(31,153,o),
(74,52,o),
(164,-12,o),
(231,-12,qs),
(339,-12,o),
(411,75,q)
);
},
{
closed = 1;
nodes = (
(215,87,o),
(148,162,o),
(148,220,qs),
(148,265,o),
(187,352,o),
(265,409,o),
(322,409,qs),
(379,409,o),
(446,341,o),
(446,284,qs),
(446,237,o),
(406,146,o),
(327,87,o),
(272,87,qs)
);
}
);
userData = {
assembly = "MPPEM[ ]	/* MeasurePixelPerEm */
PUSHB[ ]	/* 1 value pushed */
21
LT[ ]	/* LessThan */
IF[ ]	/* If */
NPUSHB[ ]	/* 10 values pushed */
12 1 4 1 17 1 0 5 2 76
ELSE[ ]	/* Else */
NPUSHB[ ]	/* 10 values pushed */
12 1 4 2 17 1 0 5 2 76
EIF[ ]	/* EndIf */
MPPEM[ ]	/* MeasurePixelPerEm */
PUSHB[ ]	/* 1 value pushed */
21
LT[ ]	/* LessThan */
IF[ ]	/* If */
NPUSHB[ ]	/* 28 values pushed */
0 4 4 1 97 2 1 1 1 42 77 6 1 5 5 0 97 0 0 0 40 77 0 3 3 38 3 78
ELSE[ ]	/* Else */
NPUSHB[ ]	/* 32 values pushed */
0 2 2 36 77 0 4 4 1 97 0 1 1 42 77 6 1 5 5 0 97 0 0 0 40 77 0 3 3 38 3 78
EIF[ ]	/* EndIf */
NPUSHB[ ]	/* 14 values pushed */
18 18 18 31 18 30 39 17 19 38 32 7 8 27
CALL[ ]	/* CallFunction */";
};
width = 610;
}
);
note = q;
unicode = 113;
},
{
glyphname = r;
kernLeft = dotlessi;
kernRight = r;
layers = (
{
anchors = (
{
name = bottom;
pos = (73,0);
},
{
name = top;
pos = (227,496);
}
);
layerId = m01;
shapes = (
{
closed = 1;
nodes = (
(123,0,l),
(167,246,ls),
(193,389,o),
(344,389,qs),
(375,389,l),
(396,508,l),
(333,508,o),
(229,454,o),
(194,407,q),
(199,496,l),
(97,496,l),
(10,0,l)
);
}
);
userData = {
assembly = "PUSHB[ ]	/* 6 values pushed */
2 1 2 0 1 76
MPPEM[ ]	/* MeasurePixelPerEm */
PUSHB[ ]	/* 1 value pushed */
21
LT[ ]	/* LessThan */
IF[ ]	/* If */
NPUSHB[ ]	/* 17 values pushed */
0 2 2 0 97 1 1 0 0 36 77 0 3 3 34 3 78
ELSE[ ]	/* Else */
NPUSHB[ ]	/* 21 values pushed */
0 0 0 36 77 0 2 2 1 97 0 1 1 42 77 0 3 3 34 3 78
EIF[ ]	/* EndIf */
PUSHB[ ]	/* 7 values pushed */
18 33 19 16 4 8 26
CALL[ ]	/* CallFunction */";
};
width = 365;
}
);
note = r;
unicode = 114;
},
{
glyphname = s;
kernLeft = s;
kernRight = s;
layers = (
{
anchors = (
{
name = bottom;
pos = (209,0);
},
{
name = top;
pos = (297,496);
}
);
layerId = m01;
shapes = (
{
closed = 1;
nodes = (
(284,-12,o),
(388,33,o),
(446,113,o),
(446,164,qs),
(446,221,o),
(359,280,o),
(282,298,qs),
(231,310,o),
(183,336,o),
(183,358,qs),
(183,384,o),
(233,419,o),
(272,419,qs),
(310,419,o),
(356,383,o),
(356,353,q),
(466,353,l),
(469,425,o),
(370,508,o),
(284,508,qs),
(223,508,o),
(125,466,o),
(69,391,o),
(69,345,qs),
(69,272,o),
(156,237,qs),
(191,222,o),
(234,212,qs),
(283,201,o),
(329,174,o),
(329,149,qs),
(329,116,o),
(276,77,o),
(231,77,qs),
(179,77,o),
(127,126,o),
(128,165,q),
(15,165,l),
(11,113,o),
(57,33,o),
(151,-12,o),
(216,-12,qs)
);
}
);
userData = {
assembly = "MPPEM[ ]	/* MeasurePixelPerEm */
PUSHB[ ]	/* 1 value pushed */
19
LT[ ]	/* LessThan */
IF[ ]	/* If */
NPUSHB[ ]	/* 36 values pushed */
0 3 4 0 4 3 114 0 0 1 4 0 1 126 0 4 4 2 97 0 2 2 42 77 0 1 1 5 97 6 1 5 5 40 5 78
ELSE[ ]	/* Else */
NPUSHB[ ]	/* 37 values pushed */
0 3 4 0 4 3 0 128 0 0 1 4 0 1 126 0 4 4 2 97 0 2 2 42 77 0 1 1 5 97 6 1 5 5 40 5 78
EIF[ ]	/* EndIf */
NPUSHB[ ]	/* 14 values pushed */
0 0 0 41 0 40 34 18 44 34 19 7 8 27
CALL[ ]	/* CallFunction */";
};
width = 497;
}
);
note = s;
unicode = 115;
},
{
glyphname = scedilla;
kernLeft = s;
kernRight = s;
layers = (
{
anchors = (
{
name = bottom;
pos = (162,-262);
},
{
name = top;
pos = (297,496);
}
);
layerId = m01;
shapes = (
{
closed = 1;
nodes = (
(199,-262,ls),
(259,-262,o),
(346,-195,o),
(346,-136,qs),
(346,-95,o),
(283,-53,o),
(232,-54,q),
(240,-11,l),
(333,-5,o),
(446,91,o),
(446,164,qs),
(446,221,o),
(359,280,o),
(282,298,qs),
(231,310,o),
(183,336,o),
(183,358,qs),
(183,384,o),
(233,419,o),
(272,419,qs),
(310,419,o),
(356,383,o),
(356,353,q),
(466,353,l),
(469,425,o),
(370,508,o),
(284,508,qs),
(223,508,o),
(125,466,o),
(69,391,o),
(69,345,qs),
(69,272,o),
(156,237,qs),
(191,222,o),
(234,212,qs),
(283,201,o),
(329,174,o),
(329,149,qs),
(329,116,o),
(276,77,o),
(231,77,qs),
(179,77,o),
(127,126,o),
(128,165,q),
(15,165,l),
(9,96,o),
(91,3,o),
(168,-9,q),
(149,-116,l),
(206,-116,ls),
(259,-116,o),
(259,-148,qs),
(258,-171,o),
(222,-195,o),
(192,-195,qs),
(87,-195,l),
(75,-262,l)
);
}
);
userData = {
assembly = "PUSHB[ ]	/* 6 values pushed */
8 1 8 7 1 76
MPPEM[ ]	/* MeasurePixelPerEm */
PUSHB[ ]	/* 1 value pushed */
19
LT[ ]	/* LessThan */
IF[ ]	/* If */
NPUSHB[ ]	/* 50 values pushed */
0 5 6 2 6 5 114 0 2 3 6 2 3 126 0 8 0 1 0 8 1 105 0 0 0 9 0 9 100 0 6 6 4 97 0 4 4 42 77 0 3 3 7 97 0 7 7 40 7 78
ELSE[ ]	/* Else */
NPUSHB[ ]	/* 51 values pushed */
0 5 6 2 6 5 2 128 0 2 3 6 2 3 126 0 8 0 1 0 8 1 105 0 0 0 9 0 9 100 0 6 6 4 97 0 4 4 42 77 0 3 3 7 97 0 7 7 40 7 78
EIF[ ]	/* EndIf */
NPUSHB[ ]	/* 14 values pushed */
56 54 17 26 34 18 44 34 20 35 32 10 8 31
CALL[ ]	/* CallFunction */";
};
width = 497;
}
);
note = scedilla;
unicode = 351;
},
{
glyphname = germandbls;
kernRight = germandbls;
layers = (
{
layerId = m01;
shapes = (
{
closed = 1;
nodes = (
(471,-10,o),
(573,38,o),
(629,123,o),
(629,177,qs),
(629,230,o),
(576,294,o),
(516,316,qs),
(465,335,o),
(421,361,o),
(421,380,qs),
(421,398,o),
(451,426,o),
(484,446,qs),
(513,463,o),
(529,476,qs),
(588,521,o),
(588,584,qs),
(588,625,o),
(539,693,o),
(446,732,o),
(383,732,qs),
(262,732,o),
(117,610,o),
(99,513,qs),
(8,0,l),
(122,0,l),
(211,503,ls),
(235,637,o),
(367,637,qs),
(417,637,o),
(471,599,o),
(471,566,qs),
(471,535,o),
(429,492,o),
(384,463,qs),
(366,452,ls),
(336,433,o),
(304,387,o),
(304,357,qs),
(304,318,o),
(365,266,o),
(434,241,qs),
(478,225,o),
(515,189,o),
(515,164,qs),
(515,124,o),
(460,75,o),
(416,75,qs),
(371,75,o),
(325,128,o),
(329,173,q),
(220,173,l),
(214,89,o),
(313,-10,o),
(405,-10,qs)
);
}
);
userData = {
assembly = "MPPEM[ ]	/* MeasurePixelPerEm */
PUSHB[ ]	/* 1 value pushed */
13
LT[ ]	/* LessThan */
IF[ ]	/* If */
NPUSHB[ ]	/* 30 values pushed */
0 0 2 1 1 0 114 0 2 2 4 97 0 4 4 41 77 0 1 1 3 98 6 5 2 3 3 34 3 78
ELSE[ ]	/* Else */
MPPEM[ ]	/* MeasurePixelPerEm */
PUSHB[ ]	/* 1 value pushed */
25
LT[ ]	/* LessThan */
IF[ ]	/* If */
NPUSHB[ ]	/* 31 values pushed */
0 0 2 1 2 0 1 128 0 2 2 4 97 0 4 4 41 77 0 1 1 3 98 6 5 2 3 3 34 3 78
ELSE[ ]	/* Else */
MPPEM[ ]	/* MeasurePixelPerEm */
PUSHB[ ]	/* 1 value pushed */
33
LT[ ]	/* LessThan */
IF[ ]	/* If */
NPUSHB[ ]	/* 35 values pushed */
0 0 2 1 2 0 1 128 0 2 2 4 97 0 4 4 41 77 0 3 3 34 77 0 1 1 5 98 6 1 5 5 40 5 78
ELSE[ ]	/* Else */
NPUSHB[ ]	/* 33 values pushed */
0 0 2 1 2 0 1 128 0 4 0 2 0 4 2 105 0 3 3 34 77 0 1 1 5 98 6 1 5 5 40 5 78
EIF[ ]	/* EndIf */
EIF[ ]	/* EndIf */
EIF[ ]	/* EndIf */
NPUSHB[ ]	/* 17 values pushed */
0 0 0 54 0 53 34 32 29 28 26 24 34 18 7 8 24
CALL[ ]	/* CallFunction */";
};
width = 670;
}
);
note = germandbls;
unicode = 223;
},
{
glyphname = t;
kernLeft = t;
kernRight = t;
layers = (
{
anchors = (
{
name = bottom;
pos = (173,0);
},
{
name = top;
pos = (230,496);
},
{
name = topright;
pos = (372,992);
}
);
layerId = m01;
shapes = (
{
closed = 1;
nodes = (
(296,0,l),
(313,97,l),
(246,97,ls),
(213,97,o),
(184,118,o),
(184,144,qs),
(186,167,l),
(229,401,l),
(366,401,l),
(384,496,l),
(245,496,l),
(267,616,l),
(152,616,l),
(131,496,l),
(52,496,l),
(35,401,l),
(114,401,l),
(73,167,ls),
(68,139,o),
(68,119,qs),
(68,56,o),
(142,0,o),
(211,0,qs)
);
}
);
userData = {
assembly = "PUSHB[ ]	/* 6 values pushed */
16 1 5 0 1 76
MPPEM[ ]	/* MeasurePixelPerEm */
PUSHB[ ]	/* 1 value pushed */
11
LT[ ]	/* LessThan */
IF[ ]	/* If */
NPUSHB[ ]	/* 30 values pushed */
0 2 1 1 2 112 4 1 0 0 1 95 3 1 1 1 36 77 0 5 5 6 95 7 1 6 6 34 6 78
ELSE[ ]	/* Else */
NPUSHB[ ]	/* 29 values pushed */
0 2 1 2 133 4 1 0 0 1 95 3 1 1 1 36 77 0 5 5 6 95 7 1 6 6 34 6 78
EIF[ ]	/* EndIf */
NPUSHB[ ]	/* 15 values pushed */
0 0 0 22 0 21 36 17 17 17 17 21 8 8 28
CALL[ ]	/* CallFunction */";
};
width = 371;
}
);
note = t;
unicode = 116;
},
{
glyphname = uni0163;
kernLeft = t;
kernRight = t;
layers = (
{
anchors = (
{
name = bottom;
pos = (126,-262);
},
{
name = top;
pos = (230,496);
},
{
name = topright;
pos = (372,992);
}
);
layerId = m01;
shapes = (
{
closed = 1;
nodes = (
(296,0,l),
(313,97,l),
(246,97,ls),
(213,97,o),
(184,118,o),
(184,144,qs),
(186,167,l),
(229,401,l),
(366,401,l),
(384,496,l),
(245,496,l),
(267,616,l),
(152,616,l),
(131,496,l),
(52,496,l),
(35,401,l),
(114,401,l),
(73,167,ls),
(68,139,o),
(68,119,qs),
(68,36,o),
(136,11,q),
(113,-116,l),
(170,-116,ls),
(223,-116,o),
(223,-148,qs),
(222,-171,o),
(186,-195,o),
(156,-195,qs),
(51,-195,l),
(39,-262,l),
(163,-262,ls),
(223,-262,o),
(310,-195,o),
(310,-136,qs),
(310,-95,o),
(247,-53,o),
(196,-54,q),
(206,0,l),
(211,0,l)
);
}
);
userData = {
assembly = "NPUSHB[ ]	/* 10 values pushed */
33 1 9 4 17 1 10 9 2 76
MPPEM[ ]	/* MeasurePixelPerEm */
PUSHB[ ]	/* 1 value pushed */
11
LT[ ]	/* LessThan */
IF[ ]	/* If */
NPUSHB[ ]	/* 44 values pushed */
0 6 5 5 6 112 0 0 0 3 2 0 3 105 0 2 0 1 2 1 99 8 1 4 4 5 95 7 1 5 5 36 77 0 9 9 10 95 0 10 10 34 10 78
ELSE[ ]	/* Else */
NPUSHB[ ]	/* 43 values pushed */
0 6 5 6 133 0 0 0 3 2 0 3 105 0 2 0 1 2 1 99 8 1 4 4 5 95 7 1 5 5 36 77 0 9 9 10 95 0 10 10 34 10 78
EIF[ ]	/* EndIf */
NPUSHB[ ]	/* 16 values pushed */
39 38 37 35 17 17 17 17 22 35 33 36 17 11 8 31
CALL[ ]	/* CallFunction */";
};
width = 371;
}
);
note = uni0163;
unicode = 355;
},
{
glyphname = u;
kernLeft = u;
layers = (
{
anchors = (
{
name = bottom;
pos = (242,0);
},
{
name = ogonek;
pos = (473,0);
},
{
name = top;
pos = (330,496);
},
{
name = topright;
pos = (601,496);
}
);
layerId = m01;
shapes = (
{
closed = 1;
nodes = (
(250,-12,o),
(346,39,o),
(378,85,q),
(373,0,l),
(473,0,l),
(560,496,l),
(447,496,l),
(401,234,ls),
(389,164,o),
(301,84,o),
(243,84,qs),
(149,84,o),
(149,180,qs),
(149,198,o),
(153,224,qs),
(201,496,l),
(88,496,l),
(38,213,ls),
(32,180,o),
(32,151,qs),
(32,73,o),
(116,-12,o),
(193,-12,qs)
);
}
);
userData = {
assembly = "PUSHB[ ]	/* 6 values pushed */
19 1 1 0 1 76
MPPEM[ ]	/* MeasurePixelPerEm */
PUSHB[ ]	/* 1 value pushed */
21
LT[ ]	/* LessThan */
IF[ ]	/* If */
NPUSHB[ ]	/* 19 values pushed */
2 1 0 0 36 77 0 1 1 3 98 5 4 2 3 3 34 3 78
ELSE[ ]	/* Else */
NPUSHB[ ]	/* 23 values pushed */
2 1 0 0 36 77 0 3 3 34 77 0 1 1 4 98 5 1 4 4 40 4 78
EIF[ ]	/* EndIf */
NPUSHB[ ]	/* 13 values pushed */
0 0 0 22 0 21 17 19 36 21 6 8 26
CALL[ ]	/* CallFunction */";
};
width = 570;
}
);
note = u;
unicode = 117;
},
{
glyphname = uogonek;
kernLeft = u;
layers = (
{
anchors = (
{
name = bottom;
pos = (242,0);
},
{
name = ogonek;
pos = (473,0);
},
{
name = top;
pos = (330,496);
},
{
name = topright;
pos = (601,496);
}
);
layerId = m01;
shapes = (
{
closed = 1;
nodes = (
(250,-12,o),
(346,39,o),
(378,85,q),
(374,20,l),
(304,-12,o),
(246,-83,o),
(246,-126,qs),
(246,-166,o),
(309,-208,o),
(358,-208,qs),
(397,-208,o),
(444,-194,q),
(455,-125,l),
(416,-140,o),
(384,-140,qs),
(362,-140,o),
(336,-121,o),
(336,-104,qs),
(336,-82,o),
(372,-46,o),
(415,-27,qs),
(473,0,l),
(560,496,l),
(447,496,l),
(401,234,ls),
(389,164,o),
(301,84,o),
(243,84,qs),
(149,84,o),
(149,180,qs),
(149,198,o),
(153,224,qs),
(201,496,l),
(88,496,l),
(38,213,ls),
(32,180,o),
(32,151,qs),
(32,73,o),
(116,-12,o),
(193,-12,qs)
);
}
);
userData = {
assembly = "NPUSHB[ ]	/* 14 values pushed */
36 1 1 0 35 1 5 1 26 1 3 5 3 76
MPPEM[ ]	/* MeasurePixelPerEm */
PUSHB[ ]	/* 1 value pushed */
41
LT[ ]	/* LessThan */
IF[ ]	/* If */
NPUSHB[ ]	/* 28 values pushed */
2 1 0 0 36 77 0 1 1 5 98 6 1 5 5 40 77 0 3 3 4 97 0 4 4 38 4 78
ELSE[ ]	/* Else */
NPUSHB[ ]	/* 25 values pushed */
0 3 0 4 3 4 101 2 1 0 0 36 77 0 1 1 5 98 6 1 5 5 40 5 78
EIF[ ]	/* EndIf */
NPUSHB[ ]	/* 14 values pushed */
0 0 0 39 0 38 35 39 19 36 21 7 8 27
CALL[ ]	/* CallFunction */";
};
width = 570;
}
);
note = uogonek;
unicode = 371;
},
{
glyphname = v;
kernLeft = v;
kernRight = v;
layers = (
{
layerId = m01;
shapes = (
{
closed = 1;
nodes = (
(287,0,l),
(565,496,l),
(444,496,l),
(238,107,l),
(167,496,l),
(49,496,l),
(150,0,l)
);
}
);
userData = {
assembly = "NPUSHB[ ]	/* 24 values pushed */
2 1 2 0 1 76 1 1 0 0 36 77 0 2 2 34 2 78 17 18 16 3 8 25
CALL[ ]	/* CallFunction */";
};
width = 525;
}
);
note = v;
unicode = 118;
},
{
glyphname = w;
kernLeft = w;
kernRight = w;
layers = (
{
anchors = (
{
name = bottom;
pos = (335,0);
},
{
name = top;
pos = (423,496);
}
);
layerId = m01;
shapes = (
{
closed = 1;
nodes = (
(224,0,l),
(403,384,l),
(447,0,l),
(564,0,l),
(796,496,l),
(684,496,l),
(526,128,l),
(486,496,l),
(360,496,l),
(189,128,l),
(161,496,l),
(49,496,l),
(107,0,l)
);
}
);
userData = {
assembly = "NPUSHB[ ]	/* 30 values pushed */
10 5 2 3 3 0 1 76 2 1 2 0 0 36 77 4 1 3 3 34 3 78 18 17 18 18 16 5 8 27
CALL[ ]	/* CallFunction */";
};
width = 758;
}
);
note = w;
unicode = 119;
},
{
glyphname = x;
kernLeft = x;
kernRight = x;
layers = (
{
layerId = m01;
shapes = (
{
closed = 1;
nodes = (
(86,0,l),
(224,171,l),
(310,0,l),
(435,0,l),
(311,248,l),
(522,496,l),
(400,496,l),
(261,326,l),
(177,496,l),
(51,496,l),
(175,250,l),
(-36,0,l)
);
}
);
userData = {
assembly = "NPUSHB[ ]	/* 28 values pushed */
9 6 3 3 2 0 1 76 1 1 0 0 36 77 3 1 2 2 34 2 78 18 18 18 17 4 8 26
CALL[ ]	/* CallFunction */";
};
width = 485;
}
);
note = x;
unicode = 120;
},
{
glyphname = y;
kernLeft = y;
kernRight = y;
layers = (
{
anchors = (
{
name = bottom;
pos = (233,0);
},
{
name = top;
pos = (321,496);
}
);
layerId = m01;
shapes = (
{
closed = 1;
nodes = (
(149,-220,l),
(593,496,l),
(473,496,l),
(256,135,l),
(169,496,l),
(48,496,l),
(174,10,l),
(29,-220,l)
);
}
);
userData = {
assembly = "NPUSHB[ ]	/* 24 values pushed */
3 1 2 0 1 76 1 1 0 0 36 77 0 2 2 38 2 78 17 18 17 3 8 25
CALL[ ]	/* CallFunction */";
};
width = 553;
}
);
note = y;
unicode = 121;
},
{
glyphname = z;
kernLeft = z;
kernRight = z;
layers = (
{
anchors = (
{
name = bottom;
pos = (189,0);
},
{
name = top;
pos = (277,496);
}
);
layerId = m01;
shapes = (
{
closed = 1;
nodes = (
(377,0,l),
(395,94,l),
(127,94,l),
(454,404,l),
(471,496,l),
(85,496,l),
(68,402,l),
(324,402,l),
(0,92,l),
(-17,0,l)
);
}
);
userData = {
assembly = "NPUSHB[ ]	/* 28 values pushed */
0 0 0 1 95 0 1 1 36 77 0 2 2 3 95 0 3 3 34 3 78 17 18 17 17 4 8 26
CALL[ ]	/* CallFunction */";
};
width = 455;
}
);
note = z;
unicode = 122;
},
{
glyphname = uniA78C;
layers = (
{
layerId = m01;
shapes = (
{
closed = 1;
nodes = (
(173,333,l),
(257,700,l),
(135,700,l),
(87,333,l)
);
}
);
userData = {
assembly = "NPUSHB[ ]	/* 16 values pushed */
0 1 1 0 95 0 0 0 33 1 78 17 16 2 8 24
CALL[ ]	/* CallFunction */";
};
width = 232;
}
);
note = uniA78C;
unicode = 42892;
},
{
glyphname = fi;
layers = (
{
anchors = (
{
name = caret_1;
pos = (278,0);
}
);
layerId = m01;
shapes = (
{
closed = 1;
nodes = (
(150,0,l),
(221,401,l),
(321,401,l),
(338,496,l),
(237,496,l),
(246,543,ls),
(252,575,o),
(286,603,o),
(321,603,qs),
(347,603,l),
(365,700,l),
(321,700,ls),
(243,700,o),
(147,625,o),
(132,543,qs),
(124,496,l),
(61,496,l),
(44,401,l),
(108,401,l),
(37,0,l)
);
},
{
closed = 1;
nodes = (
(451,0,l),
(538,496,l),
(425,496,l),
(338,0,l)
);
},
{
closed = 1;
nodes = (
(539,579,o),
(582,621,o),
(582,652,qs),
(582,682,o),
(539,724,o),
(509,724,qs),
(479,724,o),
(437,683,o),
(437,652,qs),
(437,621,o),
(479,579,o),
(509,579,qs)
);
}
);
userData = {
assembly = "MPPEM[ ]	/* MeasurePixelPerEm */
PUSHB[ ]	/* 1 value pushed */
33
LT[ ]	/* LessThan */
IF[ ]	/* If */
NPUSHB[ ]	/* 41 values pushed */
0 3 3 2 97 0 2 2 33 77 11 1 10 10 9 97 0 9 9 41 77 5 1 0 0 1 95 7 4 2 1 1 36 77 8 1 6 6 34 6 78
ELSE[ ]	/* Else */
MPPEM[ ]	/* MeasurePixelPerEm */
PUSHB[ ]	/* 1 value pushed */
41
LT[ ]	/* LessThan */
IF[ ]	/* If */
NPUSHB[ ]	/* 41 values pushed */
0 3 3 2 97 0 2 2 33 77 11 1 10 10 9 97 0 9 9 39 77 5 1 0 0 1 95 7 4 2 1 1 36 77 8 1 6 6 34 6 78
ELSE[ ]	/* Else */
NPUSHB[ ]	/* 39 values pushed */
0 9 11 1 10 1 9 10 105 0 3 3 2 97 0 2 2 33 77 5 1 0 0 1 95 7 4 2 1 1 36 77 8 1 6 6 34 6 78
EIF[ ]	/* EndIf */
EIF[ ]	/* EndIf */
NPUSHB[ ]	/* 20 values pushed */
24 24 24 35 24 34 30 28 17 17 17 17 19 33 35 17 16 12 8 31
CALL[ ]	/* CallFunction */";
};
width = 555;
}
);
note = fi;
unicode = 64257;
},
{
glyphname = fl;
layers = (
{
anchors = (
{
name = caret_1;
pos = (271,0);
}
);
layerId = m01;
shapes = (
{
closed = 1;
nodes = (
(150,0,l),
(221,401,l),
(321,401,l),
(338,496,l),
(237,496,l),
(246,543,ls),
(252,575,o),
(286,603,o),
(321,603,qs),
(347,603,l),
(365,700,l),
(321,700,ls),
(243,700,o),
(147,625,o),
(132,543,qs),
(124,496,l),
(61,496,l),
(44,401,l),
(108,401,l),
(37,0,l)
);
},
{
closed = 1;
nodes = (
(444,0,l),
(568,700,l),
(454,700,l),
(330,0,l)
);
}
);
userData = {
assembly = "NPUSHB[ ]	/* 42 values pushed */
0 3 3 2 97 7 1 2 2 33 77 5 1 0 0 1 95 4 1 1 1 36 77 8 1 6 6 34 6 78 17 17 17 17 19 33 35 17 16 9 8 31
CALL[ ]	/* CallFunction */";
};
width = 542;
}
);
note = fl;
unicode = 64258;
},
{
glyphname = ordfeminine;
layers = (
{
layerId = m01;
shapes = (
{
closed = 1;
nodes = (
(249,346,o),
(301,411,q),
(312,354,o),
(399,354,q),
(412,421,l),
(395,421,o),
(380,433,o),
(380,446,qs),
(381,463,l),
(399,562,ls),
(402,580,o),
(402,596,qs),
(402,651,o),
(335,710,o),
(274,710,qs),
(212,710,o),
(119,648,o),
(99,590,q),
(177,590,l),
(188,616,o),
(233,643,o),
(261,643,qs),
(292,643,o),
(323,613,o),
(323,585,qs),
(323,580,o),
(321,562,q),
(233,562,ls),
(161,562,o),
(65,497,o),
(65,437,qs),
(65,396,o),
(126,346,o),
(171,346,qs)
);
},
{
closed = 1;
nodes = (
(176,410,o),
(148,430,o),
(148,449,qs),
(148,478,o),
(194,509,o),
(229,509,qs),
(310,509,l),
(301,467,o),
(240,410,o),
(200,410,qs)
);
}
);
userData = {
assembly = "MPPEM[ ]	/* MeasurePixelPerEm */
PUSHB[ ]	/* 1 value pushed */
22
LT[ ]	/* LessThan */
IF[ ]	/* If */
NPUSHB[ ]	/* 10 values pushed */
24 1 4 7 31 1 5 4 2 76
ELSE[ ]	/* Else */
NPUSHB[ ]	/* 10 values pushed */
24 1 4 7 31 1 8 4 2 76
EIF[ ]	/* EndIf */
MPPEM[ ]	/* MeasurePixelPerEm */
PUSHB[ ]	/* 1 value pushed */
22
LT[ ]	/* LessThan */
IF[ ]	/* If */
NPUSHB[ ]	/* 41 values pushed */
0 2 1 0 1 2 0 128 0 0 0 7 4 0 7 103 0 1 1 3 97 0 3 3 59 77 10 8 2 4 4 5 97 9 6 2 5 5 58 5 78
ELSE[ ]	/* Else */
MPPEM[ ]	/* MeasurePixelPerEm */
PUSHB[ ]	/* 1 value pushed */
30
LT[ ]	/* LessThan */
IF[ ]	/* If */
NPUSHB[ ]	/* 52 values pushed */
0 2 1 0 1 2 0 128 0 0 0 7 4 0 7 103 0 1 1 3 97 0 3 3 59 77 0 4 4 5 97 9 6 2 5 5 58 77 10 1 8 8 5 97 9 6 2 5 5 58 5 78
ELSE[ ]	/* Else */
NPUSHB[ ]	/* 49 values pushed */
0 2 1 0 1 2 0 128 0 0 0 7 4 0 7 103 0 1 1 3 97 0 3 3 59 77 0 4 4 5 97 0 5 5 58 77 10 1 8 8 6 97 9 1 6 6 58 6 78
EIF[ ]	/* EndIf */
EIF[ ]	/* EndIf */
NPUSHB[ ]	/* 23 values pushed */
34 34 0 0 34 43 34 42 38 36 0 33 0 32 17 24 34 18 36 36 11 10 28
CALL[ ]	/* CallFunction */";
};
width = 406;
}
);
note = ordfeminine;
unicode = 170;
},
{
glyphname = ordmasculine;
layers = (
{
layerId = m01;
shapes = (
{
closed = 1;
nodes = (
(278,348,o),
(375,404,o),
(430,501,o),
(430,560,qs),
(430,600,o),
(395,670,o),
(325,712,o),
(276,712,qs),
(218,712,o),
(122,657,o),
(67,561,o),
(67,502,qs),
(67,436,o),
(152,348,o),
(219,348,qs)
);
},
{
closed = 1;
nodes = (
(194,417,o),
(147,467,o),
(147,507,qs),
(147,564,o),
(213,643,o),
(265,643,qs),
(303,643,o),
(351,592,o),
(351,551,qs),
(351,494,o),
(284,417,o),
(233,417,qs)
);
}
);
userData = {
assembly = "NPUSHB[ ]	/* 41 values pushed */
0 2 2 0 97 0 0 0 59 77 5 1 3 3 1 97 4 1 1 1 58 1 78 15 15 0 0 15 26 15 25 21 19 0 14 0 13 37 6 10 23
CALL[ ]	/* CallFunction */";
};
width = 398;
}
);
note = ordmasculine;
unicode = 186;
},
{
glyphname = uni042F;
layers = (
{
layerId = m01;
shapes = (
{
closed = 1;
nodes = (
(-35,0,l),
(100,0,l),
(328,300,l),
(419,300,l),
(366,0,l),
(479,0,l),
(603,700,l),
(372,700,ls),
(290,700,o),
(165,647,o),
(94,544,o),
(94,472,qs),
(94,414,o),
(161,333,o),
(219,319,q)
);
},
{
closed = 1;
nodes = (
(264,396,o),
(211,446,o),
(211,485,qs),
(211,546,o),
(282,604,o),
(357,604,qs),
(472,604,l),
(436,396,l),
(321,396,ls)
);
}
);
userData = {
assembly = "NPUSHB[ ]	/* 52 values pushed */
14 1 2 5 1 76 3 1 1 2 1 134 0 0 0 4 5 0 4 103 6 1 5 2 2 5 87 6 1 5 5 2 95 0 2 5 2 79 15 15 15 23 15 22 35 17 17 17 37 7 6 27
CALL[ ]	/* CallFunction */";
};
width = 586;
}
);
note = uni042F;
unicode = (1071,1103);
},
{
glyphname = uni0394;
layers = (
{
layerId = m01;
shapes = (
{
closed = 1;
nodes = (
(-31,0,l),
(624,0,l),
(640,87,l),
(467,700,l),
(373,700,l),
(-16,87,l)
);
},
{
closed = 1;
nodes = (
(100,87,l),
(397,571,l),
(524,87,l)
);
}
);
userData = {
assembly = "MPPEM[ ]	/* MeasurePixelPerEm */
PUSHB[ ]	/* 1 value pushed */
42
LT[ ]	/* LessThan */
IF[ ]	/* If */
NPUSHB[ ]	/* 16 values pushed */
0 0 0 23 77 0 2 2 1 95 0 1 1 24 1 78
ELSE[ ]	/* Else */
NPUSHB[ ]	/* 16 values pushed */
0 0 2 0 133 0 2 2 1 95 0 1 1 24 1 78
EIF[ ]	/* EndIf */
PUSHB[ ]	/* 6 values pushed */
19 18 16 3 7 25
CALL[ ]	/* CallFunction */";
};
width = 693;
}
);
note = uni0394;
unicode = 916;
},
{
glyphname = Pi;
layers = (
{
layerId = m01;
shapes = (
{
closed = 1;
nodes = (
(176,0,l),
(249,409,l),
(442,409,l),
(369,0,l),
(482,0,l),
(555,409,l),
(631,409,l),
(647,496,l),
(75,496,l),
(59,409,l),
(135,409,l),
(62,0,l)
);
}
);
userData = {
assembly = "NPUSHB[ ]	/* 26 values pushed */
0 1 4 2 2 0 3 1 0 103 5 1 3 3 24 3 78 17 17 17 17 17 16 6 7 28
CALL[ ]	/* CallFunction */";
};
width = 633;
}
);
note = Pi;
unicode = 928;
},
{
glyphname = uni03A9;
layers = (
{
layerId = m01;
shapes = (
{
closed = 1;
nodes = (
(284,0,l),
(301,91,l),
(242,114,o),
(171,229,o),
(171,306,qs),
(171,383,o),
(240,522,o),
(371,609,o),
(461,609,qs),
(549,609,o),
(661,505,o),
(661,409,qs),
(661,348,o),
(614,221,o),
(514,117,o),
(441,91,q),
(424,0,l),
(698,0,l),
(714,87,l),
(587,87,l),
(675,137,o),
(779,318,o),
(779,427,qs),
(779,502,o),
(712,632,o),
(576,712,o),
(479,712,qs),
(365,712,o),
(172,607,o),
(57,423,o),
(57,309,qs),
(57,249,o),
(107,125,o),
(154,87,q),
(26,87,l),
(10,0,l)
);
}
);
userData = {
assembly = "NPUSHB[ ]	/* 38 values pushed */
33 1 0 4 1 76 0 4 4 1 97 0 1 1 23 77 2 1 0 0 3 95 5 1 3 3 24 3 78 23 39 17 22 38 16 6 7 28
CALL[ ]	/* CallFunction */";
};
width = 793;
}
);
note = uni03A9;
unicode = 937;
},
{
glyphname = uni03BC;
layers = (
{
layerId = m01;
shapes = (
{
closed = 1;
nodes = (
(97,-220,l),
(137,11,l),
(168,-12,o),
(216,-12,qs),
(272,-12,o),
(369,39,o),
(400,83,q),
(395,0,l),
(496,0,l),
(583,496,l),
(470,496,l),
(424,236,ls),
(411,165,o),
(323,84,o),
(266,84,qs),
(171,84,o),
(171,177,qs),
(171,196,o),
(176,224,qs),
(224,496,l),
(111,496,l),
(-17,-220,l)
);
}
);
userData = {
assembly = "PUSHB[ ]	/* 7 values pushed */
19 14 2 3 1 1 76
MPPEM[ ]	/* MeasurePixelPerEm */
PUSHB[ ]	/* 1 value pushed */
42
LT[ ]	/* LessThan */
IF[ ]	/* If */
NPUSHB[ ]	/* 27 values pushed */
2 1 0 1 0 133 0 3 3 24 77 0 1 1 4 97 0 4 4 24 77 0 5 5 25 5 78
ELSE[ ]	/* Else */
NPUSHB[ ]	/* 25 values pushed */
2 1 0 1 0 133 0 1 0 4 5 1 4 105 0 3 3 24 77 0 5 5 25 5 78
EIF[ ]	/* EndIf */
NPUSHB[ ]	/* 9 values pushed */
18 35 17 19 36 16 6 7 28
CALL[ ]	/* CallFunction */";
};
width = 593;
}
);
note = uni03BC;
unicode = 956;
},
{
glyphname = zero;
layers = (
{
layerId = m01;
shapes = (
{
closed = 1;
nodes = (
(370,-12,o),
(522,143,o),
(586,363,o),
(586,467,qs),
(586,582,o),
(485,712,o),
(376,712,qs),
(258,712,o),
(106,561,o),
(38,342,o),
(38,238,qs),
(38,122,o),
(140,-12,o),
(248,-12,qs)
);
},
{
closed = 1;
nodes = (
(154,89,o),
(154,245,qs),
(154,323,o),
(195,492,o),
(287,611,o),
(359,611,qs),
(415,611,o),
(470,531,o),
(470,457,qs),
(470,388,o),
(428,215,o),
(336,89,o),
(266,89,qs)
);
}
);
userData = {
assembly = "NPUSHB[ ]	/* 41 values pushed */
0 2 2 0 97 0 0 0 39 77 5 1 3 3 1 97 4 1 1 1 40 1 78 14 14 0 0 14 26 14 25 21 19 0 13 0 12 37 6 8 23
CALL[ ]	/* CallFunction */";
};
width = 587;
}
);
note = zero;
unicode = 48;
},
{
glyphname = one;
layers = (
{
layerId = m01;
shapes = (
{
closed = 1;
nodes = (
(512,0,l),
(529,96,l),
(360,96,l),
(467,700,l),
(408,700,l),
(152,611,l),
(134,512,l),
(337,574,l),
(252,96,l),
(55,96,l),
(38,0,l)
);
}
);
userData = {
assembly = "NPUSHB[ ]	/* 31 values pushed */
3 2 2 0 1 1 76 0 1 1 33 77 2 1 0 0 3 96 0 3 3 34 3 78 17 17 20 16 4 8 26
CALL[ ]	/* CallFunction */";
};
width = 587;
}
);
note = one;
unicode = 49;
},
{
glyphname = two;
layers = (
{
layerId = m01;
shapes = (
{
closed = 1;
nodes = (
(491,0,l),
(508,96,l),
(179,96,l),
(366,256,l),
(384,271,ls),
(445,324,o),
(517,395,o),
(566,486,o),
(566,538,qs),
(566,615,o),
(468,712,o),
(376,712,qs),
(272,712,o),
(125,592,o),
(104,485,q),
(213,485,l),
(223,542,o),
(300,616,o),
(357,616,qs),
(403,616,o),
(452,564,o),
(452,524,qs),
(452,476,o),
(363,375,o),
(286,309,qs),
(269,294,l),
(31,86,l),
(16,0,l)
);
}
);
userData = {
assembly = "NPUSHB[ ]	/* 37 values pushed */
0 1 0 3 0 1 3 128 0 0 0 2 97 0 2 2 39 77 0 3 3 4 95 0 4 4 34 4 78 17 24 34 18 39 5 8 27
CALL[ ]	/* CallFunction */";
};
width = 587;
}
);
note = two;
unicode = 50;
},
{
glyphname = three;
layers = (
{
layerId = m01;
shapes = (
{
closed = 1;
nodes = (
(339,-12,o),
(471,62,o),
(541,183,o),
(541,252,qs),
(541,328,o),
(442,427,o),
(360,428,q),
(583,607,l),
(600,700,l),
(149,700,l),
(132,604,l),
(441,604,l),
(183,399,l),
(236,323,l),
(275,344,o),
(314,344,qs),
(368,344,o),
(430,292,o),
(430,244,qs),
(430,204,o),
(393,131,o),
(319,85,o),
(267,85,qs),
(210,85,o),
(146,143,o),
(146,191,q),
(148,207,l),
(37,207,l),
(35,194,o),
(35,173,qs),
(35,85,o),
(149,-12,o),
(250,-12,qs)
);
}
);
userData = {
assembly = "NPUSHB[ ]	/* 67 values pushed */
19 1 2 5 18 1 0 2 6 1 1 0 3 76 0 0 2 1 2 0 1 128 0 5 0 2 0 5 2 105 0 3 3 4 95 0 4 4 33 77 0 1 1 6 97 7 1 6 6 40 6 78 0 0 0 32 0 31 18 17 19 37 35 20 8 8 28
CALL[ ]	/* CallFunction */";
};
width = 587;
}
);
note = three;
unicode = 51;
},
{
glyphname = four;
layers = (
{
layerId = m01;
shapes = (
{
closed = 1;
nodes = (
(432,0,l),
(457,137,l),
(545,137,l),
(562,235,l),
(474,235,l),
(507,423,l),
(401,423,l),
(368,235,l),
(155,235,l),
(467,700,l),
(353,700,l),
(31,226,l),
(16,137,l),
(344,137,l),
(319,0,l)
);
}
);
userData = {
assembly = "NPUSHB[ ]	/* 39 values pushed */
0 3 1 2 1 3 2 128 4 1 2 5 1 0 6 2 0 104 0 1 1 33 77 0 6 6 34 6 78 17 17 17 17 17 18 16 7 8 29
CALL[ ]	/* CallFunction */";
};
width = 587;
}
);
note = four;
unicode = 52;
},
{
glyphname = five;
layers = (
{
layerId = m01;
shapes = (
{
closed = 1;
nodes = (
(338,-12,o),
(473,64,o),
(551,199,o),
(551,283,qs),
(551,338,o),
(506,428,o),
(418,481,o),
(357,481,qs),
(264,481,o),
(199,422,q),
(265,601,l),
(561,601,l),
(578,700,l),
(198,700,l),
(68,305,l),
(176,305,l),
(196,339,o),
(273,388,o),
(326,388,qs),
(378,388,o),
(440,319,o),
(440,265,qs),
(440,221,o),
(402,138,o),
(325,85,o),
(271,85,qs),
(218,85,o),
(149,145,o),
(148,194,q),
(37,194,l),
(36,192,o),
(36,181,qs),
(36,126,o),
(88,38,o),
(188,-12,o),
(256,-12,qs)
);
}
);
userData = {
assembly = "PUSHB[ ]	/* 6 values pushed */
25 1 2 6 1 76
MPPEM[ ]	/* MeasurePixelPerEm */
PUSHB[ ]	/* 1 value pushed */
33
LT[ ]	/* LessThan */
IF[ ]	/* If */
NPUSHB[ ]	/* 47 values pushed */
0 3 2 0 2 3 0 128 0 0 1 2 0 1 126 0 5 5 4 95 0 4 4 33 77 0 2 2 6 97 0 6 6 36 77 0 1 1 7 97 8 1 7 7 40 7 78
ELSE[ ]	/* Else */
NPUSHB[ ]	/* 45 values pushed */
0 3 2 0 2 3 0 128 0 0 1 2 0 1 126 0 6 0 2 3 6 2 105 0 5 5 4 95 0 4 4 33 77 0 1 1 7 97 8 1 7 7 40 7 78
EIF[ ]	/* EndIf */
NPUSHB[ ]	/* 16 values pushed */
0 0 0 35 0 34 34 17 17 18 37 34 36 9 8 29
CALL[ ]	/* CallFunction */";
};
width = 587;
}
);
note = five;
unicode = 53;
},
{
glyphname = six;
layers = (
{
layerId = m01;
shapes = (
{
closed = 1;
nodes = (
(348,-12,o),
(468,58,o),
(540,180,o),
(540,256,qs),
(540,314,o),
(491,403,o),
(408,451,o),
(356,451,qs),
(246,451,o),
(174,356,q),
(198,477,o),
(301,617,o),
(374,617,qs),
(421,617,o),
(469,562,o),
(469,513,q),
(568,513,l),
(572,561,o),
(538,652,o),
(454,712,o),
(387,712,qs),
(306,712,o),
(156,601,o),
(60,383,o),
(60,233,qs),
(60,134,o),
(159,-12,o),
(277,-12,qs)
);
},
{
closed = 1;
nodes = (
(233,86,o),
(171,149,o),
(171,202,qs),
(171,245,o),
(211,314,o),
(280,354,o),
(322,354,qs),
(373,354,o),
(434,290,o),
(434,239,qs),
(434,198,o),
(398,128,o),
(330,86,o),
(285,86,qs)
);
}
);
userData = {
assembly = "NPUSHB[ ]	/* 66 values pushed */
17 1 5 3 1 76 0 1 2 3 2 1 3 128 0 3 0 5 6 3 5 105 0 2 2 0 97 0 0 0 39 77 8 1 6 6 4 97 7 1 4 4 40 4 78 28 28 0 0 28 41 28 40 35 33 0 27 0 26 35 34 19 37 9 8 26
CALL[ ]	/* CallFunction */";
};
width = 587;
}
);
note = six;
unicode = 54;
},
{
glyphname = seven;
layers = (
{
layerId = m01;
shapes = (
{
closed = 1;
nodes = (
(213,0,l),
(608,618,l),
(622,700,l),
(117,700,l),
(99,603,l),
(484,603,l),
(93,0,l)
);
}
);
userData = {
assembly = "NPUSHB[ ]	/* 22 values pushed */
0 0 0 1 95 0 1 1 33 77 0 2 2 34 2 78 18 17 16 3 8 25
CALL[ ]	/* CallFunction */";
};
width = 587;
}
);
note = seven;
unicode = 55;
},
{
glyphname = eight;
layers = (
{
layerId = m01;
shapes = (
{
closed = 1;
nodes = (
(336,-12,o),
(462,52,o),
(531,161,o),
(531,226,qs),
(531,278,o),
(482,356,o),
(431,375,q),
(482,395,o),
(568,480,o),
(568,550,qs),
(568,625,o),
(466,712,o),
(374,712,qs),
(296,712,o),
(178,655,o),
(113,559,o),
(113,502,qs),
(113,460,o),
(159,393,o),
(200,375,q),
(130,353,o),
(38,243,o),
(38,169,qs),
(38,84,o),
(158,-12,o),
(254,-12,qs)
);
},
{
closed = 1;
nodes = (
(214,84,o),
(150,138,o),
(150,185,qs),
(150,232,o),
(198,294,o),
(269,324,o),
(305,324,qs),
(357,324,o),
(421,272,o),
(421,223,qs),
(421,179,o),
(376,116,o),
(306,84,o),
(268,84,qs)
);
},
{
closed = 1;
nodes = (
(281,410,o),
(223,456,o),
(223,500,qs),
(223,552,o),
(300,619,o),
(356,619,qs),
(404,619,o),
(456,573,o),
(456,531,qs),
(456,494,o),
(419,439,o),
(359,410,o),
(326,410,qs)
);
}
);
userData = {
assembly = "NPUSHB[ ]	/* 65 values pushed */
18 5 2 2 5 1 76 8 1 5 0 2 3 5 2 105 0 4 4 0 97 0 0 0 39 77 7 1 3 3 1 97 6 1 1 1 40 1 78 40 40 26 26 0 0 40 52 40 51 47 45 26 39 26 38 33 31 0 25 0 24 43 9 8 23
CALL[ ]	/* CallFunction */";
};
width = 587;
}
);
note = eight;
unicode = 56;
},
{
glyphname = nine;
layers = (
{
layerId = m01;
shapes = (
{
closed = 1;
nodes = (
(317,-12,o),
(467,99,o),
(563,317,o),
(563,467,qs),
(563,566,o),
(465,712,o),
(347,712,qs),
(276,712,o),
(155,642,o),
(83,520,o),
(83,444,qs),
(83,386,o),
(132,297,o),
(215,249,o),
(267,249,qs),
(377,249,o),
(449,344,q),
(425,223,o),
(323,83,o),
(249,83,qs),
(202,83,o),
(155,138,o),
(155,187,q),
(55,187,l),
(52,138,o),
(85,47,o),
(169,-12,o),
(236,-12,qs)
);
},
{
closed = 1;
nodes = (
(250,346,o),
(189,411,o),
(189,461,qs),
(189,502,o),
(225,572,o),
(293,614,o),
(338,614,qs),
(390,614,o),
(452,551,o),
(452,498,qs),
(452,455,o),
(412,386,o),
(343,346,o),
(301,346,qs)
);
}
);
userData = {
assembly = "NPUSHB[ ]	/* 66 values pushed */
10 1 2 6 1 76 0 0 2 1 2 0 1 128 8 1 6 0 2 0 6 2 105 0 5 5 3 97 0 3 3 39 77 0 1 1 4 97 7 1 4 4 40 4 78 28 28 0 0 28 41 28 40 35 33 0 27 0 26 38 35 34 19 9 8 26
CALL[ ]	/* CallFunction */";
};
width = 587;
}
);
note = nine;
unicode = 57;
},
{
glyphname = uni24EA;
layers = (
{
layerId = m01;
shapes = (
{
closed = 1;
nodes = (
(511,-12,o),
(678,85,o),
(775,252,o),
(775,350,qs),
(775,448,o),
(678,615,o),
(511,712,o),
(413,712,qs),
(315,712,o),
(148,615,o),
(51,448,o),
(51,350,qs),
(51,252,o),
(148,85,o),
(315,-12,o),
(413,-12,qs)
);
},
{
closed = 1;
nodes = (
(331,53,o),
(195,131,o),
(117,267,o),
(117,350,qs),
(117,433,o),
(195,569,o),
(331,647,o),
(413,647,qs),
(496,647,o),
(632,569,o),
(710,433,o),
(710,350,qs),
(710,267,o),
(632,131,o),
(496,53,o),
(413,53,qs)
);
},
{
closed = 1;
nodes = (
(483,165,o),
(516,215,qs),
(548,265,o),
(548,350,qs),
(548,435,o),
(516,485,qs),
(483,535,o),
(414,535,qs),
(344,535,o),
(311,484,qs),
(279,436,o),
(279,350,qs),
(279,264,o),
(311,216,qs),
(344,165,o),
(414,165,qs)
);
},
{
closed = 1;
nodes = (
(384,232,o),
(369,263,qs),
(355,296,o),
(355,350,qs),
(355,404,o),
(369,437,qs),
(384,468,o),
(414,468,qs),
(443,468,o),
(458,437,qs),
(472,404,o),
(472,350,qs),
(472,296,o),
(458,263,qs),
(443,232,o),
(414,232,qs)
);
}
);
userData = {
assembly = "NPUSHB[ ]	/* 75 values pushed */
0 4 0 6 7 4 6 105 11 1 7 10 1 5 3 7 5 105 0 2 2 0 97 0 0 0 39 77 9 1 3 3 1 97 8 1 1 1 40 1 78 48 48 32 32 16 16 0 0 48 63 48 62 56 54 32 47 32 46 40 38 16 31 16 30 24 22 0 15 0 14 38 12 8 23
CALL[ ]	/* CallFunction */";
};
width = 790;
}
);
note = uni24EA;
unicode = 9450;
},
{
glyphname = uni2780;
layers = (
{
layerId = m01;
shapes = (
{
closed = 1;
nodes = (
(511,-12,o),
(678,85,o),
(775,252,o),
(775,350,qs),
(775,448,o),
(678,615,o),
(511,712,o),
(413,712,qs),
(315,712,o),
(148,615,o),
(51,448,o),
(51,350,qs),
(51,252,o),
(148,85,o),
(315,-12,o),
(413,-12,qs)
);
},
{
closed = 1;
nodes = (
(331,53,o),
(195,131,o),
(117,267,o),
(117,350,qs),
(117,433,o),
(195,569,o),
(331,647,o),
(413,647,qs),
(496,647,o),
(632,569,o),
(710,433,o),
(710,350,qs),
(710,267,o),
(632,131,o),
(496,53,o),
(413,53,qs)
);
},
{
closed = 1;
nodes = (
(542,176,l),
(542,241,l),
(461,241,l),
(461,533,l),
(422,533,l),
(304,491,l),
(304,432,l),
(391,449,l),
(391,241,l),
(301,241,l),
(301,176,l)
);
}
);
userData = {
assembly = "NPUSHB[ ]	/* 74 values pushed */
36 35 34 3 4 5 1 76 0 5 2 4 2 5 4 128 6 1 4 0 7 3 4 7 104 0 2 2 0 97 0 0 0 39 77 9 1 3 3 1 97 8 1 1 1 40 1 78 16 16 0 0 42 41 40 39 38 37 33 32 16 31 16 30 24 22 0 15 0 14 38 10 8 23
CALL[ ]	/* CallFunction */";
};
width = 790;
}
);
note = uni2780;
unicode = 10112;
},
{
glyphname = uni2781;
layers = (
{
layerId = m01;
shapes = (
{
closed = 1;
nodes = (
(511,-12,o),
(678,85,o),
(775,252,o),
(775,350,qs),
(775,448,o),
(678,615,o),
(511,712,o),
(413,712,qs),
(315,712,o),
(148,615,o),
(51,448,o),
(51,350,qs),
(51,252,o),
(148,85,o),
(315,-12,o),
(413,-12,qs)
);
},
{
closed = 1;
nodes = (
(330,53,o),
(194,132,o),
(116,268,o),
(116,350,qs),
(116,432,o),
(194,568,o),
(330,647,o),
(413,647,qs),
(496,647,o),
(632,569,o),
(710,433,o),
(710,350,qs),
(710,267,o),
(632,131,o),
(496,53,o),
(413,53,qs)
);
},
{
closed = 1;
nodes = (
(541,176,l),
(541,241,l),
(393,241,l),
(448,296,ls),
(489,336,o),
(533,396,o),
(533,432,qs),
(533,481,o),
(469,540,o),
(415,540,qs),
(359,540,o),
(290,479,o),
(289,419,q),
(362,419,l),
(362,443,o),
(388,476,o),
(413,476,qs),
(435,476,o),
(460,451,o),
(460,429,qs),
(460,409,o),
(426,368,o),
(394,336,qs),
(289,228,l),
(289,176,l)
);
}
);
userData = {
assembly = "PUSHB[ ]	/* 6 values pushed */
32 1 8 7 1 76
MPPEM[ ]	/* MeasurePixelPerEm */
PUSHB[ ]	/* 1 value pushed */
23
LT[ ]	/* LessThan */
IF[ ]	/* If */
NPUSHB[ ]	/* 46 values pushed */
0 5 4 7 4 5 114 0 6 0 4 5 6 4 105 0 7 0 8 3 7 8 103 0 2 2 0 97 0 0 0 39 77 10 1 3 3 1 97 9 1 1 1 40 1 78
ELSE[ ]	/* Else */
NPUSHB[ ]	/* 47 values pushed */
0 5 4 7 4 5 7 128 0 6 0 4 5 6 4 105 0 7 0 8 3 7 8 103 0 2 2 0 97 0 0 0 39 77 10 1 3 3 1 97 9 1 1 1 40 1 78
EIF[ ]	/* EndIf */
NPUSHB[ ]	/* 28 values pushed */
16 16 0 0 56 55 54 53 47 45 43 42 40 38 16 31 16 30 24 22 0 15 0 14 38 11 8 23
CALL[ ]	/* CallFunction */";
};
width = 790;
}
);
note = uni2781;
unicode = 10113;
},
{
glyphname = uni2782;
layers = (
{
layerId = m01;
shapes = (
{
closed = 1;
nodes = (
(511,-12,o),
(678,85,o),
(775,252,o),
(775,350,qs),
(775,448,o),
(678,615,o),
(511,712,o),
(413,712,qs),
(315,712,o),
(148,615,o),
(51,448,o),
(51,350,qs),
(51,252,o),
(148,85,o),
(315,-12,o),
(413,-12,qs)
);
},
{
closed = 1;
nodes = (
(331,53,o),
(195,131,o),
(116,267,o),
(116,350,qs),
(116,433,o),
(195,569,o),
(331,647,o),
(413,647,qs),
(496,647,o),
(632,569,o),
(710,433,o),
(710,350,qs),
(710,267,o),
(632,131,o),
(496,53,o),
(413,53,qs)
);
},
{
closed = 1;
nodes = (
(472,158,o),
(543,224,o),
(543,279,qs),
(543,322,o),
(498,382,o),
(450,389,q),
(532,459,l),
(532,522,l),
(293,522,l),
(293,458,l),
(438,458,l),
(336,369,l),
(377,322,l),
(394,332,o),
(414,332,qs),
(438,332,o),
(471,304,o),
(471,278,qs),
(471,251,o),
(441,223,o),
(414,223,qs),
(389,223,o),
(356,252,o),
(356,280,q),
(284,280,l),
(283,221,o),
(355,158,o),
(414,158,qs)
);
}
);
userData = {
assembly = "NPUSHB[ ]	/* 15 values pushed */
52 1 7 8 53 47 2 6 7 46 1 4 6 3 76
MPPEM[ ]	/* MeasurePixelPerEm */
PUSHB[ ]	/* 1 value pushed */
10
LT[ ]	/* LessThan */
IF[ ]	/* If */
NPUSHB[ ]	/* 54 values pushed */
0 6 7 4 7 6 114 0 4 5 7 4 5 126 0 8 0 7 6 8 7 103 0 5 12 1 9 3 5 9 105 0 2 2 0 97 0 0 0 39 77 11 1 3 3 1 98 10 1 1 1 40 1 78
ELSE[ ]	/* Else */
NPUSHB[ ]	/* 55 values pushed */
0 6 7 4 7 6 4 128 0 4 5 7 4 5 126 0 8 0 7 6 8 7 103 0 5 12 1 9 3 5 9 105 0 2 2 0 97 0 0 0 39 77 11 1 3 3 1 98 10 1 1 1 40 1 78
EIF[ ]	/* EndIf */
NPUSHB[ ]	/* 34 values pushed */
32 32 16 16 0 0 32 59 32 58 51 50 49 48 45 43 39 37 35 34 16 31 16 30 24 22 0 15 0 14 38 13 8 23
CALL[ ]	/* CallFunction */";
};
width = 790;
}
);
note = uni2782;
unicode = 10114;
},
{
glyphname = uni2783;
layers = (
{
layerId = m01;
shapes = (
{
closed = 1;
nodes = (
(511,-12,o),
(678,85,o),
(775,252,o),
(775,350,qs),
(775,448,o),
(678,615,o),
(511,712,o),
(413,712,qs),
(315,712,o),
(148,615,o),
(51,448,o),
(51,350,qs),
(51,252,o),
(148,85,o),
(315,-12,o),
(413,-12,qs)
);
},
{
closed = 1;
nodes = (
(502,176,l),
(502,238,l),
(539,238,l),
(539,303,l),
(502,303,l),
(502,392,l),
(432,392,l),
(432,303,l),
(342,303,l),
(455,533,l),
(381,533,l),
(262,299,l),
(262,238,l),
(426,238,l),
(426,176,l)
);
},
{
closed = 1;
nodes = (
(331,53,o),
(195,131,o),
(116,267,o),
(116,350,qs),
(116,433,o),
(195,569,o),
(331,647,o),
(413,647,qs),
(496,647,o),
(632,569,o),
(710,433,o),
(710,350,qs),
(710,267,o),
(632,131,o),
(496,53,o),
(413,53,qs)
);
}
);
userData = {
assembly = "PUSHB[ ]	/* 6 values pushed */
18 1 2 4 1 76
MPPEM[ ]	/* MeasurePixelPerEm */
PUSHB[ ]	/* 1 value pushed */
15
LT[ ]	/* LessThan */
IF[ ]	/* If */
NPUSHB[ ]	/* 54 values pushed */
0 3 9 5 9 3 5 128 0 5 4 4 5 112 0 8 2 10 2 8 114 6 1 4 7 1 2 8 4 2 104 0 9 9 0 97 0 0 0 39 77 12 1 10 10 1 97 11 1 1 1 40 1 78
ELSE[ ]	/* Else */
MPPEM[ ]	/* MeasurePixelPerEm */
PUSHB[ ]	/* 1 value pushed */
21
LT[ ]	/* LessThan */
IF[ ]	/* If */
NPUSHB[ ]	/* 55 values pushed */
0 3 9 5 9 3 5 128 0 5 4 9 5 4 126 0 8 2 10 2 8 114 6 1 4 7 1 2 8 4 2 104 0 9 9 0 97 0 0 0 39 77 12 1 10 10 1 97 11 1 1 1 40 1 78
ELSE[ ]	/* Else */
NPUSHB[ ]	/* 56 values pushed */
0 3 9 5 9 3 5 128 0 5 4 9 5 4 126 0 8 2 10 2 8 10 128 6 1 4 7 1 2 8 4 2 104 0 9 9 0 97 0 0 0 39 77 12 1 10 10 1 97 11 1 1 1 40 1 78
EIF[ ]	/* EndIf */
EIF[ ]	/* EndIf */
NPUSHB[ ]	/* 32 values pushed */
31 31 0 0 31 46 31 45 39 37 30 29 28 27 26 25 24 23 22 21 20 19 17 16 0 15 0 14 38 13 8 23
CALL[ ]	/* CallFunction */";
};
width = 790;
}
);
note = uni2783;
unicode = 10115;
},
{
glyphname = uni2784;
layers = (
{
layerId = m01;
shapes = (
{
closed = 1;
nodes = (
(511,-12,o),
(678,85,o),
(775,252,o),
(775,350,qs),
(775,448,o),
(678,615,o),
(511,712,o),
(413,712,qs),
(315,712,o),
(148,615,o),
(51,448,o),
(51,350,qs),
(51,252,o),
(148,85,o),
(315,-12,o),
(413,-12,qs)
);
},
{
closed = 1;
nodes = (
(331,53,o),
(195,131,o),
(116,267,o),
(116,350,qs),
(116,433,o),
(195,569,o),
(331,647,o),
(413,647,qs),
(496,647,o),
(632,569,o),
(710,433,o),
(710,350,qs),
(710,267,o),
(632,131,o),
(496,53,o),
(413,53,qs)
);
},
{
closed = 1;
nodes = (
(473,160,o),
(545,233,o),
(545,291,qs),
(545,342,o),
(486,413,o),
(430,413,qs),
(410,413,o),
(372,400,o),
(360,387,q),
(375,458,l),
(522,458,l),
(522,524,l),
(318,524,l),
(288,316,l),
(361,316,l),
(368,332,o),
(399,352,o),
(417,352,qs),
(443,352,o),
(473,317,o),
(473,290,qs),
(473,263,o),
(442,225,o),
(416,225,qs),
(395,225,o),
(362,248,o),
(357,269,q),
(284,269,l),
(286,219,o),
(360,160,o),
(416,160,qs)
);
}
);
userData = {
assembly = "PUSHB[ ]	/* 6 values pushed */
53 1 6 10 1 76
MPPEM[ ]	/* MeasurePixelPerEm */
PUSHB[ ]	/* 1 value pushed */
9
LT[ ]	/* LessThan */
IF[ ]	/* If */
NPUSHB[ ]	/* 62 values pushed */
0 7 6 4 9 7 114 0 4 5 6 4 5 126 0 8 0 9 10 8 9 103 0 10 0 6 7 10 6 105 0 5 14 1 11 3 5 11 105 0 2 2 0 97 0 0 0 39 77 13 1 3 3 1 98 12 1 1 1 40 1 78
ELSE[ ]	/* Else */
NPUSHB[ ]	/* 63 values pushed */
0 7 6 4 6 7 4 128 0 4 5 6 4 5 126 0 8 0 9 10 8 9 103 0 10 0 6 7 10 6 105 0 5 14 1 11 3 5 11 105 0 2 2 0 97 0 0 0 39 77 13 1 3 3 1 98 12 1 1 1 40 1 78
EIF[ ]	/* EndIf */
NPUSHB[ ]	/* 38 values pushed */
32 32 16 16 0 0 32 62 32 61 57 55 52 51 50 49 48 47 45 43 39 37 35 34 16 31 16 30 24 22 0 15 0 14 38 15 8 23
CALL[ ]	/* CallFunction */";
};
width = 790;
}
);
note = uni2784;
unicode = 10116;
},
{
glyphname = uni2785;
layers = (
{
layerId = m01;
shapes = (
{
closed = 1;
nodes = (
(511,-12,o),
(678,85,o),
(775,252,o),
(775,350,qs),
(775,448,o),
(678,615,o),
(511,712,o),
(413,712,qs),
(315,712,o),
(148,615,o),
(51,448,o),
(51,350,qs),
(51,252,o),
(148,85,o),
(315,-12,o),
(413,-12,qs)
);
},
{
closed = 1;
nodes = (
(331,53,o),
(195,131,o),
(117,267,o),
(117,350,qs),
(117,433,o),
(195,569,o),
(331,647,o),
(413,647,qs),
(496,647,o),
(632,569,o),
(710,433,o),
(710,350,qs),
(710,267,o),
(632,131,o),
(496,53,o),
(413,53,qs)
);
},
{
closed = 1;
nodes = (
(391,229,o),
(361,261,o),
(361,286,qs),
(361,309,o),
(392,340,o),
(414,340,qs),
(437,340,o),
(469,310,o),
(469,284,qs),
(469,258,o),
(436,229,o),
(416,229,qs)
);
},
{
closed = 1;
nodes = (
(474,165,o),
(540,237,o),
(540,287,qs),
(540,334,o),
(481,403,o),
(435,403,qs),
(408,403,o),
(364,376,o),
(354,357,q),
(356,474,o),
(417,474,qs),
(456,474,o),
(466,429,q),
(534,429,l),
(532,473,o),
(468,535,o),
(417,535,qs),
(347,535,o),
(279,421,o),
(279,339,qs),
(279,264,o),
(348,165,o),
(420,165,qs)
);
}
);
userData = {
assembly = "NPUSHB[ ]	/* 103 values pushed */
57 1 4 9 1 76 0 7 8 9 8 7 9 128 0 6 0 8 7 6 8 105 0 9 0 4 5 9 4 105 13 1 5 14 1 10 3 5 10 105 0 2 2 0 97 0 0 0 39 77 12 1 3 3 1 97 11 1 1 1 40 1 78 44 44 32 32 16 16 0 0 44 66 44 65 61 59 56 54 53 52 50 48 32 43 32 42 38 36 16 31 16 30 24 22 0 15 0 14 38 15 8 23
CALL[ ]	/* CallFunction */";
};
width = 790;
}
);
note = uni2785;
unicode = 10117;
},
{
glyphname = uni2786;
layers = (
{
layerId = m01;
shapes = (
{
closed = 1;
nodes = (
(511,-12,o),
(678,85,o),
(775,252,o),
(775,350,qs),
(775,448,o),
(678,615,o),
(511,712,o),
(413,712,qs),
(315,712,o),
(148,615,o),
(51,448,o),
(51,350,qs),
(51,252,o),
(148,85,o),
(315,-12,o),
(413,-12,qs)
);
},
{
closed = 1;
nodes = (
(409,167,l),
(549,471,l),
(549,524,l),
(282,524,l),
(282,460,l),
(469,460,l),
(331,167,l)
);
},
{
closed = 1;
nodes = (
(331,53,o),
(195,131,o),
(117,267,o),
(117,350,qs),
(117,433,o),
(195,569,o),
(331,647,o),
(413,647,qs),
(496,647,o),
(632,569,o),
(710,433,o),
(710,350,qs),
(710,267,o),
(632,131,o),
(496,53,o),
(413,53,qs)
);
}
);
userData = {
assembly = "NPUSHB[ ]	/* 69 values pushed */
20 1 2 3 1 76 0 4 2 6 2 4 6 128 0 3 0 2 4 3 2 103 0 5 5 0 97 0 0 0 39 77 8 1 6 6 1 97 7 1 1 1 40 1 78 23 23 0 0 23 38 23 37 31 29 22 21 19 18 17 16 0 15 0 14 38 9 8 23
CALL[ ]	/* CallFunction */";
};
width = 790;
}
);
note = uni2786;
unicode = 10118;
},
{
glyphname = uni2787;
layers = (
{
layerId = m01;
shapes = (
{
closed = 1;
nodes = (
(511,-12,o),
(678,85,o),
(775,252,o),
(775,350,qs),
(775,448,o),
(678,615,o),
(511,712,o),
(413,712,qs),
(315,712,o),
(148,615,o),
(51,448,o),
(51,350,qs),
(51,252,o),
(148,85,o),
(315,-12,o),
(413,-12,qs)
);
},
{
closed = 1;
nodes = (
(360,227,o),
(360,279,qs),
(360,305,o),
(390,331,o),
(415,331,qs),
(439,331,o),
(467,304,o),
(467,279,qs),
(467,254,o),
(439,227,o),
(415,227,qs)
);
},
{
closed = 1;
nodes = (
(331,53,o),
(195,131,o),
(117,267,o),
(117,350,qs),
(117,433,o),
(195,569,o),
(331,647,o),
(413,647,qs),
(496,647,o),
(632,568,o),
(710,432,o),
(710,350,qs),
(710,268,o),
(632,132,o),
(496,53,o),
(413,53,qs)
);
},
{
closed = 1;
nodes = (
(467,165,o),
(541,221,o),
(541,272,qs),
(541,304,o),
(513,352,o),
(485,364,q),
(506,374,o),
(532,414,o),
(532,439,qs),
(532,485,o),
(463,535,o),
(414,535,qs),
(361,535,o),
(294,484,o),
(294,439,qs),
(294,391,o),
(342,364,q),
(314,352,o),
(286,303,o),
(286,272,qs),
(286,223,o),
(362,165,o),
(414,165,qs)
);
},
{
closed = 1;
nodes = (
(393,385,o),
(369,409,o),
(369,429,qs),
(369,475,o),
(414,475,qs),
(435,475,o),
(458,451,o),
(458,429,qs),
(458,408,o),
(435,385,o),
(414,385,qs)
);
}
);
userData = {
assembly = "NPUSHB[ ]	/* 99 values pushed */
59 48 2 2 9 1 76 0 6 0 8 9 6 8 105 14 1 9 0 2 3 9 2 105 11 1 3 13 1 7 5 3 7 105 0 4 4 0 97 0 0 0 39 77 12 1 5 5 1 97 10 1 1 1 40 1 78 66 66 43 43 27 27 16 16 0 0 66 76 66 75 72 70 43 65 43 64 54 52 27 42 27 41 35 33 16 26 16 25 22 20 0 15 0 14 38 15 8 23
CALL[ ]	/* CallFunction */";
};
width = 790;
}
);
note = uni2787;
unicode = 10119;
},
{
glyphname = uni2788;
layers = (
{
layerId = m01;
shapes = (
{
closed = 1;
nodes = (
(511,-12,o),
(678,85,o),
(775,252,o),
(775,350,qs),
(775,448,o),
(678,615,o),
(511,712,o),
(413,712,qs),
(315,712,o),
(148,615,o),
(51,448,o),
(51,350,qs),
(51,252,o),
(148,85,o),
(315,-12,o),
(413,-12,qs)
);
},
{
closed = 1;
nodes = (
(331,53,o),
(195,131,o),
(116,267,o),
(116,350,qs),
(116,433,o),
(195,569,o),
(331,647,o),
(413,647,qs),
(496,647,o),
(632,569,o),
(710,433,o),
(710,350,qs),
(710,267,o),
(632,131,o),
(496,53,o),
(413,53,qs)
);
},
{
closed = 1;
nodes = (
(477,165,o),
(546,276,o),
(546,361,qs),
(546,434,o),
(479,535,o),
(406,535,qs),
(353,535,o),
(286,463,o),
(286,413,qs),
(286,376,o),
(318,324,o),
(366,297,o),
(391,297,qs),
(418,297,o),
(460,323,o),
(472,343,q),
(470,226,o),
(409,226,qs),
(389,226,o),
(365,248,o),
(360,271,q),
(292,271,l),
(294,228,o),
(356,165,o),
(408,165,qs)
);
},
{
closed = 1;
nodes = (
(387,360,o),
(357,392,o),
(357,416,qs),
(357,440,o),
(388,471,o),
(410,471,qs),
(434,471,o),
(465,439,o),
(465,414,qs),
(465,391,o),
(434,360,o),
(411,360,qs)
);
}
);
userData = {
assembly = "PUSHB[ ]	/* 6 values pushed */
40 1 6 10 1 76
MPPEM[ ]	/* MeasurePixelPerEm */
PUSHB[ ]	/* 1 value pushed */
29
LT[ ]	/* LessThan */
IF[ ]	/* If */
NPUSHB[ ]	/* 56 values pushed */
0 4 6 5 5 4 114 0 7 0 9 10 7 9 105 14 1 10 0 6 4 10 6 105 0 5 13 1 8 3 5 8 106 0 2 2 0 97 0 0 0 39 77 12 1 3 3 1 97 11 1 1 1 40 1 78
ELSE[ ]	/* Else */
NPUSHB[ ]	/* 57 values pushed */
0 4 6 5 6 4 5 128 0 7 0 9 10 7 9 105 14 1 10 0 6 4 10 6 105 0 5 13 1 8 3 5 8 106 0 2 2 0 97 0 0 0 39 77 12 1 3 3 1 97 11 1 1 1 40 1 78
EIF[ ]	/* EndIf */
NPUSHB[ ]	/* 40 values pushed */
57 57 32 32 16 16 0 0 57 68 57 67 63 61 32 56 32 55 51 49 44 42 39 37 35 34 16 31 16 30 24 22 0 15 0 14 38 15 8 23
CALL[ ]	/* CallFunction */";
};
width = 790;
}
);
note = uni2788;
unicode = 10120;
},
{
glyphname = uni278A;
layers = (
{
layerId = m01;
shapes = (
{
closed = 1;
nodes = (
(511,-12,o),
(678,85,o),
(775,252,o),
(775,350,qs),
(775,448,o),
(678,615,o),
(511,712,o),
(413,712,qs),
(315,712,o),
(148,615,o),
(51,448,o),
(51,350,qs),
(51,252,o),
(148,85,o),
(315,-12,o),
(413,-12,qs)
);
},
{
closed = 1;
nodes = (
(300,241,l),
(390,241,l),
(390,449,l),
(304,432,l),
(304,491,l),
(422,533,l),
(461,533,l),
(461,241,l),
(542,241,l),
(542,176,l),
(300,176,l)
);
}
);
userData = {
assembly = "NPUSHB[ ]	/* 62 values pushed */
23 22 21 3 2 3 1 76 4 1 2 3 5 3 2 5 128 0 3 3 0 97 0 0 0 39 77 7 1 5 5 1 97 6 1 1 1 40 1 78 16 16 0 0 16 26 16 26 25 24 20 19 18 17 0 15 0 14 38 8 8 23
CALL[ ]	/* CallFunction */";
};
width = 790;
}
);
note = uni278A;
unicode = 10122;
},
{
glyphname = uni278B;
layers = (
{
layerId = m01;
shapes = (
{
closed = 1;
nodes = (
(511,-12,o),
(678,85,o),
(775,252,o),
(775,350,qs),
(775,448,o),
(678,615,o),
(511,712,o),
(413,712,qs),
(315,712,o),
(148,615,o),
(51,448,o),
(51,350,qs),
(51,252,o),
(148,85,o),
(315,-12,o),
(413,-12,qs)
);
},
{
closed = 1;
nodes = (
(289,228,l),
(394,336,ls),
(426,368,o),
(460,409,o),
(460,429,qs),
(460,451,o),
(435,476,o),
(413,476,qs),
(388,476,o),
(362,443,o),
(362,419,q),
(289,419,l),
(290,479,o),
(359,540,o),
(415,540,qs),
(469,540,o),
(533,481,o),
(533,432,qs),
(533,396,o),
(489,336,o),
(448,296,qs),
(393,241,l),
(541,241,l),
(541,176,l),
(289,176,l)
);
}
);
userData = {
assembly = "PUSHB[ ]	/* 6 values pushed */
39 1 6 2 1 76
MPPEM[ ]	/* MeasurePixelPerEm */
PUSHB[ ]	/* 1 value pushed */
25
LT[ ]	/* LessThan */
IF[ ]	/* If */
NPUSHB[ ]	/* 41 values pushed */
0 4 5 2 5 4 2 128 0 3 3 0 97 0 0 0 39 77 0 2 2 5 97 0 5 5 36 77 8 1 6 6 1 98 7 1 1 1 40 1 78
ELSE[ ]	/* Else */
NPUSHB[ ]	/* 39 values pushed */
0 4 5 2 5 4 2 128 0 5 0 2 6 5 2 103 0 3 3 0 97 0 0 0 39 77 8 1 6 6 1 98 7 1 1 1 40 1 78
EIF[ ]	/* EndIf */
NPUSHB[ ]	/* 24 values pushed */
16 16 0 0 16 40 16 40 33 31 29 28 26 24 18 17 0 15 0 14 38 9 8 23
CALL[ ]	/* CallFunction */";
};
width = 790;
}
);
note = uni278B;
unicode = 10123;
},
{
glyphname = uni278C;
layers = (
{
layerId = m01;
shapes = (
{
closed = 1;
nodes = (
(511,-12,o),
(678,85,o),
(775,252,o),
(775,350,qs),
(775,448,o),
(678,615,o),
(511,712,o),
(413,712,qs),
(315,712,o),
(148,615,o),
(51,448,o),
(51,350,qs),
(51,252,o),
(148,85,o),
(315,-12,o),
(413,-12,qs)
);
},
{
closed = 1;
nodes = (
(355,158,o),
(283,221,o),
(284,280,q),
(356,280,l),
(356,252,o),
(389,223,o),
(414,223,qs),
(441,223,o),
(471,251,o),
(471,278,qs),
(471,304,o),
(438,332,o),
(414,332,qs),
(394,332,o),
(377,322,q),
(336,369,l),
(438,458,l),
(293,458,l),
(293,522,l),
(532,522,l),
(532,459,l),
(450,389,l),
(498,382,o),
(543,322,o),
(543,279,qs),
(543,224,o),
(472,158,o),
(414,158,qs)
);
}
);
userData = {
assembly = "NPUSHB[ ]	/* 80 values pushed */
22 1 3 2 27 21 2 4 3 28 1 6 4 3 76 0 3 0 6 5 3 6 103 0 4 0 5 7 4 5 105 0 2 2 0 97 0 0 0 39 77 9 1 7 7 1 97 8 1 1 1 40 1 78 16 16 0 0 16 43 16 42 40 39 37 35 31 29 26 25 24 23 0 15 0 14 38 10 8 23
CALL[ ]	/* CallFunction */";
};
width = 790;
}
);
note = uni278C;
unicode = 10124;
},
{
glyphname = uni278D;
layers = (
{
layerId = m01;
shapes = (
{
closed = 1;
nodes = (
(511,-12,o),
(678,85,o),
(775,252,o),
(775,350,qs),
(775,448,o),
(678,615,o),
(511,712,o),
(413,712,qs),
(315,712,o),
(148,615,o),
(51,448,o),
(51,350,qs),
(51,252,o),
(148,85,o),
(315,-12,o),
(413,-12,qs)
);
},
{
closed = 1;
nodes = (
(426,238,l),
(263,238,l),
(263,299,l),
(381,533,l),
(455,533,l),
(342,303,l),
(432,303,l),
(432,392,l),
(502,392,l),
(502,303,l),
(539,303,l),
(539,238,l),
(502,238,l),
(502,176,l),
(426,176,l)
);
}
);
userData = {
assembly = "PUSHB[ ]	/* 6 values pushed */
27 1 2 3 1 76
MPPEM[ ]	/* MeasurePixelPerEm */
PUSHB[ ]	/* 1 value pushed */
9
LT[ ]	/* LessThan */
IF[ ]	/* If */
NPUSHB[ ]	/* 45 values pushed */
0 4 6 3 6 4 114 5 1 3 2 6 3 2 126 7 1 2 8 8 2 112 0 6 6 0 97 0 0 0 39 77 10 1 8 8 1 98 9 1 1 1 40 1 78
ELSE[ ]	/* Else */
MPPEM[ ]	/* MeasurePixelPerEm */
PUSHB[ ]	/* 1 value pushed */
21
LT[ ]	/* LessThan */
IF[ ]	/* If */
NPUSHB[ ]	/* 46 values pushed */
0 4 6 3 6 4 3 128 5 1 3 2 6 3 2 126 7 1 2 8 8 2 112 0 6 6 0 97 0 0 0 39 77 10 1 8 8 1 98 9 1 1 1 40 1 78
ELSE[ ]	/* Else */
NPUSHB[ ]	/* 47 values pushed */
0 4 6 3 6 4 3 128 5 1 3 2 6 3 2 126 7 1 2 8 6 2 8 126 0 6 6 0 97 0 0 0 39 77 10 1 8 8 1 98 9 1 1 1 40 1 78
EIF[ ]	/* EndIf */
EIF[ ]	/* EndIf */
NPUSHB[ ]	/* 28 values pushed */
16 16 0 0 16 30 16 30 29 28 26 25 24 23 22 21 20 19 18 17 0 15 0 14 38 11 8 23
CALL[ ]	/* CallFunction */";
};
width = 790;
}
);
note = uni278D;
unicode = 10125;
},
{
glyphname = uni278E;
layers = (
{
layerId = m01;
shapes = (
{
closed = 1;
nodes = (
(511,-12,o),
(678,85,o),
(775,252,o),
(775,350,qs),
(775,448,o),
(678,615,o),
(511,712,o),
(413,712,qs),
(315,712,o),
(148,615,o),
(51,448,o),
(51,350,qs),
(51,252,o),
(148,85,o),
(315,-12,o),
(413,-12,qs)
);
},
{
closed = 1;
nodes = (
(360,160,o),
(286,219,o),
(284,269,q),
(357,269,l),
(362,248,o),
(395,225,o),
(416,225,qs),
(442,225,o),
(473,263,o),
(473,290,qs),
(473,317,o),
(443,352,o),
(417,352,qs),
(399,352,o),
(368,332,o),
(361,316,q),
(288,316,l),
(318,524,l),
(522,524,l),
(522,458,l),
(375,458,l),
(360,387,l),
(372,400,o),
(410,413,o),
(430,413,qs),
(486,413,o),
(545,342,o),
(545,291,qs),
(545,233,o),
(473,160,o),
(416,160,qs)
);
}
);
userData = {
assembly = "NPUSHB[ ]	/* 83 values pushed */
24 1 6 2 1 76 0 3 0 2 6 3 2 105 0 5 0 8 7 5 8 103 0 6 0 7 9 6 7 105 0 4 4 0 97 0 0 0 39 77 11 1 9 9 1 97 10 1 1 1 40 1 78 16 16 0 0 16 46 16 45 43 42 40 38 34 32 30 29 28 27 26 25 22 20 0 15 0 14 38 12 8 23
CALL[ ]	/* CallFunction */";
};
width = 790;
}
);
note = uni278E;
unicode = 10126;
},
{
glyphname = uni278F;
layers = (
{
layerId = m01;
shapes = (
{
closed = 1;
nodes = (
(511,-12,o),
(678,85,o),
(775,252,o),
(775,350,qs),
(775,448,o),
(678,615,o),
(511,712,o),
(413,712,qs),
(315,712,o),
(148,615,o),
(51,448,o),
(51,350,qs),
(51,252,o),
(148,85,o),
(315,-12,o),
(413,-12,qs)
);
},
{
closed = 1;
nodes = (
(436,229,o),
(469,258,o),
(469,284,qs),
(469,310,o),
(437,340,o),
(414,340,qs),
(392,340,o),
(361,309,o),
(361,286,qs),
(361,261,o),
(391,229,o),
(416,229,qs)
);
},
{
closed = 1;
nodes = (
(348,165,o),
(279,264,o),
(279,339,qs),
(279,421,o),
(347,535,o),
(417,535,qs),
(468,535,o),
(532,473,o),
(534,429,q),
(466,429,l),
(456,474,o),
(417,474,qs),
(356,474,o),
(354,357,q),
(364,376,o),
(408,403,o),
(435,403,qs),
(481,403,o),
(540,334,o),
(540,287,qs),
(540,237,o),
(474,165,o),
(420,165,qs)
);
}
);
userData = {
assembly = "PUSHB[ ]	/* 6 values pushed */
36 1 2 4 1 76
MPPEM[ ]	/* MeasurePixelPerEm */
PUSHB[ ]	/* 1 value pushed */
23
LT[ ]	/* LessThan */
IF[ ]	/* If */
NPUSHB[ ]	/* 49 values pushed */
0 6 5 4 5 6 114 0 2 10 1 3 8 2 3 105 0 7 7 0 97 0 0 0 39 77 0 4 4 5 97 0 5 5 36 77 11 1 8 8 1 97 9 1 1 1 40 1 78
ELSE[ ]	/* Else */
MPPEM[ ]	/* MeasurePixelPerEm */
PUSHB[ ]	/* 1 value pushed */
29
LT[ ]	/* LessThan */
IF[ ]	/* If */
NPUSHB[ ]	/* 47 values pushed */
0 6 5 4 5 6 114 0 5 0 4 2 5 4 105 0 2 10 1 3 8 2 3 105 0 7 7 0 97 0 0 0 39 77 11 1 8 8 1 97 9 1 1 1 40 1 78
ELSE[ ]	/* Else */
NPUSHB[ ]	/* 48 values pushed */
0 6 5 4 5 6 4 128 0 5 0 4 2 5 4 105 0 2 10 1 3 8 2 3 105 0 7 7 0 97 0 0 0 39 77 11 1 8 8 1 97 9 1 1 1 40 1 78
EIF[ ]	/* EndIf */
EIF[ ]	/* EndIf */
NPUSHB[ ]	/* 32 values pushed */
28 28 16 16 0 0 28 50 28 49 45 43 41 40 39 37 34 32 16 27 16 26 22 20 0 15 0 14 38 12 8 23
CALL[ ]	/* CallFunction */";
};
width = 790;
}
);
note = uni278F;
unicode = 10127;
},
{
glyphname = uni2790;
layers = (
{
layerId = m01;
shapes = (
{
closed = 1;
nodes = (
(511,-12,o),
(678,85,o),
(775,252,o),
(775,350,qs),
(775,448,o),
(678,615,o),
(511,712,o),
(413,712,qs),
(315,712,o),
(148,615,o),
(51,448,o),
(51,350,qs),
(51,252,o),
(148,85,o),
(315,-12,o),
(413,-12,qs)
);
},
{
closed = 1;
nodes = (
(468,460,l),
(282,460,l),
(282,524,l),
(549,524,l),
(549,471,l),
(409,167,l),
(331,167,l)
);
}
);
userData = {
assembly = "NPUSHB[ ]	/* 57 values pushed */
17 1 3 2 1 76 0 3 2 4 2 3 4 128 0 2 2 0 97 0 0 0 39 77 6 1 4 4 1 98 5 1 1 1 40 1 78 16 16 0 0 16 22 16 22 21 20 19 18 0 15 0 14 38 7 8 23
CALL[ ]	/* CallFunction */";
};
width = 790;
}
);
note = uni2790;
unicode = 10128;
},
{
glyphname = uni2791;
layers = (
{
layerId = m01;
shapes = (
{
closed = 1;
nodes = (
(511,-12,o),
(678,85,o),
(775,252,o),
(775,350,qs),
(775,448,o),
(678,615,o),
(511,712,o),
(413,712,qs),
(315,712,o),
(148,615,o),
(51,448,o),
(51,350,qs),
(51,252,o),
(148,85,o),
(315,-12,o),
(413,-12,qs)
);
},
{
closed = 1;
nodes = (
(362,165,o),
(286,223,o),
(286,272,qs),
(286,303,o),
(314,352,o),
(342,364,q),
(294,391,o),
(294,439,qs),
(294,484,o),
(361,535,o),
(414,535,qs),
(463,535,o),
(532,485,o),
(532,439,qs),
(532,414,o),
(506,374,o),
(485,364,q),
(513,352,o),
(541,304,o),
(541,272,qs),
(541,221,o),
(467,165,o),
(414,165,qs)
);
},
{
closed = 1;
nodes = (
(439,227,o),
(467,254,o),
(467,279,qs),
(467,304,o),
(439,331,o),
(415,331,qs),
(390,331,o),
(360,305,o),
(360,279,qs),
(360,227,o),
(415,227,qs)
);
},
{
closed = 1;
nodes = (
(435,385,o),
(458,408,o),
(458,429,qs),
(458,451,o),
(435,475,o),
(414,475,qs),
(369,475,o),
(369,429,qs),
(369,409,o),
(393,385,o),
(414,385,qs)
);
}
);
userData = {
assembly = "PUSHB[ ]	/* 7 values pushed */
32 21 2 4 7 1 76
MPPEM[ ]	/* MeasurePixelPerEm */
PUSHB[ ]	/* 1 value pushed */
23
LT[ ]	/* LessThan */
IF[ ]	/* If */
NPUSHB[ ]	/* 43 values pushed */
0 4 10 1 5 3 4 5 105 0 2 2 0 97 0 0 0 39 77 11 1 7 7 6 97 0 6 6 36 77 9 1 3 3 1 97 8 1 1 1 40 1 78
ELSE[ ]	/* Else */
NPUSHB[ ]	/* 41 values pushed */
0 6 11 1 7 4 6 7 105 0 4 10 1 5 3 4 5 105 0 2 2 0 97 0 0 0 39 77 9 1 3 3 1 97 8 1 1 1 40 1 78
EIF[ ]	/* EndIf */
NPUSHB[ ]	/* 34 values pushed */
50 50 39 39 16 16 0 0 50 60 50 59 55 53 39 49 39 48 44 42 16 38 16 37 28 26 0 15 0 14 38 12 8 23
CALL[ ]	/* CallFunction */";
};
width = 790;
}
);
note = uni2791;
unicode = 10129;
},
{
glyphname = uni2792;
layers = (
{
layerId = m01;
shapes = (
{
closed = 1;
nodes = (
(511,-12,o),
(678,85,o),
(775,252,o),
(775,350,qs),
(775,448,o),
(678,615,o),
(511,712,o),
(413,712,qs),
(315,712,o),
(148,615,o),
(51,448,o),
(51,350,qs),
(51,252,o),
(148,85,o),
(315,-12,o),
(413,-12,qs)
);
},
{
closed = 1;
nodes = (
(356,165,o),
(294,228,o),
(292,271,q),
(360,271,l),
(365,248,o),
(389,226,o),
(409,226,qs),
(470,226,o),
(472,343,q),
(460,323,o),
(418,297,o),
(391,297,qs),
(366,297,o),
(318,324,o),
(286,376,o),
(286,413,qs),
(286,463,o),
(353,535,o),
(406,535,qs),
(479,535,o),
(546,434,o),
(546,361,qs),
(546,276,o),
(477,165,o),
(408,165,qs)
);
},
{
closed = 1;
nodes = (
(434,360,o),
(465,391,o),
(465,414,qs),
(465,439,o),
(434,471,o),
(410,471,qs),
(388,471,o),
(357,440,o),
(357,416,qs),
(357,392,o),
(387,360,o),
(411,360,qs)
);
}
);
userData = {
assembly = "NPUSHB[ ]	/* 86 values pushed */
31 1 3 8 1 76 0 5 3 4 3 5 4 128 0 7 11 1 8 3 7 8 105 0 3 0 4 6 3 4 105 0 2 2 0 97 0 0 0 39 77 10 1 6 6 1 97 9 1 1 1 40 1 78 41 41 16 16 0 0 41 52 41 51 47 45 16 40 16 39 37 36 34 32 29 27 22 20 0 15 0 14 38 12 8 23
CALL[ ]	/* CallFunction */";
};
width = 790;
}
);
note = uni2792;
unicode = 10130;
},
{
glyphname = uni24EA.solid;
layers = (
{
layerId = m01;
shapes = (
{
closed = 1;
nodes = (
(511,-12,o),
(678,85,o),
(775,252,o),
(775,350,qs),
(775,448,o),
(678,615,o),
(511,712,o),
(413,712,qs),
(315,712,o),
(148,615,o),
(51,448,o),
(51,350,qs),
(51,252,o),
(148,85,o),
(315,-12,o),
(413,-12,qs)
);
},
{
closed = 1;
nodes = (
(344,165,o),
(311,216,qs),
(279,264,o),
(279,350,qs),
(279,436,o),
(311,484,qs),
(344,535,o),
(414,535,qs),
(483,535,o),
(516,485,qs),
(548,435,o),
(548,350,qs),
(548,265,o),
(516,215,qs),
(483,165,o),
(414,165,qs)
);
},
{
closed = 1;
nodes = (
(444,232,o),
(457,263,qs),
(472,295,o),
(472,350,qs),
(472,406,o),
(457,437,qs),
(444,468,o),
(414,468,qs),
(384,468,o),
(369,437,qs),
(355,408,o),
(355,350,qs),
(355,292,o),
(369,263,qs),
(384,232,o),
(414,232,qs)
);
}
);
userData = {
assembly = "NPUSHB[ ]	/* 58 values pushed */
0 4 8 1 5 3 4 5 105 0 2 2 0 97 0 0 0 39 77 7 1 3 3 1 97 6 1 1 1 40 1 78 32 32 16 16 0 0 32 47 32 46 40 38 16 31 16 30 24 22 0 15 0 14 38 9 8 23
CALL[ ]	/* CallFunction */";
};
width = 790;
}
);
note = uni24EA.solid;
},
{
glyphname = zero.dnom;
layers = (
{
layerId = m01;
shapes = (
{
closed = 1;
nodes = (
(173,-5,o),
(250,76,o),
(282,188,o),
(282,237,qs),
(282,293,o),
(230,358,o),
(175,358,qs),
(114,358,o),
(37,279,o),
(4,169,o),
(4,118,qs),
(4,61,o),
(55,-5,o),
(111,-5,qs)
);
},
{
closed = 1;
nodes = (
(77,61,o),
(77,128,qs),
(77,156,o),
(94,233,o),
(132,292,o),
(163,292,qs),
(207,292,o),
(207,228,qs),
(207,198,o),
(190,120,o),
(152,61,o),
(123,61,qs)
);
}
);
userData = {
assembly = "NPUSHB[ ]	/* 39 values pushed */
0 0 0 2 3 0 2 105 5 1 3 3 1 97 4 1 1 1 34 1 78 14 14 0 0 14 25 14 24 20 18 0 13 0 12 37 6 8 23
CALL[ ]	/* CallFunction */";
};
width = 311;
}
);
note = zero.dnom;
},
{
glyphname = one.dnom;
layers = (
{
layerId = m01;
shapes = (
{
closed = 1;
nodes = (
(232,0,l),
(244,64,l),
(163,64,l),
(214,353,l),
(176,353,l),
(48,309,l),
(38,251,l),
(130,272,l),
(93,64,l),
(1,64,l),
(-10,0,l)
);
}
);
userData = {
assembly = "NPUSHB[ ]	/* 31 values pushed */
3 2 2 0 1 1 76 0 1 0 1 133 2 1 0 0 3 96 0 3 3 34 3 78 17 17 20 16 4 8 26
CALL[ ]	/* CallFunction */";
};
width = 303;
}
);
note = one.dnom;
},
{
glyphname = two.dnom;
layers = (
{
layerId = m01;
shapes = (
{
closed = 1;
nodes = (
(228,0,l),
(239,64,l),
(94,64,l),
(156,116,l),
(171,129,ls),
(218,168,o),
(268,230,o),
(268,269,qs),
(268,307,o),
(219,358,o),
(168,358,qs),
(113,358,o),
(36,297,o),
(23,239,q),
(95,239,l),
(100,263,o),
(131,296,o),
(155,296,qs),
(173,296,o),
(194,277,o),
(194,260,qs),
(194,236,o),
(150,190,o),
(95,142,qs),
(-10,51,l),
(-19,0,l)
);
}
);
userData = {
assembly = "NPUSHB[ ]	/* 35 values pushed */
0 1 0 3 0 1 3 128 0 2 0 0 1 2 0 105 0 3 3 4 95 0 4 4 34 4 78 17 23 34 18 38 5 8 27
CALL[ ]	/* CallFunction */";
};
width = 299;
}
);
note = two.dnom;
},
{
glyphname = three.dnom;
layers = (
{
layerId = m01;
shapes = (
{
closed = 1;
nodes = (
(154,-5,o),
(222,33,o),
(258,97,o),
(258,135,qs),
(258,169,o),
(218,215,o),
(183,221,q),
(277,294,l),
(287,353,l),
(54,353,l),
(43,289,l),
(181,289,l),
(67,201,l),
(99,154,l),
(120,165,o),
(138,165,qs),
(160,165,o),
(186,145,o),
(186,125,qs),
(186,97,o),
(151,59,o),
(119,59,qs),
(96,59,o),
(71,81,o),
(71,100,qs),
(71,108,o),
(72,111,q),
(1,111,l),
(-1,95,o),
(-1,87,qs),
(-1,43,o),
(57,-5,o),
(108,-5,qs)
);
}
);
userData = {
assembly = "NPUSHB[ ]	/* 16 values pushed */
25 19 2 2 3 18 1 0 2 7 2 2 1 0 3 76
MPPEM[ ]	/* MeasurePixelPerEm */
PUSHB[ ]	/* 1 value pushed */
11
LT[ ]	/* LessThan */
IF[ ]	/* If */
NPUSHB[ ]	/* 33 values pushed */
0 2 3 0 3 2 114 0 0 1 1 0 112 0 4 0 3 2 4 3 103 0 1 1 5 98 6 1 5 5 34 5 78
ELSE[ ]	/* Else */
MPPEM[ ]	/* MeasurePixelPerEm */
PUSHB[ ]	/* 1 value pushed */
25
LT[ ]	/* LessThan */
IF[ ]	/* If */
NPUSHB[ ]	/* 34 values pushed */
0 2 3 0 3 2 0 128 0 0 1 1 0 112 0 4 0 3 2 4 3 103 0 1 1 5 98 6 1 5 5 34 5 78
ELSE[ ]	/* Else */
NPUSHB[ ]	/* 35 values pushed */
0 2 3 0 3 2 0 128 0 0 1 3 0 1 126 0 4 0 3 2 4 3 103 0 1 1 5 98 6 1 5 5 34 5 78
EIF[ ]	/* EndIf */
EIF[ ]	/* EndIf */
NPUSHB[ ]	/* 14 values pushed */
0 0 0 32 0 31 17 19 36 36 20 7 8 27
CALL[ ]	/* CallFunction */";
};
width = 305;
}
);
note = three.dnom;
},
{
glyphname = four.dnom;
layers = (
{
layerId = m01;
shapes = (
{
closed = 1;
nodes = (
(205,0,l),
(216,64,l),
(256,64,l),
(268,129,l),
(228,129,l),
(243,213,l),
(174,213,l),
(160,129,l),
(72,129,l),
(222,353,l),
(149,353,l),
(-9,120,l),
(-20,64,l),
(144,64,l),
(132,0,l)
);
}
);
userData = {
assembly = "MPPEM[ ]	/* MeasurePixelPerEm */
PUSHB[ ]	/* 1 value pushed */
15
LT[ ]	/* LessThan */
IF[ ]	/* If */
NPUSHB[ ]	/* 27 values pushed */
0 1 3 1 133 0 3 2 2 3 112 4 1 2 5 1 0 6 2 0 104 0 6 6 34 6 78
ELSE[ ]	/* Else */
NPUSHB[ ]	/* 26 values pushed */
0 1 3 1 133 0 3 2 3 133 4 1 2 5 1 0 6 2 0 104 0 6 6 34 6 78
EIF[ ]	/* EndIf */
NPUSHB[ ]	/* 10 values pushed */
17 17 17 17 17 18 16 7 8 29
CALL[ ]	/* CallFunction */";
};
width = 297;
}
);
note = four.dnom;
},
{
glyphname = five.dnom;
layers = (
{
layerId = m01;
shapes = (
{
closed = 1;
nodes = (
(145,-5,o),
(216,36,o),
(257,107,o),
(257,150,qs),
(257,192,o),
(207,246,o),
(160,246,qs),
(124,246,o),
(94,226,q),
(117,288,l),
(260,288,l),
(272,353,l),
(73,353,l),
(6,147,l),
(75,147,l),
(99,185,o),
(139,185,qs),
(161,185,o),
(186,159,o),
(186,137,qs),
(186,105,o),
(145,59,o),
(116,59,qs),
(94,59,o),
(66,83,o),
(66,103,q),
(-6,103,l),
(-11,54,o),
(47,-5,o),
(104,-5,qs)
);
}
);
userData = {
assembly = "PUSHB[ ]	/* 6 values pushed */
20 1 2 6 1 76
MPPEM[ ]	/* MeasurePixelPerEm */
PUSHB[ ]	/* 1 value pushed */
29
LT[ ]	/* LessThan */
IF[ ]	/* If */
NPUSHB[ ]	/* 42 values pushed */
0 3 2 0 2 3 0 128 0 0 1 1 0 112 0 4 0 5 6 4 5 103 0 6 0 2 3 6 2 105 0 1 1 7 98 8 1 7 7 34 7 78
ELSE[ ]	/* Else */
NPUSHB[ ]	/* 43 values pushed */
0 3 2 0 2 3 0 128 0 0 1 2 0 1 126 0 4 0 5 6 4 5 103 0 6 0 2 3 6 2 105 0 1 1 7 98 8 1 7 7 34 7 78
EIF[ ]	/* EndIf */
NPUSHB[ ]	/* 16 values pushed */
0 0 0 29 0 28 34 17 17 17 36 34 18 9 8 29
CALL[ ]	/* CallFunction */";
};
width = 299;
}
);
note = five.dnom;
},
{
glyphname = six.dnom;
layers = (
{
layerId = m01;
shapes = (
{
closed = 1;
nodes = (
(153,-5,o),
(218,36,o),
(256,103,o),
(256,139,qs),
(256,181,o),
(204,231,o),
(166,231,qs),
(145,231,o),
(102,212,o),
(86,196,q),
(96,242,o),
(137,296,o),
(166,296,qs),
(203,296,o),
(205,255,q),
(273,255,l),
(275,301,o),
(225,358,o),
(176,358,qs),
(122,358,o),
(44,283,o),
(4,171,o),
(4,118,qs),
(4,62,o),
(58,-5,o),
(114,-5,qs)
);
},
{
closed = 1;
nodes = (
(102,59,o),
(78,83,o),
(78,102,qs),
(78,129,o),
(115,168,o),
(141,168,qs),
(161,168,o),
(185,145,o),
(185,126,qs),
(185,98,o),
(149,59,o),
(122,59,qs)
);
}
);
userData = {
assembly = "PUSHB[ ]	/* 6 values pushed */
15 1 5 3 1 76
MPPEM[ ]	/* MeasurePixelPerEm */
PUSHB[ ]	/* 1 value pushed */
31
LT[ ]	/* LessThan */
IF[ ]	/* If */
NPUSHB[ ]	/* 36 values pushed */
0 1 2 3 2 1 114 0 0 0 2 1 0 2 105 0 3 0 5 6 3 5 105 8 1 6 6 4 97 7 1 4 4 34 4 78
ELSE[ ]	/* Else */
NPUSHB[ ]	/* 37 values pushed */
0 1 2 3 2 1 3 128 0 0 0 2 1 0 2 105 0 3 0 5 6 3 5 105 8 1 6 6 4 97 7 1 4 4 34 4 78
EIF[ ]	/* EndIf */
NPUSHB[ ]	/* 21 values pushed */
26 26 0 0 26 37 26 36 32 30 0 25 0 24 36 33 18 37 9 8 26
CALL[ ]	/* CallFunction */";
};
width = 300;
}
);
note = six.dnom;
},
{
glyphname = seven.dnom;
layers = (
{
layerId = m01;
shapes = (
{
closed = 1;
nodes = (
(100,-1,l),
(292,302,l),
(301,352,l),
(40,352,l),
(29,289,l),
(210,289,l),
(23,-1,l)
);
}
);
userData = {
assembly = "NPUSHB[ ]	/* 20 values pushed */
0 1 0 0 2 1 0 103 0 2 2 34 2 78 18 17 16 3 8 25
CALL[ ]	/* CallFunction */";
};
width = 305;
}
);
note = seven.dnom;
},
{
glyphname = eight.dnom;
layers = (
{
layerId = m01;
shapes = (
{
closed = 1;
nodes = (
(170,-5,o),
(249,65,o),
(249,116,qs),
(249,169,o),
(204,190,q),
(231,202,o),
(267,245,o),
(267,276,qs),
(267,313,o),
(214,358,o),
(167,358,qs),
(108,358,o),
(30,299,o),
(30,251,qs),
(30,213,o),
(68,190,q),
(34,177,o),
(-6,120,o),
(-6,87,qs),
(-6,48,o),
(52,-5,o),
(105,-5,qs)
);
},
{
closed = 1;
nodes = (
(93,55,o),
(66,80,o),
(66,99,qs),
(66,125,o),
(106,157,o),
(131,157,qs),
(153,157,o),
(178,134,o),
(178,115,qs),
(178,87,o),
(140,55,o),
(115,55,qs)
);
},
{
closed = 1;
nodes = (
(122,211,o),
(100,231,o),
(100,249,qs),
(100,270,o),
(133,298,o),
(155,298,qs),
(173,298,o),
(195,277,o),
(195,261,qs),
(195,240,o),
(163,211,o),
(141,211,qs)
);
}
);
userData = {
assembly = "NPUSHB[ ]	/* 63 values pushed */
16 5 2 2 5 1 76 0 0 0 4 5 0 4 105 8 1 5 0 2 3 5 2 105 7 1 3 3 1 97 6 1 1 1 34 1 78 34 34 22 22 0 0 34 45 34 44 40 38 22 33 22 32 28 26 0 21 0 20 41 9 8 23
CALL[ ]	/* CallFunction */";
};
width = 295;
}
);
note = eight.dnom;
},
{
glyphname = nine.dnom;
layers = (
{
layerId = m01;
shapes = (
{
closed = 1;
nodes = (
(152,-5,o),
(230,70,o),
(271,182,o),
(271,235,qs),
(271,291,o),
(216,358,o),
(160,358,qs),
(121,358,o),
(56,317,o),
(18,251,o),
(18,216,qs),
(18,175,o),
(67,122,o),
(108,122,qs),
(130,122,o),
(173,141,o),
(189,157,q),
(179,111,o),
(139,57,o),
(110,57,qs),
(72,57,o),
(70,99,q),
(3,99,l),
(0,52,o),
(50,-5,o),
(98,-5,qs)
);
},
{
closed = 1;
nodes = (
(114,185,o),
(90,208,o),
(90,228,qs),
(90,254,o),
(126,294,o),
(152,294,qs),
(172,294,o),
(197,270,o),
(197,250,qs),
(197,224,o),
(160,185,o),
(134,185,qs)
);
}
);
userData = {
assembly = "PUSHB[ ]	/* 6 values pushed */
8 1 2 6 1 76
MPPEM[ ]	/* MeasurePixelPerEm */
PUSHB[ ]	/* 1 value pushed */
31
LT[ ]	/* LessThan */
IF[ ]	/* If */
NPUSHB[ ]	/* 36 values pushed */
0 0 2 1 1 0 114 0 3 0 5 6 3 5 105 8 1 6 0 2 0 6 2 105 0 1 1 4 98 7 1 4 4 34 4 78
ELSE[ ]	/* Else */
NPUSHB[ ]	/* 37 values pushed */
0 0 2 1 2 0 1 128 0 3 0 5 6 3 5 105 8 1 6 0 2 0 6 2 105 0 1 1 4 98 7 1 4 4 34 4 78
EIF[ ]	/* EndIf */
NPUSHB[ ]	/* 21 values pushed */
26 26 0 0 26 37 26 36 32 30 0 25 0 24 37 36 33 18 9 8 26
CALL[ ]	/* CallFunction */";
};
width = 299;
}
);
note = nine.dnom;
},
{
glyphname = zero.numr;
layers = (
{
layerId = m01;
shapes = (
{
closed = 1;
nodes = (
(234,342,o),
(311,422,o),
(343,533,o),
(343,583,qs),
(343,640,o),
(292,705,o),
(236,705,qs),
(175,705,o),
(98,625,o),
(65,514,o),
(65,465,qs),
(65,408,o),
(117,342,o),
(172,342,qs)
);
},
{
closed = 1;
nodes = (
(164,408,o),
(139,439,o),
(139,473,qs),
(139,502,o),
(155,580,o),
(193,639,o),
(224,639,qs),
(269,639,o),
(269,573,qs),
(269,543,o),
(252,466,o),
(214,408,o),
(184,408,qs)
);
}
);
userData = {
assembly = "NPUSHB[ ]	/* 38 values pushed */
5 1 3 4 1 1 3 1 101 0 2 2 0 97 0 0 0 33 2 78 14 14 0 0 14 26 14 25 20 18 0 13 0 12 37 6 8 23
CALL[ ]	/* CallFunction */";
};
width = 311;
}
);
note = zero.numr;
},
{
glyphname = one.numr;
layers = (
{
layerId = m01;
shapes = (
{
closed = 1;
nodes = (
(293,347,l),
(305,411,l),
(224,411,l),
(275,700,l),
(237,700,l),
(109,656,l),
(99,598,l),
(191,619,l),
(154,411,l),
(62,411,l),
(51,347,l)
);
}
);
userData = {
assembly = "NPUSHB[ ]	/* 28 values pushed */
3 2 2 0 1 1 76 2 1 0 0 3 0 3 100 0 1 1 33 1 78 17 17 20 16 4 8 26
CALL[ ]	/* CallFunction */";
};
width = 303;
}
);
note = one.numr;
},
{
glyphname = two.numr;
layers = (
{
layerId = m01;
shapes = (
{
closed = 1;
nodes = (
(289,347,l),
(300,411,l),
(155,411,l),
(217,463,l),
(232,476,ls),
(279,515,o),
(329,577,o),
(329,616,qs),
(329,654,o),
(280,705,o),
(229,705,qs),
(174,705,o),
(97,644,o),
(84,586,q),
(156,586,l),
(161,610,o),
(192,643,o),
(216,643,qs),
(234,643,o),
(255,624,o),
(255,607,qs),
(255,583,o),
(211,537,o),
(156,489,qs),
(51,398,l),
(42,347,l)
);
}
);
userData = {
assembly = "NPUSHB[ ]	/* 34 values pushed */
0 1 0 3 0 1 3 128 0 3 0 4 3 4 99 0 0 0 2 97 0 2 2 33 0 78 17 23 34 18 38 5 8 27
CALL[ ]	/* CallFunction */";
};
width = 299;
}
);
note = two.numr;
},
{
glyphname = three.numr;
layers = (
{
layerId = m01;
shapes = (
{
closed = 1;
nodes = (
(215,342,o),
(283,380,o),
(319,444,o),
(319,482,qs),
(319,516,o),
(279,562,o),
(244,568,q),
(338,641,l),
(348,700,l),
(115,700,l),
(104,636,l),
(242,636,l),
(128,548,l),
(160,501,l),
(181,512,o),
(199,512,qs),
(221,512,o),
(247,492,o),
(247,472,qs),
(247,444,o),
(212,406,o),
(180,406,qs),
(157,406,o),
(132,428,o),
(132,447,qs),
(132,455,o),
(133,458,q),
(62,458,l),
(60,442,o),
(60,434,qs),
(60,390,o),
(118,342,o),
(169,342,qs)
);
}
);
userData = {
assembly = "NPUSHB[ ]	/* 16 values pushed */
25 19 2 2 3 18 1 0 2 7 2 2 1 0 3 76
MPPEM[ ]	/* MeasurePixelPerEm */
PUSHB[ ]	/* 1 value pushed */
11
LT[ ]	/* LessThan */
IF[ ]	/* If */
NPUSHB[ ]	/* 32 values pushed */
0 2 3 0 3 2 114 0 0 1 1 0 112 0 1 6 1 5 1 5 102 0 3 3 4 95 0 4 4 33 3 78
ELSE[ ]	/* Else */
MPPEM[ ]	/* MeasurePixelPerEm */
PUSHB[ ]	/* 1 value pushed */
25
LT[ ]	/* LessThan */
IF[ ]	/* If */
NPUSHB[ ]	/* 33 values pushed */
0 2 3 0 3 2 0 128 0 0 1 1 0 112 0 1 6 1 5 1 5 102 0 3 3 4 95 0 4 4 33 3 78
ELSE[ ]	/* Else */
NPUSHB[ ]	/* 34 values pushed */
0 2 3 0 3 2 0 128 0 0 1 3 0 1 126 0 1 6 1 5 1 5 102 0 3 3 4 95 0 4 4 33 3 78
EIF[ ]	/* EndIf */
EIF[ ]	/* EndIf */
NPUSHB[ ]	/* 14 values pushed */
0 0 0 32 0 31 17 19 36 36 20 7 8 27
CALL[ ]	/* CallFunction */";
};
width = 305;
}
);
note = three.numr;
},
{
glyphname = four.numr;
layers = (
{
layerId = m01;
shapes = (
{
closed = 1;
nodes = (
(267,347,l),
(278,411,l),
(318,411,l),
(330,476,l),
(290,476,l),
(305,560,l),
(236,560,l),
(221,476,l),
(134,476,l),
(284,700,l),
(211,700,l),
(52,467,l),
(42,411,l),
(205,411,l),
(194,347,l)
);
}
);
userData = {
assembly = "MPPEM[ ]	/* MeasurePixelPerEm */
PUSHB[ ]	/* 1 value pushed */
15
LT[ ]	/* LessThan */
IF[ ]	/* If */
NPUSHB[ ]	/* 31 values pushed */
0 3 1 2 2 3 114 0 6 0 0 6 113 0 1 1 33 77 5 1 0 0 2 95 4 1 2 2 36 0 78
ELSE[ ]	/* Else */
MPPEM[ ]	/* MeasurePixelPerEm */
PUSHB[ ]	/* 1 value pushed */
19
LT[ ]	/* LessThan */
IF[ ]	/* If */
NPUSHB[ ]	/* 32 values pushed */
0 3 1 2 1 3 2 128 0 6 0 0 6 113 0 1 1 33 77 5 1 0 0 2 95 4 1 2 2 36 0 78
ELSE[ ]	/* Else */
MPPEM[ ]	/* MeasurePixelPerEm */
PUSHB[ ]	/* 1 value pushed */
25
LT[ ]	/* LessThan */
IF[ ]	/* If */
NPUSHB[ ]	/* 31 values pushed */
0 3 1 2 1 3 2 128 0 6 0 6 134 0 1 1 33 77 5 1 0 0 2 95 4 1 2 2 36 0 78
ELSE[ ]	/* Else */
NPUSHB[ ]	/* 29 values pushed */
0 3 1 2 1 3 2 128 0 6 0 6 134 4 1 2 5 1 0 6 2 0 104 0 1 1 33 1 78
EIF[ ]	/* EndIf */
EIF[ ]	/* EndIf */
EIF[ ]	/* EndIf */
NPUSHB[ ]	/* 10 values pushed */
17 17 17 17 17 18 16 7 8 29
CALL[ ]	/* CallFunction */";
};
width = 298;
}
);
note = four.numr;
},
{
glyphname = five.numr;
layers = (
{
layerId = m01;
shapes = (
{
closed = 1;
nodes = (
(208,342,o),
(278,383,o),
(318,454,o),
(318,497,qs),
(318,539,o),
(268,593,o),
(221,593,qs),
(185,593,o),
(155,573,q),
(178,635,l),
(322,635,l),
(333,700,l),
(134,700,l),
(67,494,l),
(136,494,l),
(160,532,o),
(201,532,qs),
(222,532,o),
(247,506,o),
(247,484,qs),
(247,451,o),
(207,406,o),
(177,406,qs),
(155,406,o),
(128,430,o),
(127,450,q),
(55,450,l),
(50,401,o),
(109,342,o),
(166,342,qs)
);
}
);
userData = {
assembly = "PUSHB[ ]	/* 6 values pushed */
20 1 2 6 1 76
MPPEM[ ]	/* MeasurePixelPerEm */
PUSHB[ ]	/* 1 value pushed */
29
LT[ ]	/* LessThan */
IF[ ]	/* If */
NPUSHB[ ]	/* 41 values pushed */
0 3 2 0 2 3 0 128 0 0 1 1 0 112 0 6 0 2 3 6 2 105 0 1 8 1 7 1 7 102 0 5 5 4 95 0 4 4 33 5 78
ELSE[ ]	/* Else */
NPUSHB[ ]	/* 42 values pushed */
0 3 2 0 2 3 0 128 0 0 1 2 0 1 126 0 6 0 2 3 6 2 105 0 1 8 1 7 1 7 102 0 5 5 4 95 0 4 4 33 5 78
EIF[ ]	/* EndIf */
NPUSHB[ ]	/* 16 values pushed */
0 0 0 29 0 28 34 17 17 17 36 34 18 9 8 29
CALL[ ]	/* CallFunction */";
};
width = 299;
}
);
note = five.numr;
},
{
glyphname = six.numr;
layers = (
{
layerId = m01;
shapes = (
{
closed = 1;
nodes = (
(214,342,o),
(279,383,o),
(317,450,o),
(317,486,qs),
(317,528,o),
(265,578,o),
(227,578,qs),
(206,578,o),
(162,559,o),
(146,543,q),
(156,589,o),
(197,643,o),
(226,643,qs),
(265,643,o),
(265,602,q),
(333,602,l),
(335,649,o),
(286,705,o),
(237,705,qs),
(183,705,o),
(105,630,o),
(65,518,o),
(65,465,qs),
(65,409,o),
(119,342,o),
(175,342,qs)
);
},
{
closed = 1;
nodes = (
(163,406,o),
(138,430,o),
(138,450,qs),
(138,476,o),
(176,515,o),
(201,515,qs),
(221,515,o),
(245,492,o),
(245,472,qs),
(245,446,o),
(209,406,o),
(183,406,qs)
);
}
);
userData = {
assembly = "PUSHB[ ]	/* 6 values pushed */
15 1 5 3 1 76
MPPEM[ ]	/* MeasurePixelPerEm */
PUSHB[ ]	/* 1 value pushed */
31
LT[ ]	/* LessThan */
IF[ ]	/* If */
NPUSHB[ ]	/* 35 values pushed */
0 1 2 3 2 1 114 0 3 0 5 6 3 5 105 8 1 6 7 1 4 6 4 101 0 2 2 0 97 0 0 0 33 2 78
ELSE[ ]	/* Else */
NPUSHB[ ]	/* 36 values pushed */
0 1 2 3 2 1 3 128 0 3 0 5 6 3 5 105 8 1 6 7 1 4 6 4 101 0 2 2 0 97 0 0 0 33 2 78
EIF[ ]	/* EndIf */
NPUSHB[ ]	/* 21 values pushed */
26 26 0 0 26 37 26 36 32 30 0 25 0 24 36 33 18 37 9 8 26
CALL[ ]	/* CallFunction */";
};
width = 299;
}
);
note = six.numr;
},
{
glyphname = seven.numr;
layers = (
{
layerId = m01;
shapes = (
{
closed = 1;
nodes = (
(161,346,l),
(353,649,l),
(363,699,l),
(102,699,l),
(91,636,l),
(272,636,l),
(84,346,l)
);
}
);
userData = {
assembly = "NPUSHB[ ]	/* 22 values pushed */
0 2 0 2 134 0 0 0 1 95 0 1 1 33 0 78 18 17 16 3 8 25
CALL[ ]	/* CallFunction */";
};
width = 305;
}
);
note = seven.numr;
},
{
glyphname = eight.numr;
layers = (
{
layerId = m01;
shapes = (
{
closed = 1;
nodes = (
(232,342,o),
(311,412,o),
(311,463,qs),
(311,515,o),
(265,537,q),
(293,549,o),
(329,592,o),
(329,623,qs),
(329,660,o),
(276,705,o),
(229,705,qs),
(170,705,o),
(91,646,o),
(91,598,qs),
(91,561,o),
(130,537,q),
(95,524,o),
(56,468,o),
(56,434,qs),
(56,395,o),
(113,342,o),
(167,342,qs)
);
},
{
closed = 1;
nodes = (
(155,402,o),
(128,427,o),
(128,446,qs),
(128,472,o),
(168,504,o),
(192,504,qs),
(214,504,o),
(240,481,o),
(240,462,qs),
(240,434,o),
(201,402,o),
(176,402,qs)
);
},
{
closed = 1;
nodes = (
(184,558,o),
(162,578,o),
(162,596,qs),
(162,617,o),
(194,645,o),
(217,645,qs),
(235,645,o),
(256,624,o),
(256,608,qs),
(256,587,o),
(224,558,o),
(203,558,qs)
);
}
);
userData = {
assembly = "NPUSHB[ ]	/* 62 values pushed */
16 5 2 2 5 1 76 8 1 5 0 2 3 5 2 105 7 1 3 6 1 1 3 1 101 0 4 4 0 97 0 0 0 33 4 78 34 34 22 22 0 0 34 45 34 44 40 38 22 33 22 32 28 26 0 21 0 20 41 9 8 23
CALL[ ]	/* CallFunction */";
};
width = 296;
}
);
note = eight.numr;
},
{
glyphname = nine.numr;
layers = (
{
layerId = m01;
shapes = (
{
closed = 1;
nodes = (
(214,342,o),
(292,417,o),
(332,528,o),
(332,581,qs),
(332,637,o),
(278,705,o),
(222,705,qs),
(183,705,o),
(117,663,o),
(79,597,o),
(79,562,qs),
(79,522,o),
(129,469,o),
(170,469,qs),
(192,469,o),
(235,488,o),
(250,504,q),
(240,458,o),
(200,404,o),
(171,404,qs),
(133,404,o),
(131,446,q),
(64,446,l),
(61,399,o),
(112,342,o),
(160,342,qs)
);
},
{
closed = 1;
nodes = (
(175,532,o),
(152,554,o),
(152,574,qs),
(152,602,o),
(187,641,o),
(214,641,qs),
(234,641,o),
(258,618,o),
(258,598,qs),
(258,571,o),
(221,532,o),
(195,532,qs)
);
}
);
userData = {
assembly = "PUSHB[ ]	/* 6 values pushed */
8 1 2 6 1 76
MPPEM[ ]	/* MeasurePixelPerEm */
PUSHB[ ]	/* 1 value pushed */
21
LT[ ]	/* LessThan */
IF[ ]	/* If */
NPUSHB[ ]	/* 37 values pushed */
0 0 2 1 1 0 114 0 1 7 1 4 1 4 102 0 5 5 3 97 0 3 3 33 77 0 2 2 6 97 8 1 6 6 42 2 78
ELSE[ ]	/* Else */
MPPEM[ ]	/* MeasurePixelPerEm */
PUSHB[ ]	/* 1 value pushed */
29
LT[ ]	/* LessThan */
IF[ ]	/* If */
NPUSHB[ ]	/* 35 values pushed */
0 0 2 1 1 0 114 8 1 6 0 2 0 6 2 105 0 1 7 1 4 1 4 102 0 5 5 3 97 0 3 3 33 5 78
ELSE[ ]	/* Else */
MPPEM[ ]	/* MeasurePixelPerEm */
PUSHB[ ]	/* 1 value pushed */
30
LT[ ]	/* LessThan */
IF[ ]	/* If */
NPUSHB[ ]	/* 36 values pushed */
0 0 2 1 2 0 1 128 8 1 6 0 2 0 6 2 105 0 1 7 1 4 1 4 102 0 5 5 3 97 0 3 3 33 5 78
ELSE[ ]	/* Else */
MPPEM[ ]	/* MeasurePixelPerEm */
PUSHB[ ]	/* 1 value pushed */
31
LT[ ]	/* LessThan */
IF[ ]	/* If */
NPUSHB[ ]	/* 35 values pushed */
0 0 2 1 1 0 114 8 1 6 0 2 0 6 2 105 0 1 7 1 4 1 4 102 0 5 5 3 97 0 3 3 33 5 78
ELSE[ ]	/* Else */
NPUSHB[ ]	/* 36 values pushed */
0 0 2 1 2 0 1 128 8 1 6 0 2 0 6 2 105 0 1 7 1 4 1 4 102 0 5 5 3 97 0 3 3 33 5 78
EIF[ ]	/* EndIf */
EIF[ ]	/* EndIf */
EIF[ ]	/* EndIf */
EIF[ ]	/* EndIf */
NPUSHB[ ]	/* 21 values pushed */
26 26 0 0 26 37 26 36 32 30 0 25 0 24 37 36 33 18 9 8 26
CALL[ ]	/* CallFunction */";
};
width = 300;
}
);
note = nine.numr;
},
{
glyphname = fraction;
layers = (
{
layerId = m01;
shapes = (
{
closed = 1;
nodes = (
(31,0,l),
(675,700,l),
(586,700,l),
(-58,0,l)
);
}
);
userData = {
assembly = "NPUSHB[ ]	/* 16 values pushed */
0 0 0 33 77 0 1 1 34 1 78 17 16 2 8 24
CALL[ ]	/* CallFunction */";
};
width = 576;
}
);
note = fraction;
unicode = 8260;
},
{
glyphname = onehalf;
layers = (
{
layerId = m01;
shapes = (
{
closed = 1;
nodes = (
(128,0,l),
(772,700,l),
(683,700,l),
(39,0,l)
);
},
{
closed = 1;
nodes = (
(289,347,l),
(301,411,l),
(220,411,l),
(271,700,l),
(233,700,l),
(105,656,l),
(95,598,l),
(187,619,l),
(150,411,l),
(58,411,l),
(47,347,l)
);
},
{
closed = 1;
nodes = (
(673,0,l),
(685,64,l),
(539,64,l),
(601,116,ls),
(646,154,o),
(682,187,o),
(714,239,o),
(714,269,qs),
(714,307,o),
(664,358,o),
(613,358,qs),
(558,358,o),
(481,297,o),
(468,239,q),
(541,239,l),
(545,263,o),
(575,296,o),
(600,296,qs),
(619,296,o),
(640,277,o),
(640,260,qs),
(640,239,o),
(602,195,o),
(559,157,qs),
(541,142,l),
(435,51,l),
(427,0,l)
);
}
);
userData = {
assembly = "PUSHB[ ]	/* 2 values pushed */
6 100
WCVTP[ ]	/* WriteCVTInPixels */
NPUSHB[ ]	/* 71 values pushed */
7 6 2 2 0 1 76 3 1 0 2 0 133 0 7 6 9 6 7 9 128 4 1 2 0 5 6 2 5 104 0 8 0 6 7 8 6 105 0 9 1 1 9 87 0 9 9 1 95 10 1 1 9 1 79 41 40 39 38 34 18 40 17 17 20 17 17 16 11 8 31
CALL[ ]	/* CallFunction */
PUSHB[ ]	/* 2 values pushed */
6 0
WCVTP[ ]	/* WriteCVTInPixels */";
};
width = 755;
}
);
note = onehalf;
unicode = 189;
},
{
glyphname = onequarter;
layers = (
{
layerId = m01;
shapes = (
{
closed = 1;
nodes = (
(124,0,l),
(768,700,l),
(679,700,l),
(35,0,l)
);
},
{
closed = 1;
nodes = (
(289,347,l),
(301,411,l),
(220,411,l),
(271,700,l),
(233,700,l),
(105,656,l),
(95,598,l),
(187,619,l),
(150,411,l),
(58,411,l),
(47,347,l)
);
},
{
closed = 1;
nodes = (
(632,0,l),
(643,64,l),
(683,64,l),
(695,129,l),
(655,129,l),
(670,213,l),
(601,213,l),
(587,129,l),
(499,129,l),
(649,353,l),
(576,353,l),
(418,120,l),
(407,64,l),
(571,64,l),
(559,0,l)
);
}
);
userData = {
assembly = "PUSHB[ ]	/* 2 values pushed */
6 100
WCVTP[ ]	/* WriteCVTInPixels */
PUSHB[ ]	/* 7 values pushed */
7 6 2 2 0 1 76
MPPEM[ ]	/* MeasurePixelPerEm */
PUSHB[ ]	/* 1 value pushed */
15
LT[ ]	/* LessThan */
IF[ ]	/* If */
NPUSHB[ ]	/* 56 values pushed */
3 1 0 2 0 133 0 7 2 5 2 7 5 128 0 9 5 8 8 9 114 12 1 1 6 6 1 113 4 1 2 0 5 9 2 5 104 10 1 8 6 6 8 87 10 1 8 8 6 96 11 1 6 8 6 80
ELSE[ ]	/* Else */
MPPEM[ ]	/* MeasurePixelPerEm */
PUSHB[ ]	/* 1 value pushed */
19
LT[ ]	/* LessThan */
IF[ ]	/* If */
NPUSHB[ ]	/* 57 values pushed */
3 1 0 2 0 133 0 7 2 5 2 7 5 128 0 9 5 8 5 9 8 128 12 1 1 6 6 1 113 4 1 2 0 5 9 2 5 104 10 1 8 6 6 8 87 10 1 8 8 6 96 11 1 6 8 6 80
ELSE[ ]	/* Else */
NPUSHB[ ]	/* 56 values pushed */
3 1 0 2 0 133 0 7 2 5 2 7 5 128 0 9 5 8 5 9 8 128 12 1 1 6 1 134 4 1 2 0 5 9 2 5 104 10 1 8 6 6 8 87 10 1 8 8 6 96 11 1 6 8 6 80
EIF[ ]	/* EndIf */
EIF[ ]	/* EndIf */
NPUSHB[ ]	/* 20 values pushed */
29 28 27 26 25 24 23 22 17 18 17 17 17 20 17 17 16 13 8 31
CALL[ ]	/* CallFunction */
PUSHB[ ]	/* 2 values pushed */
6 0
WCVTP[ ]	/* WriteCVTInPixels */";
};
width = 750;
}
);
note = onequarter;
unicode = 188;
},
{
glyphname = threequarters;
layers = (
{
layerId = m01;
shapes = (
{
closed = 1;
nodes = (
(130,0,l),
(774,700,l),
(685,700,l),
(42,0,l)
);
},
{
closed = 1;
nodes = (
(638,0,l),
(650,64,l),
(689,64,l),
(701,129,l),
(662,129,l),
(676,213,l),
(608,213,l),
(593,129,l),
(505,129,l),
(656,353,l),
(582,353,l),
(424,120,l),
(414,64,l),
(577,64,l),
(566,0,l)
);
},
{
closed = 1;
nodes = (
(224,342,o),
(292,380,o),
(328,444,o),
(328,482,qs),
(328,516,o),
(288,562,o),
(253,568,q),
(346,641,l),
(357,700,l),
(124,700,l),
(112,636,l),
(251,636,l),
(137,548,l),
(169,501,l),
(190,512,o),
(208,512,qs),
(230,512,o),
(256,492,o),
(256,472,qs),
(256,444,o),
(220,406,o),
(189,406,qs),
(166,406,o),
(140,428,o),
(140,447,qs),
(140,455,o),
(141,458,q),
(70,458,l),
(68,442,o),
(68,434,qs),
(68,390,o),
(127,342,o),
(178,342,qs)
);
}
);
userData = {
assembly = "PUSHB[ ]	/* 2 values pushed */
6 100
WCVTP[ ]	/* WriteCVTInPixels */
NPUSHB[ ]	/* 16 values pushed */
44 38 2 11 12 37 1 9 11 26 21 2 10 9 3 76
MPPEM[ ]	/* MeasurePixelPerEm */
PUSHB[ ]	/* 1 value pushed */
11
LT[ ]	/* LessThan */
IF[ ]	/* If */
NPUSHB[ ]	/* 72 values pushed */
0 11 12 9 12 11 114 0 9 10 10 9 112 0 3 10 14 10 3 14 128 0 5 14 4 4 5 114 8 1 1 2 2 1 113 13 1 0 0 12 11 0 12 103 0 10 15 1 14 5 10 14 106 6 1 4 2 2 4 87 6 1 4 4 2 96 7 1 2 4 2 80
ELSE[ ]	/* Else */
MPPEM[ ]	/* MeasurePixelPerEm */
PUSHB[ ]	/* 1 value pushed */
15
LT[ ]	/* LessThan */
IF[ ]	/* If */
NPUSHB[ ]	/* 73 values pushed */
0 11 12 9 12 11 9 128 0 9 10 10 9 112 0 3 10 14 10 3 14 128 0 5 14 4 4 5 114 8 1 1 2 2 1 113 13 1 0 0 12 11 0 12 103 0 10 15 1 14 5 10 14 106 6 1 4 2 2 4 87 6 1 4 4 2 96 7 1 2 4 2 80
ELSE[ ]	/* Else */
MPPEM[ ]	/* MeasurePixelPerEm */
PUSHB[ ]	/* 1 value pushed */
19
LT[ ]	/* LessThan */
IF[ ]	/* If */
NPUSHB[ ]	/* 74 values pushed */
0 11 12 9 12 11 9 128 0 9 10 10 9 112 0 3 10 14 10 3 14 128 0 5 14 4 14 5 4 128 8 1 1 2 2 1 113 13 1 0 0 12 11 0 12 103 0 10 15 1 14 5 10 14 106 6 1 4 2 2 4 87 6 1 4 4 2 96 7 1 2 4 2 80
ELSE[ ]	/* Else */
MPPEM[ ]	/* MeasurePixelPerEm */
PUSHB[ ]	/* 1 value pushed */
25
LT[ ]	/* LessThan */
IF[ ]	/* If */
NPUSHB[ ]	/* 73 values pushed */
0 11 12 9 12 11 9 128 0 9 10 10 9 112 0 3 10 14 10 3 14 128 0 5 14 4 14 5 4 128 8 1 1 2 1 134 13 1 0 0 12 11 0 12 103 0 10 15 1 14 5 10 14 106 6 1 4 2 2 4 87 6 1 4 4 2 96 7 1 2 4 2 80
ELSE[ ]	/* Else */
NPUSHB[ ]	/* 74 values pushed */
0 11 12 9 12 11 9 128 0 9 10 12 9 10 126 0 3 10 14 10 3 14 128 0 5 14 4 14 5 4 128 8 1 1 2 1 134 13 1 0 0 12 11 0 12 103 0 10 15 1 14 5 10 14 106 6 1 4 2 2 4 87 6 1 4 4 2 96 7 1 2 4 2 80
EIF[ ]	/* EndIf */
EIF[ ]	/* EndIf */
EIF[ ]	/* EndIf */
EIF[ ]	/* EndIf */
NPUSHB[ ]	/* 28 values pushed */
19 19 19 51 19 50 42 41 40 39 36 34 30 28 24 23 17 17 17 17 17 18 17 17 16 16 8 31
CALL[ ]	/* CallFunction */
PUSHB[ ]	/* 2 values pushed */
6 0
WCVTP[ ]	/* WriteCVTInPixels */";
};
width = 756;
}
);
note = threequarters;
unicode = 190;
},
{
glyphname = oneeighth;
layers = (
{
layerId = m01;
shapes = (
{
closed = 1;
nodes = (
(125,-1,l),
(769,699,l),
(680,699,l),
(36,-1,l)
);
},
{
closed = 1;
nodes = (
(289,347,l),
(301,411,l),
(220,411,l),
(271,700,l),
(233,700,l),
(105,656,l),
(95,598,l),
(187,619,l),
(150,411,l),
(58,411,l),
(47,347,l)
);
},
{
closed = 1;
nodes = (
(536,55,o),
(509,80,o),
(509,99,qs),
(509,125,o),
(549,157,o),
(573,157,qs),
(595,157,o),
(621,134,o),
(621,115,qs),
(621,87,o),
(582,55,o),
(557,55,qs)
);
},
{
closed = 1;
nodes = (
(613,-5,o),
(691,65,o),
(691,116,qs),
(691,169,o),
(646,190,q),
(673,202,o),
(709,245,o),
(709,276,qs),
(709,314,o),
(657,358,o),
(609,358,qs),
(550,358,o),
(472,299,o),
(472,251,qs),
(472,213,o),
(511,190,q),
(476,177,o),
(437,121,o),
(437,87,qs),
(437,48,o),
(494,-5,o),
(548,-5,qs)
);
},
{
closed = 1;
nodes = (
(565,211,o),
(543,231,o),
(543,249,qs),
(543,270,o),
(575,298,o),
(597,298,qs),
(616,298,o),
(637,277,o),
(637,261,qs),
(637,240,o),
(605,211,o),
(584,211,qs)
);
}
);
userData = {
assembly = "NPUSHB[ ]	/* 90 values pushed */
7 6 2 2 0 43 32 2 6 11 2 76 4 1 2 0 5 10 2 5 104 0 8 0 10 11 8 10 105 14 1 11 0 6 7 11 6 105 3 1 0 0 33 77 12 1 7 7 1 97 13 9 2 1 1 34 1 78 49 49 27 27 15 15 49 60 49 59 55 53 27 48 27 47 38 36 15 26 15 25 37 17 17 20 17 17 16 15 8 29
CALL[ ]	/* CallFunction */";
};
width = 751;
}
);
note = oneeighth;
unicode = 8539;
},
{
glyphname = threeeighths;
layers = (
{
layerId = m01;
shapes = (
{
closed = 1;
nodes = (
(123,-1,l),
(767,699,l),
(678,699,l),
(35,-1,l)
);
},
{
closed = 1;
nodes = (
(224,342,o),
(292,380,o),
(328,444,o),
(328,482,qs),
(328,516,o),
(288,562,o),
(253,568,q),
(346,641,l),
(357,700,l),
(124,700,l),
(112,636,l),
(251,636,l),
(137,548,l),
(169,501,l),
(190,512,o),
(208,512,qs),
(230,512,o),
(256,492,o),
(256,472,qs),
(256,444,o),
(220,406,o),
(189,406,qs),
(166,406,o),
(140,428,o),
(140,447,qs),
(140,455,o),
(141,458,q),
(70,458,l),
(68,442,o),
(68,434,qs),
(68,390,o),
(127,342,o),
(178,342,qs)
);
},
{
closed = 1;
nodes = (
(613,-5,o),
(691,65,o),
(691,116,qs),
(691,169,o),
(646,190,q),
(673,202,o),
(709,245,o),
(709,276,qs),
(709,314,o),
(657,358,o),
(609,358,qs),
(550,358,o),
(472,299,o),
(472,251,qs),
(472,213,o),
(511,190,q),
(476,177,o),
(437,121,o),
(437,87,qs),
(437,48,o),
(494,-5,o),
(548,-5,qs)
);
},
{
closed = 1;
nodes = (
(536,55,o),
(509,80,o),
(509,99,qs),
(509,125,o),
(549,157,o),
(573,157,qs),
(595,157,o),
(621,134,o),
(621,115,qs),
(621,87,o),
(582,55,o),
(557,55,qs)
);
},
{
closed = 1;
nodes = (
(565,211,o),
(543,231,o),
(543,249,qs),
(543,270,o),
(575,298,o),
(597,298,qs),
(616,298,o),
(637,277,o),
(637,261,qs),
(637,240,o),
(605,211,o),
(584,211,qs)
);
}
);
userData = {
assembly = "NPUSHB[ ]	/* 21 values pushed */
29 23 2 4 5 22 1 2 4 11 6 2 3 2 53 42 2 10 13 4 76
MPPEM[ ]	/* MeasurePixelPerEm */
PUSHB[ ]	/* 1 value pushed */
11
LT[ ]	/* LessThan */
IF[ ]	/* If */
NPUSHB[ ]	/* 64 values pushed */
0 4 5 2 5 4 114 0 2 3 3 2 112 0 3 14 1 7 12 3 7 106 0 8 0 12 13 8 12 105 17 1 13 0 10 11 13 10 105 0 5 5 0 95 6 1 0 0 33 77 16 1 11 11 1 97 15 9 2 1 1 34 1 78
ELSE[ ]	/* Else */
MPPEM[ ]	/* MeasurePixelPerEm */
PUSHB[ ]	/* 1 value pushed */
25
LT[ ]	/* LessThan */
IF[ ]	/* If */
NPUSHB[ ]	/* 65 values pushed */
0 4 5 2 5 4 2 128 0 2 3 3 2 112 0 3 14 1 7 12 3 7 106 0 8 0 12 13 8 12 105 17 1 13 0 10 11 13 10 105 0 5 5 0 95 6 1 0 0 33 77 16 1 11 11 1 97 15 9 2 1 1 34 1 78
ELSE[ ]	/* Else */
NPUSHB[ ]	/* 66 values pushed */
0 4 5 2 5 4 2 128 0 2 3 5 2 3 126 0 3 14 1 7 12 3 7 106 0 8 0 12 13 8 12 105 17 1 13 0 10 11 13 10 105 0 5 5 0 95 6 1 0 0 33 77 16 1 11 11 1 97 15 9 2 1 1 34 1 78
EIF[ ]	/* EndIf */
EIF[ ]	/* EndIf */
NPUSHB[ ]	/* 40 values pushed */
71 71 59 59 37 37 4 4 71 82 71 81 77 75 59 70 59 69 65 63 37 58 37 57 48 46 4 36 4 35 17 19 36 36 21 17 16 18 8 29
CALL[ ]	/* CallFunction */";
};
width = 747;
}
);
note = threeeighths;
unicode = 8540;
},
{
glyphname = fiveeighths;
layers = (
{
layerId = m01;
shapes = (
{
closed = 1;
nodes = (
(127,-1,l),
(771,699,l),
(682,699,l),
(38,-1,l)
);
},
{
closed = 1;
nodes = (
(222,342,o),
(292,383,o),
(333,454,o),
(333,497,qs),
(333,539,o),
(282,593,o),
(236,593,qs),
(199,593,o),
(169,573,q),
(193,635,l),
(337,635,l),
(348,700,l),
(149,700,l),
(82,494,l),
(151,494,l),
(162,512,o),
(195,532,o),
(215,532,qs),
(237,532,o),
(261,507,o),
(261,484,qs),
(261,452,o),
(221,406,o),
(192,406,qs),
(170,406,o),
(142,430,o),
(141,450,q),
(70,450,l),
(65,401,o),
(124,342,o),
(181,342,qs)
);
},
{
closed = 1;
nodes = (
(617,-5,o),
(695,65,o),
(695,116,qs),
(695,169,o),
(650,190,q),
(677,202,o),
(713,245,o),
(713,276,qs),
(713,314,o),
(661,358,o),
(613,358,qs),
(554,358,o),
(476,299,o),
(476,251,qs),
(476,213,o),
(515,190,q),
(480,177,o),
(441,121,o),
(441,87,qs),
(441,48,o),
(498,-5,o),
(552,-5,qs)
);
},
{
closed = 1;
nodes = (
(540,55,o),
(513,80,o),
(513,99,qs),
(513,125,o),
(553,157,o),
(577,157,qs),
(599,157,o),
(625,134,o),
(625,115,qs),
(625,87,o),
(586,55,o),
(561,55,qs)
);
},
{
closed = 1;
nodes = (
(569,211,o),
(547,231,o),
(547,249,qs),
(547,270,o),
(579,298,o),
(601,298,qs),
(620,298,o),
(641,277,o),
(641,261,qs),
(641,240,o),
(609,211,o),
(588,211,qs)
);
}
);
userData = {
assembly = "NPUSHB[ ]	/* 11 values pushed */
25 1 4 8 51 40 2 12 15 2 76
MPPEM[ ]	/* MeasurePixelPerEm */
PUSHB[ ]	/* 1 value pushed */
29
LT[ ]	/* LessThan */
IF[ ]	/* If */
NPUSHB[ ]	/* 73 values pushed */
0 5 4 2 4 5 2 128 0 2 3 3 2 112 0 8 0 4 5 8 4 105 0 3 16 1 9 14 3 9 106 0 10 0 14 15 10 14 105 19 1 15 0 12 13 15 12 105 0 7 7 0 95 6 1 0 0 33 77 18 1 13 13 1 97 17 11 2 1 1 34 1 78
ELSE[ ]	/* Else */
NPUSHB[ ]	/* 74 values pushed */
0 5 4 2 4 5 2 128 0 2 3 4 2 3 126 0 8 0 4 5 8 4 105 0 3 16 1 9 14 3 9 106 0 10 0 14 15 10 14 105 19 1 15 0 12 13 15 12 105 0 7 7 0 95 6 1 0 0 33 77 18 1 13 13 1 97 17 11 2 1 1 34 1 78
EIF[ ]	/* EndIf */
NPUSHB[ ]	/* 42 values pushed */
69 69 57 57 35 35 4 4 69 80 69 79 75 73 57 68 57 67 63 61 35 56 35 55 46 44 4 34 4 33 34 17 17 18 36 34 19 17 16 20 8 31
CALL[ ]	/* CallFunction */";
};
width = 751;
}
);
note = fiveeighths;
unicode = 8541;
},
{
glyphname = seveneighths;
layers = (
{
layerId = m01;
shapes = (
{
closed = 1;
nodes = (
(95,-1,l),
(739,699,l),
(649,699,l),
(5,-1,l)
);
},
{
closed = 1;
nodes = (
(186,346,l),
(378,649,l),
(388,699,l),
(127,699,l),
(116,636,l),
(297,636,l),
(109,346,l)
);
},
{
closed = 1;
nodes = (
(595,-5,o),
(674,65,o),
(674,116,qs),
(674,169,o),
(629,190,q),
(656,202,o),
(692,245,o),
(692,276,qs),
(692,313,o),
(639,358,o),
(592,358,qs),
(533,358,o),
(455,299,o),
(455,251,qs),
(455,213,o),
(493,190,q),
(459,177,o),
(419,120,o),
(419,87,qs),
(419,48,o),
(477,-5,o),
(530,-5,qs)
);
},
{
closed = 1;
nodes = (
(518,55,o),
(491,80,o),
(491,99,qs),
(491,125,o),
(531,157,o),
(556,157,qs),
(578,157,o),
(603,134,o),
(603,115,qs),
(603,87,o),
(565,55,o),
(540,55,qs)
);
},
{
closed = 1;
nodes = (
(547,211,o),
(525,231,o),
(525,249,qs),
(525,270,o),
(558,298,o),
(580,298,qs),
(598,298,o),
(620,277,o),
(620,261,qs),
(620,240,o),
(588,211,o),
(566,211,qs)
);
}
);
userData = {
assembly = "NPUSHB[ ]	/* 88 values pushed */
27 16 2 7 10 1 76 0 4 5 9 5 4 9 128 0 5 0 9 10 5 9 105 13 1 10 0 7 8 10 7 105 0 2 2 0 95 3 1 0 0 33 77 12 1 8 8 1 97 11 6 2 1 1 34 1 78 45 45 33 33 11 11 45 56 45 55 51 49 33 44 33 43 39 37 11 32 11 31 42 18 17 17 17 16 14 8 28
CALL[ ]	/* CallFunction */";
};
width = 727;
}
);
note = seveneighths;
unicode = 8542;
},
{
glyphname = uni2080;
layers = (
{
layerId = m01;
shapes = (
{
closed = 1;
nodes = (
(173,-5,o),
(250,76,o),
(282,188,o),
(282,237,qs),
(282,293,o),
(230,358,o),
(175,358,qs),
(114,358,o),
(37,279,o),
(4,169,o),
(4,118,qs),
(4,61,o),
(55,-5,o),
(111,-5,qs)
);
},
{
closed = 1;
nodes = (
(77,61,o),
(77,128,qs),
(77,156,o),
(94,233,o),
(132,292,o),
(163,292,qs),
(207,292,o),
(207,228,qs),
(207,198,o),
(190,120,o),
(152,61,o),
(123,61,qs)
);
}
);
userData = {
assembly = "NPUSHB[ ]	/* 41 values pushed */
0 2 2 0 97 0 0 0 51 77 5 1 3 3 1 97 4 1 1 1 52 1 78 14 14 0 0 14 25 14 24 20 18 0 13 0 12 37 6 9 23
CALL[ ]	/* CallFunction */";
};
width = 311;
}
);
note = uni2080;
unicode = 8320;
},
{
glyphname = uni2081;
layers = (
{
layerId = m01;
shapes = (
{
closed = 1;
nodes = (
(232,0,l),
(244,64,l),
(163,64,l),
(214,353,l),
(176,353,l),
(48,309,l),
(38,251,l),
(130,272,l),
(93,64,l),
(1,64,l),
(-10,0,l)
);
}
);
userData = {
assembly = "NPUSHB[ ]	/* 31 values pushed */
3 2 2 0 1 1 76 0 1 1 49 77 2 1 0 0 3 96 0 3 3 50 3 78 17 17 20 16 4 9 26
CALL[ ]	/* CallFunction */";
};
width = 303;
}
);
note = uni2081;
unicode = 8321;
},
{
glyphname = uni2082;
layers = (
{
layerId = m01;
shapes = (
{
closed = 1;
nodes = (
(228,0,l),
(239,64,l),
(94,64,l),
(156,116,l),
(171,129,ls),
(218,168,o),
(268,230,o),
(268,269,qs),
(268,307,o),
(219,358,o),
(168,358,qs),
(113,358,o),
(36,297,o),
(23,239,q),
(95,239,l),
(100,263,o),
(131,296,o),
(155,296,qs),
(173,296,o),
(194,277,o),
(194,260,qs),
(194,236,o),
(150,190,o),
(95,142,qs),
(-10,51,l),
(-19,0,l)
);
}
);
userData = {
assembly = "NPUSHB[ ]	/* 37 values pushed */
0 1 0 3 0 1 3 128 0 0 0 2 97 0 2 2 51 77 0 3 3 4 95 0 4 4 50 4 78 17 23 34 18 38 5 9 27
CALL[ ]	/* CallFunction */";
};
width = 299;
}
);
note = uni2082;
unicode = 8322;
},
{
glyphname = uni2083;
layers = (
{
layerId = m01;
shapes = (
{
closed = 1;
nodes = (
(154,-5,o),
(222,33,o),
(258,97,o),
(258,135,qs),
(258,169,o),
(218,215,o),
(183,221,q),
(277,294,l),
(287,353,l),
(54,353,l),
(43,289,l),
(181,289,l),
(67,201,l),
(99,154,l),
(120,165,o),
(138,165,qs),
(160,165,o),
(186,145,o),
(186,125,qs),
(186,97,o),
(151,59,o),
(119,59,qs),
(96,59,o),
(71,81,o),
(71,100,qs),
(71,108,o),
(72,111,q),
(1,111,l),
(-1,95,o),
(-1,87,qs),
(-1,43,o),
(57,-5,o),
(108,-5,qs)
);
}
);
userData = {
assembly = "NPUSHB[ ]	/* 16 values pushed */
25 19 2 2 3 18 1 0 2 7 2 2 1 0 3 76
MPPEM[ ]	/* MeasurePixelPerEm */
PUSHB[ ]	/* 1 value pushed */
11
LT[ ]	/* LessThan */
IF[ ]	/* If */
NPUSHB[ ]	/* 35 values pushed */
0 2 3 0 3 2 114 0 0 1 1 0 112 0 3 3 4 95 0 4 4 49 77 0 1 1 5 98 6 1 5 5 52 5 78
ELSE[ ]	/* Else */
MPPEM[ ]	/* MeasurePixelPerEm */
PUSHB[ ]	/* 1 value pushed */
25
LT[ ]	/* LessThan */
IF[ ]	/* If */
NPUSHB[ ]	/* 36 values pushed */
0 2 3 0 3 2 0 128 0 0 1 1 0 112 0 3 3 4 95 0 4 4 49 77 0 1 1 5 98 6 1 5 5 52 5 78
ELSE[ ]	/* Else */
NPUSHB[ ]	/* 37 values pushed */
0 2 3 0 3 2 0 128 0 0 1 3 0 1 126 0 3 3 4 95 0 4 4 49 77 0 1 1 5 98 6 1 5 5 52 5 78
EIF[ ]	/* EndIf */
EIF[ ]	/* EndIf */
NPUSHB[ ]	/* 14 values pushed */
0 0 0 32 0 31 17 19 36 36 20 7 9 27
CALL[ ]	/* CallFunction */";
};
width = 305;
}
);
note = uni2083;
unicode = 8323;
},
{
glyphname = uni2084;
layers = (
{
layerId = m01;
shapes = (
{
closed = 1;
nodes = (
(205,0,l),
(216,64,l),
(256,64,l),
(268,129,l),
(228,129,l),
(243,213,l),
(174,213,l),
(160,129,l),
(72,129,l),
(222,353,l),
(149,353,l),
(-9,120,l),
(-20,64,l),
(144,64,l),
(132,0,l)
);
}
);
userData = {
assembly = "MPPEM[ ]	/* MeasurePixelPerEm */
PUSHB[ ]	/* 1 value pushed */
15
LT[ ]	/* LessThan */
IF[ ]	/* If */
NPUSHB[ ]	/* 28 values pushed */
0 3 1 2 2 3 114 4 1 2 5 1 0 6 2 0 104 0 1 1 49 77 0 6 6 50 6 78
ELSE[ ]	/* Else */
NPUSHB[ ]	/* 29 values pushed */
0 3 1 2 1 3 2 128 4 1 2 5 1 0 6 2 0 104 0 1 1 49 77 0 6 6 50 6 78
EIF[ ]	/* EndIf */
NPUSHB[ ]	/* 10 values pushed */
17 17 17 17 17 18 16 7 9 29
CALL[ ]	/* CallFunction */";
};
width = 297;
}
);
note = uni2084;
unicode = 8324;
},
{
glyphname = uni2085;
layers = (
{
layerId = m01;
shapes = (
{
closed = 1;
nodes = (
(145,-5,o),
(216,36,o),
(257,107,o),
(257,150,qs),
(257,192,o),
(207,246,o),
(160,246,qs),
(124,246,o),
(94,226,q),
(117,288,l),
(260,288,l),
(272,353,l),
(73,353,l),
(6,147,l),
(75,147,l),
(99,185,o),
(139,185,qs),
(161,185,o),
(186,159,o),
(186,137,qs),
(186,105,o),
(145,59,o),
(116,59,qs),
(94,59,o),
(66,83,o),
(66,103,q),
(-6,103,l),
(-11,54,o),
(47,-5,o),
(104,-5,qs)
);
}
);
userData = {
assembly = "PUSHB[ ]	/* 6 values pushed */
20 1 2 6 1 76
MPPEM[ ]	/* MeasurePixelPerEm */
PUSHB[ ]	/* 1 value pushed */
29
LT[ ]	/* LessThan */
IF[ ]	/* If */
NPUSHB[ ]	/* 44 values pushed */
0 3 2 0 2 3 0 128 0 0 1 1 0 112 0 6 0 2 3 6 2 105 0 5 5 4 95 0 4 4 49 77 0 1 1 7 98 8 1 7 7 52 7 78
ELSE[ ]	/* Else */
NPUSHB[ ]	/* 45 values pushed */
0 3 2 0 2 3 0 128 0 0 1 2 0 1 126 0 6 0 2 3 6 2 105 0 5 5 4 95 0 4 4 49 77 0 1 1 7 98 8 1 7 7 52 7 78
EIF[ ]	/* EndIf */
NPUSHB[ ]	/* 16 values pushed */
0 0 0 29 0 28 34 17 17 17 36 34 18 9 9 29
CALL[ ]	/* CallFunction */";
};
width = 299;
}
);
note = uni2085;
unicode = 8325;
},
{
glyphname = uni2086;
layers = (
{
layerId = m01;
shapes = (
{
closed = 1;
nodes = (
(153,-5,o),
(218,36,o),
(256,103,o),
(256,139,qs),
(256,181,o),
(204,231,o),
(166,231,qs),
(145,231,o),
(102,212,o),
(86,196,q),
(96,242,o),
(137,296,o),
(166,296,qs),
(203,296,o),
(205,255,q),
(273,255,l),
(275,301,o),
(225,358,o),
(176,358,qs),
(122,358,o),
(44,283,o),
(4,171,o),
(4,118,qs),
(4,62,o),
(58,-5,o),
(114,-5,qs)
);
},
{
closed = 1;
nodes = (
(102,59,o),
(78,83,o),
(78,102,qs),
(78,129,o),
(115,168,o),
(141,168,qs),
(161,168,o),
(185,145,o),
(185,126,qs),
(185,98,o),
(149,59,o),
(122,59,qs)
);
}
);
userData = {
assembly = "PUSHB[ ]	/* 6 values pushed */
15 1 5 3 1 76
MPPEM[ ]	/* MeasurePixelPerEm */
PUSHB[ ]	/* 1 value pushed */
31
LT[ ]	/* LessThan */
IF[ ]	/* If */
NPUSHB[ ]	/* 38 values pushed */
0 1 2 3 2 1 114 0 3 0 5 6 3 5 105 0 2 2 0 97 0 0 0 51 77 8 1 6 6 4 97 7 1 4 4 52 4 78
ELSE[ ]	/* Else */
NPUSHB[ ]	/* 39 values pushed */
0 1 2 3 2 1 3 128 0 3 0 5 6 3 5 105 0 2 2 0 97 0 0 0 51 77 8 1 6 6 4 97 7 1 4 4 52 4 78
EIF[ ]	/* EndIf */
NPUSHB[ ]	/* 21 values pushed */
26 26 0 0 26 37 26 36 32 30 0 25 0 24 36 33 18 37 9 9 26
CALL[ ]	/* CallFunction */";
};
width = 300;
}
);
note = uni2086;
unicode = 8326;
},
{
glyphname = uni2087;
layers = (
{
layerId = m01;
shapes = (
{
closed = 1;
nodes = (
(100,-1,l),
(292,302,l),
(301,352,l),
(40,352,l),
(29,289,l),
(210,289,l),
(23,-1,l)
);
}
);
userData = {
assembly = "NPUSHB[ ]	/* 22 values pushed */
0 0 0 1 95 0 1 1 49 77 0 2 2 50 2 78 18 17 16 3 9 25
CALL[ ]	/* CallFunction */";
};
width = 305;
}
);
note = uni2087;
unicode = 8327;
},
{
glyphname = uni2088;
layers = (
{
layerId = m01;
shapes = (
{
closed = 1;
nodes = (
(170,-5,o),
(249,65,o),
(249,116,qs),
(249,169,o),
(204,190,q),
(231,202,o),
(267,245,o),
(267,276,qs),
(267,313,o),
(214,358,o),
(167,358,qs),
(108,358,o),
(30,299,o),
(30,251,qs),
(30,213,o),
(68,190,q),
(34,177,o),
(-6,120,o),
(-6,87,qs),
(-6,48,o),
(52,-5,o),
(105,-5,qs)
);
},
{
closed = 1;
nodes = (
(93,55,o),
(66,80,o),
(66,99,qs),
(66,125,o),
(106,157,o),
(131,157,qs),
(153,157,o),
(178,134,o),
(178,115,qs),
(178,87,o),
(140,55,o),
(115,55,qs)
);
},
{
closed = 1;
nodes = (
(122,211,o),
(100,231,o),
(100,249,qs),
(100,270,o),
(133,298,o),
(155,298,qs),
(173,298,o),
(195,277,o),
(195,261,qs),
(195,240,o),
(163,211,o),
(141,211,qs)
);
}
);
userData = {
assembly = "NPUSHB[ ]	/* 65 values pushed */
16 5 2 2 5 1 76 8 1 5 0 2 3 5 2 105 0 4 4 0 97 0 0 0 51 77 7 1 3 3 1 97 6 1 1 1 52 1 78 34 34 22 22 0 0 34 45 34 44 40 38 22 33 22 32 28 26 0 21 0 20 41 9 9 23
CALL[ ]	/* CallFunction */";
};
width = 295;
}
);
note = uni2088;
unicode = 8328;
},
{
glyphname = uni2089;
layers = (
{
layerId = m01;
shapes = (
{
closed = 1;
nodes = (
(152,-5,o),
(230,70,o),
(271,182,o),
(271,235,qs),
(271,291,o),
(216,358,o),
(160,358,qs),
(121,358,o),
(56,317,o),
(18,251,o),
(18,216,qs),
(18,175,o),
(67,122,o),
(108,122,qs),
(130,122,o),
(173,141,o),
(189,157,q),
(179,111,o),
(139,57,o),
(110,57,qs),
(72,57,o),
(70,99,q),
(3,99,l),
(0,52,o),
(50,-5,o),
(98,-5,qs)
);
},
{
closed = 1;
nodes = (
(114,185,o),
(90,208,o),
(90,228,qs),
(90,254,o),
(126,294,o),
(152,294,qs),
(172,294,o),
(197,270,o),
(197,250,qs),
(197,224,o),
(160,185,o),
(134,185,qs)
);
}
);
userData = {
assembly = "PUSHB[ ]	/* 6 values pushed */
8 1 2 6 1 76
MPPEM[ ]	/* MeasurePixelPerEm */
PUSHB[ ]	/* 1 value pushed */
30
LT[ ]	/* LessThan */
IF[ ]	/* If */
NPUSHB[ ]	/* 38 values pushed */
0 0 2 1 1 0 114 8 1 6 0 2 0 6 2 105 0 5 5 3 97 0 3 3 51 77 0 1 1 4 98 7 1 4 4 52 4 78
ELSE[ ]	/* Else */
NPUSHB[ ]	/* 39 values pushed */
0 0 2 1 2 0 1 128 8 1 6 0 2 0 6 2 105 0 5 5 3 97 0 3 3 51 77 0 1 1 4 98 7 1 4 4 52 4 78
EIF[ ]	/* EndIf */
NPUSHB[ ]	/* 21 values pushed */
26 26 0 0 26 37 26 36 32 30 0 25 0 24 37 36 33 18 9 9 26
CALL[ ]	/* CallFunction */";
};
width = 299;
}
);
note = uni2089;
unicode = 8329;
},
{
glyphname = uni2070;
layers = (
{
layerId = m01;
shapes = (
{
closed = 1;
nodes = (
(234,342,o),
(311,422,o),
(343,533,o),
(343,583,qs),
(343,640,o),
(292,705,o),
(236,705,qs),
(175,705,o),
(98,625,o),
(65,514,o),
(65,465,qs),
(65,408,o),
(117,342,o),
(172,342,qs)
);
},
{
closed = 1;
nodes = (
(164,408,o),
(139,439,o),
(139,473,qs),
(139,502,o),
(155,580,o),
(193,639,o),
(224,639,qs),
(269,639,o),
(269,573,qs),
(269,543,o),
(252,466,o),
(214,408,o),
(184,408,qs)
);
}
);
userData = {
assembly = "NPUSHB[ ]	/* 41 values pushed */
0 2 2 0 97 0 0 0 59 77 5 1 3 3 1 97 4 1 1 1 60 1 78 14 14 0 0 14 26 14 25 20 18 0 13 0 12 37 6 10 23
CALL[ ]	/* CallFunction */";
};
width = 311;
}
);
note = uni2070;
unicode = 8304;
},
{
glyphname = uni00B9;
layers = (
{
layerId = m01;
shapes = (
{
closed = 1;
nodes = (
(293,347,l),
(305,411,l),
(224,411,l),
(275,700,l),
(237,700,l),
(109,656,l),
(99,598,l),
(191,619,l),
(154,411,l),
(62,411,l),
(51,347,l)
);
}
);
userData = {
assembly = "NPUSHB[ ]	/* 31 values pushed */
3 2 2 0 1 1 76 0 1 1 57 77 2 1 0 0 3 96 0 3 3 58 3 78 17 17 20 16 4 10 26
CALL[ ]	/* CallFunction */";
};
width = 296;
}
);
note = uni00B9;
unicode = 185;
},
{
glyphname = uni00B2;
layers = (
{
layerId = m01;
shapes = (
{
closed = 1;
nodes = (
(289,347,l),
(300,411,l),
(155,411,l),
(217,463,l),
(232,476,ls),
(279,515,o),
(329,577,o),
(329,616,qs),
(329,654,o),
(280,705,o),
(229,705,qs),
(174,705,o),
(97,644,o),
(84,586,q),
(156,586,l),
(161,610,o),
(192,643,o),
(216,643,qs),
(234,643,o),
(255,624,o),
(255,607,qs),
(255,583,o),
(211,537,o),
(156,489,qs),
(51,398,l),
(42,347,l)
);
}
);
userData = {
assembly = "NPUSHB[ ]	/* 37 values pushed */
0 1 0 3 0 1 3 128 0 0 0 2 97 0 2 2 59 77 0 3 3 4 95 0 4 4 58 4 78 17 23 34 18 38 5 10 27
CALL[ ]	/* CallFunction */";
};
width = 299;
}
);
note = uni00B2;
unicode = 178;
},
{
glyphname = uni00B3;
layers = (
{
layerId = m01;
shapes = (
{
closed = 1;
nodes = (
(215,342,o),
(283,380,o),
(319,444,o),
(319,482,qs),
(319,516,o),
(279,562,o),
(244,568,q),
(338,641,l),
(348,700,l),
(115,700,l),
(104,636,l),
(242,636,l),
(128,548,l),
(160,501,l),
(181,512,o),
(199,512,qs),
(221,512,o),
(247,492,o),
(247,472,qs),
(247,444,o),
(212,406,o),
(180,406,qs),
(157,406,o),
(132,428,o),
(132,447,qs),
(132,455,o),
(133,458,q),
(62,458,l),
(60,442,o),
(60,434,qs),
(60,390,o),
(118,342,o),
(169,342,qs)
);
}
);
userData = {
assembly = "NPUSHB[ ]	/* 16 values pushed */
25 19 2 2 3 18 1 0 2 7 2 2 1 0 3 76
MPPEM[ ]	/* MeasurePixelPerEm */
PUSHB[ ]	/* 1 value pushed */
11
LT[ ]	/* LessThan */
IF[ ]	/* If */
NPUSHB[ ]	/* 35 values pushed */
0 2 3 0 3 2 114 0 0 1 1 0 112 0 3 3 4 95 0 4 4 57 77 0 1 1 5 98 6 1 5 5 60 5 78
ELSE[ ]	/* Else */
MPPEM[ ]	/* MeasurePixelPerEm */
PUSHB[ ]	/* 1 value pushed */
25
LT[ ]	/* LessThan */
IF[ ]	/* If */
NPUSHB[ ]	/* 36 values pushed */
0 2 3 0 3 2 0 128 0 0 1 1 0 112 0 3 3 4 95 0 4 4 57 77 0 1 1 5 98 6 1 5 5 60 5 78
ELSE[ ]	/* Else */
NPUSHB[ ]	/* 37 values pushed */
0 2 3 0 3 2 0 128 0 0 1 3 0 1 126 0 3 3 4 95 0 4 4 57 77 0 1 1 5 98 6 1 5 5 60 5 78
EIF[ ]	/* EndIf */
EIF[ ]	/* EndIf */
NPUSHB[ ]	/* 14 values pushed */
0 0 0 32 0 31 17 19 36 36 20 7 10 27
CALL[ ]	/* CallFunction */";
};
width = 305;
}
);
note = uni00B3;
unicode = 179;
},
{
glyphname = uni2074;
layers = (
{
layerId = m01;
shapes = (
{
closed = 1;
nodes = (
(267,347,l),
(278,411,l),
(318,411,l),
(330,476,l),
(290,476,l),
(305,560,l),
(236,560,l),
(221,476,l),
(134,476,l),
(284,700,l),
(211,700,l),
(52,467,l),
(42,411,l),
(205,411,l),
(194,347,l)
);
}
);
userData = {
assembly = "MPPEM[ ]	/* MeasurePixelPerEm */
PUSHB[ ]	/* 1 value pushed */
15
LT[ ]	/* LessThan */
IF[ ]	/* If */
NPUSHB[ ]	/* 28 values pushed */
0 3 1 2 2 3 114 4 1 2 5 1 0 6 2 0 104 0 1 1 57 77 0 6 6 58 6 78
ELSE[ ]	/* Else */
NPUSHB[ ]	/* 29 values pushed */
0 3 1 2 1 3 2 128 4 1 2 5 1 0 6 2 0 104 0 1 1 57 77 0 6 6 58 6 78
EIF[ ]	/* EndIf */
NPUSHB[ ]	/* 10 values pushed */
17 17 17 17 17 18 16 7 10 29
CALL[ ]	/* CallFunction */";
};
width = 298;
}
);
note = uni2074;
unicode = 8308;
},
{
glyphname = uni2075;
layers = (
{
layerId = m01;
shapes = (
{
closed = 1;
nodes = (
(208,342,o),
(278,383,o),
(318,454,o),
(318,497,qs),
(318,539,o),
(268,593,o),
(221,593,qs),
(185,593,o),
(155,573,q),
(178,635,l),
(322,635,l),
(333,700,l),
(134,700,l),
(67,494,l),
(136,494,l),
(160,532,o),
(201,532,qs),
(222,532,o),
(247,506,o),
(247,484,qs),
(247,451,o),
(207,406,o),
(177,406,qs),
(155,406,o),
(128,430,o),
(127,450,q),
(55,450,l),
(50,401,o),
(109,342,o),
(166,342,qs)
);
}
);
userData = {
assembly = "PUSHB[ ]	/* 6 values pushed */
20 1 2 6 1 76
MPPEM[ ]	/* MeasurePixelPerEm */
PUSHB[ ]	/* 1 value pushed */
29
LT[ ]	/* LessThan */
IF[ ]	/* If */
NPUSHB[ ]	/* 44 values pushed */
0 3 2 0 2 3 0 128 0 0 1 1 0 112 0 6 0 2 3 6 2 105 0 5 5 4 95 0 4 4 57 77 0 1 1 7 98 8 1 7 7 60 7 78
ELSE[ ]	/* Else */
NPUSHB[ ]	/* 45 values pushed */
0 3 2 0 2 3 0 128 0 0 1 2 0 1 126 0 6 0 2 3 6 2 105 0 5 5 4 95 0 4 4 57 77 0 1 1 7 98 8 1 7 7 60 7 78
EIF[ ]	/* EndIf */
NPUSHB[ ]	/* 16 values pushed */
0 0 0 29 0 28 34 17 17 17 36 34 18 9 10 29
CALL[ ]	/* CallFunction */";
};
width = 299;
}
);
note = uni2075;
unicode = 8309;
},
{
glyphname = uni2076;
layers = (
{
layerId = m01;
shapes = (
{
closed = 1;
nodes = (
(214,342,o),
(279,383,o),
(317,450,o),
(317,486,qs),
(317,528,o),
(265,578,o),
(227,578,qs),
(206,578,o),
(162,559,o),
(146,543,q),
(156,589,o),
(197,643,o),
(226,643,qs),
(265,643,o),
(265,602,q),
(333,602,l),
(335,649,o),
(286,705,o),
(237,705,qs),
(183,705,o),
(105,630,o),
(65,518,o),
(65,465,qs),
(65,409,o),
(119,342,o),
(175,342,qs)
);
},
{
closed = 1;
nodes = (
(163,406,o),
(138,430,o),
(138,450,qs),
(138,476,o),
(176,515,o),
(201,515,qs),
(221,515,o),
(245,492,o),
(245,472,qs),
(245,446,o),
(209,406,o),
(183,406,qs)
);
}
);
userData = {
assembly = "PUSHB[ ]	/* 6 values pushed */
15 1 5 3 1 76
MPPEM[ ]	/* MeasurePixelPerEm */
PUSHB[ ]	/* 1 value pushed */
31
LT[ ]	/* LessThan */
IF[ ]	/* If */
NPUSHB[ ]	/* 38 values pushed */
0 1 2 3 2 1 114 0 3 0 5 6 3 5 105 0 2 2 0 97 0 0 0 59 77 8 1 6 6 4 97 7 1 4 4 60 4 78
ELSE[ ]	/* Else */
NPUSHB[ ]	/* 39 values pushed */
0 1 2 3 2 1 3 128 0 3 0 5 6 3 5 105 0 2 2 0 97 0 0 0 59 77 8 1 6 6 4 97 7 1 4 4 60 4 78
EIF[ ]	/* EndIf */
NPUSHB[ ]	/* 21 values pushed */
26 26 0 0 26 37 26 36 32 30 0 25 0 24 36 33 18 37 9 10 26
CALL[ ]	/* CallFunction */";
};
width = 299;
}
);
note = uni2076;
unicode = 8310;
},
{
glyphname = uni2077;
layers = (
{
layerId = m01;
shapes = (
{
closed = 1;
nodes = (
(161,346,l),
(353,649,l),
(363,699,l),
(102,699,l),
(91,636,l),
(272,636,l),
(84,346,l)
);
}
);
userData = {
assembly = "NPUSHB[ ]	/* 22 values pushed */
0 0 0 1 95 0 1 1 57 77 0 2 2 58 2 78 18 17 16 3 10 25
CALL[ ]	/* CallFunction */";
};
width = 305;
}
);
note = uni2077;
unicode = 8311;
},
{
glyphname = uni2078;
layers = (
{
layerId = m01;
shapes = (
{
closed = 1;
nodes = (
(232,342,o),
(311,412,o),
(311,463,qs),
(311,515,o),
(265,537,q),
(293,549,o),
(329,592,o),
(329,623,qs),
(329,660,o),
(276,705,o),
(229,705,qs),
(170,705,o),
(91,646,o),
(91,598,qs),
(91,561,o),
(130,537,q),
(95,524,o),
(56,468,o),
(56,434,qs),
(56,395,o),
(113,342,o),
(167,342,qs)
);
},
{
closed = 1;
nodes = (
(155,402,o),
(128,427,o),
(128,446,qs),
(128,472,o),
(168,504,o),
(192,504,qs),
(214,504,o),
(240,481,o),
(240,462,qs),
(240,434,o),
(201,402,o),
(176,402,qs)
);
},
{
closed = 1;
nodes = (
(184,558,o),
(162,578,o),
(162,596,qs),
(162,617,o),
(194,645,o),
(217,645,qs),
(235,645,o),
(256,624,o),
(256,608,qs),
(256,587,o),
(224,558,o),
(203,558,qs)
);
}
);
userData = {
assembly = "NPUSHB[ ]	/* 65 values pushed */
16 5 2 2 5 1 76 8 1 5 0 2 3 5 2 105 0 4 4 0 97 0 0 0 59 77 7 1 3 3 1 97 6 1 1 1 60 1 78 34 34 22 22 0 0 34 45 34 44 40 38 22 33 22 32 28 26 0 21 0 20 41 9 10 23
CALL[ ]	/* CallFunction */";
};
width = 296;
}
);
note = uni2078;
unicode = 8312;
},
{
glyphname = uni2079;
layers = (
{
layerId = m01;
shapes = (
{
closed = 1;
nodes = (
(214,342,o),
(292,417,o),
(332,528,o),
(332,581,qs),
(332,637,o),
(278,705,o),
(222,705,qs),
(183,705,o),
(117,663,o),
(79,597,o),
(79,562,qs),
(79,522,o),
(129,469,o),
(170,469,qs),
(192,469,o),
(235,488,o),
(250,504,q),
(240,458,o),
(200,404,o),
(171,404,qs),
(133,404,o),
(131,446,q),
(64,446,l),
(61,399,o),
(112,342,o),
(160,342,qs)
);
},
{
closed = 1;
nodes = (
(175,532,o),
(152,554,o),
(152,574,qs),
(152,602,o),
(187,641,o),
(214,641,qs),
(234,641,o),
(258,618,o),
(258,598,qs),
(258,571,o),
(221,532,o),
(195,532,qs)
);
}
);
userData = {
assembly = "PUSHB[ ]	/* 6 values pushed */
8 1 2 6 1 76
MPPEM[ ]	/* MeasurePixelPerEm */
PUSHB[ ]	/* 1 value pushed */
30
LT[ ]	/* LessThan */
IF[ ]	/* If */
NPUSHB[ ]	/* 38 values pushed */
0 0 2 1 1 0 114 8 1 6 0 2 0 6 2 105 0 5 5 3 97 0 3 3 59 77 0 1 1 4 98 7 1 4 4 60 4 78
ELSE[ ]	/* Else */
NPUSHB[ ]	/* 39 values pushed */
0 0 2 1 2 0 1 128 8 1 6 0 2 0 6 2 105 0 5 5 3 97 0 3 3 59 77 0 1 1 4 98 7 1 4 4 60 4 78
EIF[ ]	/* EndIf */
NPUSHB[ ]	/* 21 values pushed */
26 26 0 0 26 37 26 36 32 30 0 25 0 24 37 36 33 18 9 10 26
CALL[ ]	/* CallFunction */";
};
width = 300;
}
);
note = uni2079;
unicode = 8313;
},
{
glyphname = period;
kernLeft = period;
kernRight = period;
layers = (
{
layerId = m01;
shapes = (
{
closed = 1;
nodes = (
(106,-10,o),
(149,34,o),
(149,65,qs),
(149,96,o),
(106,139,o),
(75,139,qs),
(43,139,o),
(0,96,o),
(0,65,qs),
(0,33,o),
(43,-10,o),
(75,-10,qs)
);
}
);
userData = {
assembly = "NPUSHB[ ]	/* 22 values pushed */
0 0 0 1 97 2 1 1 1 40 1 78 0 0 0 11 0 10 36 3 8 23
CALL[ ]	/* CallFunction */";
};
width = 213;
}
);
note = period;
unicode = 46;
},
{
glyphname = comma;
kernLeft = comma;
kernRight = comma;
layers = (
{
layerId = m01;
shapes = (
{
closed = 1;
nodes = (
(13,-117,l),
(149,123,l),
(37,123,l),
(-63,-117,l)
);
}
);
userData = {
assembly = "NPUSHB[ ]	/* 14 values pushed */
0 0 1 0 133 0 1 1 118 17 16 2 8 24
CALL[ ]	/* CallFunction */";
};
width = 201;
}
);
note = comma;
unicode = 44;
},
{
glyphname = colon;
kernLeft = colon;
kernRight = colon;
layers = (
{
layerId = m01;
shapes = (
{
closed = 1;
nodes = (
(172,362,o),
(215,405,o),
(215,436,qs),
(215,467,o),
(172,511,o),
(141,511,qs),
(109,511,o),
(66,468,o),
(66,436,qs),
(66,405,o),
(109,362,o),
(141,362,qs)
);
},
{
closed = 1;
nodes = (
(106,-10,o),
(149,34,o),
(149,65,qs),
(149,96,o),
(106,139,o),
(75,139,qs),
(43,139,o),
(0,96,o),
(0,65,qs),
(0,33,o),
(43,-10,o),
(75,-10,qs)
);
}
);
userData = {
assembly = "NPUSHB[ ]	/* 41 values pushed */
4 1 1 1 0 97 0 0 0 42 77 0 2 2 3 97 5 1 3 3 40 3 78 12 12 0 0 12 23 12 22 18 16 0 11 0 10 36 6 8 23
CALL[ ]	/* CallFunction */";
};
width = 214;
}
);
note = colon;
unicode = 58;
},
{
glyphname = semicolon;
kernLeft = semicolon;
kernRight = semicolon;
layers = (
{
layerId = m01;
shapes = (
{
closed = 1;
nodes = (
(25,-117,l),
(161,123,l),
(49,123,l),
(-51,-117,l)
);
},
{
closed = 1;
nodes = (
(196,362,o),
(240,405,o),
(240,436,qs),
(240,467,o),
(196,510,o),
(165,510,qs),
(134,510,o),
(91,467,o),
(91,436,qs),
(91,405,o),
(134,362,o),
(165,362,qs)
);
}
);
userData = {
assembly = "NPUSHB[ ]	/* 36 values pushed */
0 0 3 1 3 0 1 128 0 1 1 132 4 1 3 3 2 97 0 2 2 42 3 78 4 4 4 15 4 14 37 17 16 5 8 25
CALL[ ]	/* CallFunction */";
};
width = 238;
}
);
note = semicolon;
unicode = 59;
},
{
glyphname = ellipsis;
kernLeft = period;
kernRight = period;
layers = (
{
layerId = m01;
shapes = (
{
closed = 1;
nodes = (
(525,-10,o),
(568,33,o),
(568,65,qs),
(568,96,o),
(525,139,o),
(494,139,qs),
(463,139,o),
(419,96,o),
(419,65,qs),
(419,34,o),
(463,-10,o),
(494,-10,qs)
);
},
{
closed = 1;
nodes = (
(108,-10,o),
(151,34,o),
(151,65,qs),
(151,96,o),
(108,139,o),
(77,139,qs),
(45,139,o),
(2,96,o),
(2,65,qs),
(2,33,o),
(45,-10,o),
(77,-10,qs)
);
},
{
closed = 1;
nodes = (
(317,-10,o),
(360,34,o),
(360,65,qs),
(360,96,o),
(316,139,o),
(285,139,qs),
(254,139,o),
(211,96,o),
(211,65,qs),
(211,33,o),
(254,-10,o),
(285,-10,qs)
);
}
);
userData = {
assembly = "NPUSHB[ ]	/* 44 values pushed */
4 2 2 0 0 1 97 8 5 7 3 6 5 1 1 40 1 78 24 24 12 12 0 0 24 35 24 34 30 28 12 23 12 22 18 16 0 11 0 10 36 9 8 23
CALL[ ]	/* CallFunction */";
};
width = 636;
}
);
note = ellipsis;
unicode = 8230;
},
{
glyphname = exclam;
layers = (
{
layerId = m01;
shapes = (
{
closed = 1;
nodes = (
(167,212,l),
(266,700,l),
(144,700,l),
(71,212,l)
);
},
{
closed = 1;
nodes = (
(134,-10,o),
(177,34,o),
(177,65,qs),
(177,96,o),
(133,139,o),
(102,139,qs),
(71,139,o),
(28,96,o),
(28,65,qs),
(28,33,o),
(71,-10,o),
(102,-10,qs)
);
}
);
userData = {
assembly = "NPUSHB[ ]	/* 34 values pushed */
0 1 1 0 95 0 0 0 33 77 0 2 2 3 97 4 1 3 3 40 3 78 4 4 4 15 4 14 37 17 16 5 8 25
CALL[ ]	/* CallFunction */";
};
width = 269;
}
);
note = exclam;
unicode = 33;
},
{
glyphname = exclamdown;
kernLeft = exclamdown;
kernRight = exclamdown;
layers = (
{
layerId = m01;
shapes = (
{
closed = 1;
nodes = (
(136,-140,l),
(209,348,l),
(114,348,l),
(14,-140,l)
);
},
{
closed = 1;
nodes = (
(209,421,o),
(253,464,o),
(253,495,qs),
(253,526,o),
(209,569,o),
(178,569,qs),
(147,569,o),
(104,526,o),
(104,495,qs),
(104,464,o),
(147,421,o),
(178,421,qs)
);
}
);
userData = {
assembly = "NPUSHB[ ]	/* 37 values pushed */
0 2 4 1 3 0 2 3 105 0 0 1 1 0 87 0 0 0 1 95 0 1 0 1 79 4 4 4 15 4 14 37 17 16 5 8 25
CALL[ ]	/* CallFunction */";
};
width = 269;
}
);
note = exclamdown;
unicode = 161;
},
{
glyphname = question;
kernLeft = question;
kernRight = question;
layers = (
{
layerId = m01;
shapes = (
{
closed = 1;
nodes = (
(224,211,l),
(243,298,l),
(326,300,o),
(387,327,qs),
(451,355,o),
(521,462,o),
(521,537,qs),
(521,618,o),
(416,712,o),
(328,712,qs),
(258,712,o),
(203,686,qs),
(147,660,o),
(76,567,o),
(66,507,q),
(173,507,l),
(182,558,o),
(255,618,o),
(310,618,qs),
(356,618,o),
(410,567,o),
(410,525,qs),
(410,466,o),
(381,434,qs),
(328,374,o),
(190,374,qs),
(150,374,l),
(125,211,l)
);
},
{
closed = 1;
nodes = (
(184,-10,o),
(227,33,o),
(227,65,qs),
(227,96,o),
(184,139,o),
(153,139,qs),
(122,139,o),
(78,96,o),
(78,65,qs),
(78,34,o),
(122,-10,o),
(153,-10,qs)
);
}
);
userData = {
assembly = "MPPEM[ ]	/* MeasurePixelPerEm */
PUSHB[ ]	/* 1 value pushed */
15
LT[ ]	/* LessThan */
IF[ ]	/* If */
NPUSHB[ ]	/* 45 values pushed */
0 2 1 0 1 2 0 128 0 5 4 6 4 5 114 0 0 0 4 5 0 4 105 0 1 1 3 97 0 3 3 39 77 0 6 6 7 97 8 1 7 7 40 7 78
ELSE[ ]	/* Else */
NPUSHB[ ]	/* 46 values pushed */
0 2 1 0 1 2 0 128 0 5 4 6 4 5 6 128 0 0 0 4 5 0 4 105 0 1 1 3 97 0 3 3 39 77 0 6 6 7 97 8 1 7 7 40 7 78
EIF[ ]	/* EndIf */
NPUSHB[ ]	/* 16 values pushed */
28 28 28 39 28 38 37 17 22 36 18 37 32 9 8 29
CALL[ ]	/* CallFunction */";
};
width = 510;
}
);
note = question;
unicode = 63;
},
{
glyphname = questiondown;
kernLeft = questiondown;
kernRight = questiondown;
layers = (
{
layerId = m01;
shapes = (
{
closed = 1;
nodes = (
(251,-159,o),
(363,-115,o),
(443,-22,o),
(454,47,q),
(347,47,l),
(338,-5,o),
(265,-64,o),
(210,-64,qs),
(164,-64,o),
(110,-14,o),
(110,29,qs),
(110,106,o),
(220,179,o),
(331,179,qs),
(370,179,l),
(395,343,l),
(297,343,l),
(277,255,l),
(207,254,o),
(81,207,o),
(-1,101,o),
(-1,16,qs),
(-1,-65,o),
(104,-159,o),
(193,-159,qs)
);
},
{
closed = 1;
nodes = (
(399,414,o),
(442,457,o),
(442,489,qs),
(442,520,o),
(399,563,o),
(367,563,qs),
(336,563,o),
(293,520,o),
(293,489,qs),
(293,458,o),
(336,414,o),
(367,414,qs)
);
}
);
userData = {
assembly = "MPPEM[ ]	/* MeasurePixelPerEm */
PUSHB[ ]	/* 1 value pushed */
15
LT[ ]	/* LessThan */
IF[ ]	/* If */
NPUSHB[ ]	/* 49 values pushed */
0 1 7 0 0 1 114 0 4 2 3 2 4 3 128 0 6 9 1 7 1 6 7 105 0 0 0 2 4 0 2 106 0 3 5 5 3 89 0 3 3 5 97 8 1 5 3 5 81
ELSE[ ]	/* Else */
NPUSHB[ ]	/* 50 values pushed */
0 1 7 0 7 1 0 128 0 4 2 3 2 4 3 128 0 6 9 1 7 1 6 7 105 0 0 0 2 4 0 2 106 0 3 5 5 3 89 0 3 3 5 97 8 1 5 3 5 81
EIF[ ]	/* EndIf */
NPUSHB[ ]	/* 22 values pushed */
25 25 0 0 25 36 25 35 31 29 0 24 0 23 18 36 33 17 21 10 8 27
CALL[ ]	/* CallFunction */";
};
width = 510;
}
);
note = questiondown;
unicode = 191;
},
{
glyphname = periodcentered;
layers = (
{
layerId = m01;
shapes = (
{
closed = 1;
nodes = (
(154,265,o),
(197,308,o),
(197,339,qs),
(197,371,o),
(154,414,o),
(123,414,qs),
(92,414,o),
(48,371,o),
(48,339,qs),
(48,308,o),
(92,265,o),
(123,265,qs)
);
}
);
userData = {
assembly = "NPUSHB[ ]	/* 27 values pushed */
0 0 1 1 0 89 0 0 0 1 97 2 1 1 0 1 81 0 0 0 11 0 10 36 3 8 23
CALL[ ]	/* CallFunction */";
};
width = 213;
}
);
note = periodcentered;
unicode = 183;
},
{
glyphname = bullet;
layers = (
{
layerId = m01;
shapes = (
{
closed = 1;
nodes = (
(250,203,o),
(326,278,o),
(326,333,qs),
(326,369,o),
(291,429,o),
(231,464,o),
(195,464,qs),
(140,464,o),
(65,388,o),
(65,333,qs),
(65,298,o),
(100,238,o),
(160,203,o),
(195,203,qs)
);
}
);
userData = {
assembly = "NPUSHB[ ]	/* 27 values pushed */
0 0 1 1 0 89 0 0 0 1 97 2 1 1 0 1 81 0 0 0 13 0 12 37 3 8 23
CALL[ ]	/* CallFunction */";
};
width = 360;
}
);
note = bullet;
unicode = 8226;
},
{
glyphname = asterisk;
kernLeft = asterisk;
kernRight = asterisk;
layers = (
{
layerId = m01;
shapes = (
{
closed = 1;
nodes = (
(291,359,l),
(313,484,l),
(411,422,l),
(459,485,l),
(360,548,l),
(480,610,l),
(455,673,l),
(335,610,l),
(357,736,l),
(284,736,l),
(262,610,l),
(165,673,l),
(117,610,l),
(215,548,l),
(96,485,l),
(120,422,l),
(240,484,l),
(218,359,l)
);
}
);
userData = {
assembly = "NPUSHB[ ]	/* 39 values pushed */
15 14 13 12 11 10 9 6 5 4 3 2 1 13 1 0 1 76 0 0 1 1 0 87 0 0 0 1 95 0 1 0 1 79 24 23 2 8 24
CALL[ ]	/* CallFunction */";
};
width = 482;
}
);
note = asterisk;
unicode = 42;
},
{
glyphname = numbersign;
layers = (
{
layerId = m01;
shapes = (
{
closed = 1;
nodes = (
(195,0,l),
(266,182,l),
(464,182,l),
(393,0,l),
(500,0,l),
(571,182,l),
(730,182,l),
(748,284,l),
(611,284,l),
(670,436,l),
(826,436,l),
(843,537,l),
(710,537,l),
(780,717,l),
(673,717,l),
(602,537,l),
(405,537,l),
(475,717,l),
(368,717,l),
(298,537,l),
(128,537,l),
(111,436,l),
(258,436,l),
(199,284,l),
(34,284,l),
(16,182,l),
(159,182,l),
(88,0,l)
);
},
{
closed = 1;
nodes = (
(365,436,l),
(563,436,l),
(503,284,l),
(306,284,l)
);
}
);
userData = {
assembly = "MPPEM[ ]	/* MeasurePixelPerEm */
PUSHB[ ]	/* 1 value pushed */
29
LT[ ]	/* LessThan */
IF[ ]	/* If */
NPUSHB[ ]	/* 38 values pushed */
7 5 2 3 14 8 2 2 1 3 2 104 16 15 9 3 1 12 10 2 0 11 1 0 103 6 1 4 4 33 77 13 1 11 11 34 11 78
ELSE[ ]	/* Else */
NPUSHB[ ]	/* 38 values pushed */
6 1 4 3 4 133 7 5 2 3 14 8 2 2 1 3 2 104 16 15 9 3 1 12 10 2 0 11 1 0 103 13 1 11 11 34 11 78
EIF[ ]	/* EndIf */
NPUSHB[ ]	/* 30 values pushed */
28 28 28 31 28 31 30 29 27 26 25 24 23 22 21 20 19 18 17 17 17 17 17 17 17 17 16 17 8 31
CALL[ ]	/* CallFunction */";
};
width = 831;
}
);
note = numbersign;
unicode = 35;
},
{
glyphname = slash;
kernLeft = slash;
kernRight = slash;
layers = (
{
layerId = m01;
shapes = (
{
closed = 1;
nodes = (
(66,-106,l),
(472,773,l),
(361,773,l),
(-44,-106,l)
);
}
);
userData = {
assembly = "NPUSHB[ ]	/* 14 values pushed */
0 0 1 0 133 0 1 1 118 17 16 2 8 24
CALL[ ]	/* CallFunction */";
};
width = 398;
}
);
note = slash;
unicode = 47;
},
{
glyphname = backslash;
kernLeft = backslash;
kernRight = backslash;
layers = (
{
layerId = m01;
shapes = (
{
closed = 1;
nodes = (
(316,-106,l),
(221,773,l),
(111,773,l),
(206,-106,l)
);
}
);
userData = {
assembly = "NPUSHB[ ]	/* 21 values pushed */
0 0 1 1 0 87 0 0 0 1 95 0 1 0 1 79 17 16 2 8 24
CALL[ ]	/* CallFunction */";
};
width = 398;
}
);
note = backslash;
unicode = 92;
},
{
glyphname = periodcentered.loclCAT;
layers = (
{
layerId = m01;
shapes = (
{
closed = 1;
nodes = (
(121,265,o),
(165,308,o),
(165,339,qs),
(165,371,o),
(122,414,o),
(90,414,qs),
(59,414,o),
(16,371,o),
(16,339,qs),
(16,308,o),
(59,265,o),
(90,265,qs)
);
}
);
userData = {
assembly = "NPUSHB[ ]	/* 27 values pushed */
0 0 1 1 0 89 0 0 0 1 97 2 1 1 0 1 81 0 0 0 11 0 10 36 3 8 23
CALL[ ]	/* CallFunction */";
};
width = 148;
}
);
note = periodcentered.loclCAT;
},
{
glyphname = periodcentered.loclCAT.case;
layers = (
{
layerId = m01;
shapes = (
{
closed = 1;
nodes = (
(-102,276,o),
(-59,319,o),
(-59,350,qs),
(-59,381,o),
(-102,424,o),
(-133,424,qs),
(-165,424,o),
(-208,381,o),
(-208,350,qs),
(-208,319,o),
(-164,276,o),
(-133,276,qs)
);
}
);
userData = {
assembly = "NPUSHB[ ]	/* 27 values pushed */
0 0 1 1 0 89 0 0 0 1 97 2 1 1 0 1 81 0 0 0 11 0 10 36 3 8 23
CALL[ ]	/* CallFunction */";
};
width = 0;
}
);
note = periodcentered.loclCAT.case;
},
{
glyphname = hyphen;
kernLeft = hyphen;
kernRight = hyphen;
layers = (
{
layerId = m01;
shapes = (
{
closed = 1;
nodes = (
(413,242,l),
(430,337,l),
(72,337,l),
(56,242,l)
);
}
);
userData = {
assembly = "NPUSHB[ ]	/* 21 values pushed */
0 0 1 1 0 87 0 0 0 1 95 0 1 0 1 79 17 16 2 8 24
CALL[ ]	/* CallFunction */";
};
width = 469;
}
);
note = hyphen;
unicode = 45;
},
{
glyphname = endash;
kernLeft = hyphen;
kernRight = hyphen;
layers = (
{
layerId = m01;
shapes = (
{
closed = 1;
nodes = (
(583,242,l),
(600,337,l),
(65,337,l),
(49,242,l)
);
}
);
userData = {
assembly = "NPUSHB[ ]	/* 21 values pushed */
0 0 1 1 0 87 0 0 0 1 95 0 1 0 1 79 17 16 2 8 24
CALL[ ]	/* CallFunction */";
};
width = 633;
}
);
note = endash;
unicode = 8211;
},
{
glyphname = emdash;
kernLeft = hyphen;
kernRight = hyphen;
layers = (
{
layerId = m01;
shapes = (
{
closed = 1;
nodes = (
(798,242,l),
(814,337,l),
(65,337,l),
(49,242,l)
);
}
);
userData = {
assembly = "NPUSHB[ ]	/* 21 values pushed */
0 0 1 1 0 87 0 0 0 1 95 0 1 0 1 79 17 16 2 8 24
CALL[ ]	/* CallFunction */";
};
width = 848;
}
);
note = emdash;
unicode = 8212;
},
{
glyphname = underscore;
kernLeft = underscore;
kernRight = underscore;
layers = (
{
layerId = m01;
shapes = (
{
closed = 1;
nodes = (
(536,-145,l),
(555,-37,l),
(-1,-37,l),
(-20,-145,l)
);
}
);
userData = {
assembly = "PUSHB[ ]	/* 2 values pushed */
6 100
WCVTP[ ]	/* WriteCVTInPixels */
NPUSHB[ ]	/* 21 values pushed */
0 0 1 1 0 87 0 0 0 1 95 0 1 0 1 79 17 16 2 8 24
CALL[ ]	/* CallFunction */
PUSHB[ ]	/* 2 values pushed */
6 0
WCVTP[ ]	/* WriteCVTInPixels */";
};
width = 654;
}
);
note = underscore;
unicode = 95;
},
{
glyphname = parenleft;
kernRight = parenleft;
layers = (
{
layerId = m01;
shapes = (
{
closed = 1;
nodes = (
(280,-145,l),
(283,-134,l),
(223,-59,o),
(157,129,o),
(157,231,qs),
(157,332,o),
(191,433,qs),
(226,533,o),
(356,721,o),
(447,800,q),
(448,811,l),
(335,811,l),
(243,733,o),
(181,641,qs),
(115,544,o),
(44,326,o),
(44,216,qs),
(44,109,o),
(110,-78,o),
(166,-145,q)
);
}
);
userData = {
assembly = "NPUSHB[ ]	/* 14 values pushed */
0 0 1 0 133 0 1 1 118 26 23 2 8 24
CALL[ ]	/* CallFunction */";
};
width = 378;
}
);
note = parenleft;
unicode = 40;
},
